<?xml version="1.0" encoding="utf-8"?>
<svg preserveAspectRatio="none slice" width="270" height="90" viewBox="0 0 270 90" xmlns="http://www.w3.org/2000/svg"
     xmlns:xlink="http://www.w3.org/1999/xlink">
    <svg id="btnpreviewsmall_white" width="13" height="13" viewBox="0 0 13 13" x="0" y="0" xmlns="http://www.w3.org/2000/svg">
        <path id="합치기_35" data-name="합치기 35" d="M2105.446,3753.908a6.037,6.037,0,0,1-9.55-4.908h.3l-.3,0a6.036,6.036,0,0,1,5.738-6.028v-.008h.6v.008a6.037,6.037,0,0,1,4.609,9.545l2.316,2.315-1.393,1.391Zm-7.585-4.91a4.069,4.069,0,1,0,4.071-4.067A4.077,4.077,0,0,0,2097.862,3749Z" transform="translate(-2095.896 -3742.963)" fill="#FFF"/>
    </svg>
    <svg id="btnpreviewsmall_black" width="13" height="13" viewBox="0 0 13 13" x="0" y="30" xmlns="http://www.w3.org/2000/svg">
        <path id="합치기_35" data-name="합치기 35" d="M2105.446,3753.908a6.037,6.037,0,0,1-9.55-4.908h.3l-.3,0a6.036,6.036,0,0,1,5.738-6.028v-.008h.6v.008a6.037,6.037,0,0,1,4.609,9.545l2.316,2.315-1.393,1.391Zm-7.585-4.91a4.069,4.069,0,1,0,4.071-4.067A4.077,4.077,0,0,0,2097.862,3749Z" transform="translate(-2095.896 -3742.963)" fill="#000"/>
    </svg>
    <svg id="page" width="15.303" height="19.1" viewBox="0 0 15.303 19.1" x="30" y="0" xmlns="http://www.w3.org/2000/svg">
        <path id="합치기_5" data-name="합치기 5" d="M1704.086,936.6a2.9,2.9,0,0,1-2.9-2.9V920.4a2.9,2.9,0,0,1,2.9-2.9h6.65a1.009,1.009,0,0,1,.707.292l4.741,4.741a1.015,1.015,0,0,1,.235.354.993.993,0,0,1,.069.362l0,10.451a2.9,2.9,0,0,1-2.9,2.9Zm-.9-16.2v13.3a.9.9,0,0,0,.9.9h9.5a.9.9,0,0,0,.9-.9v-9.45h-2.8a1.949,1.949,0,0,1-1.951-1.951v-2.8h-5.65A.9.9,0,0,0,1703.185,920.4Zm8.551,1.85h1.335l-1.335-1.335Zm-5.75,10.548a1,1,0,1,1,0-2h5.7a1,1,0,1,1,0,2Zm0-3.8a1,1,0,1,1,0-2h5.7a1,1,0,1,1,0,2Zm0-3.8a1,1,0,0,1,0-2h.954a1,1,0,0,1,0,2Z" transform="translate(-1701.185 -917.5)" fill="#4d4d4d"/>
    </svg>
    <svg id="notice" width="10.981" height="12.009" viewBox="0 0 10.981 12.009" x="30" y="30" xmlns="http://www.w3.org/2000/svg">
        <path id="합치기_2" data-name="합치기 2" d="M1739.341,1042.063a1.668,1.668,0,0,1-.616-.613.606.606,0,0,1,.22-.831.613.613,0,0,1,.835.222.464.464,0,0,0,.171.17.475.475,0,0,0,.65-.172.614.614,0,0,1,.834-.22.608.608,0,0,1,.221.832,1.7,1.7,0,0,1-1.47.84A1.679,1.679,0,0,1,1739.341,1042.063Zm-4.032-2.47a.609.609,0,0,1-.584-.432.6.6,0,0,1,.245-.68c.005,0,1.356-1.011,1.356-4.353a3.866,3.866,0,0,1,7.731,0c0,3.343,1.351,4.349,1.365,4.358a.614.614,0,0,1,.228.683.6.6,0,0,1-.576.425Z" transform="translate(-1734.698 -1030.282)" fill="#fff"/>
    </svg>
    <svg id="new" width="37" height="20" viewBox="0 0 37 20" x="60" y="0" xmlns="http://www.w3.org/2000/svg">
        <g id="그룹_21" data-name="그룹 21" transform="translate(-2300.063 -1146.231)">
            <path id="패스_12" data-name="패스 12" d="M2310.063,1146.231h17a10,10,0,1,1,0,20h-17a10,10,0,1,1,0-20Z" fill="#fcce0d" fill-rule="evenodd"/>
            <path id="패스_14" data-name="패스 14" d="M2313.719,1152.662h-.778v4.1c-.006.2,0,.547.026,1.023s.037.76.043.848h-.039l-3.891-5.967h-.937v7.139h.765v-4.059q0-.879-.078-1.933h.039l3.9,5.992h.947Z"/>
            <path id="패스_15" data-name="패스 15" d="M2319.461,1159.059h-3.148v-2.627h2.959v-.733h-2.959v-2.3h3.148v-.736h-3.979v7.139h3.979Z"/>
            <path id="패스_16" data-name="패스 16" d="M2328.982,1152.662h-.878l-1.124,4.4a15.059,15.059,0,0,0-.351,1.689,13.122,13.122,0,0,0-.4-1.709l-1.343-4.379h-.879l-1.28,4.34a12.222,12.222,0,0,0-.39,1.748,16.689,16.689,0,0,0-.342-1.68l-1.127-4.408h-.879l1.9,7.139h.82l1.4-4.752a11,11,0,0,0,.342-1.41,4.747,4.747,0,0,0,.133.58c.084.322.16.59.229.8l1.441,4.781h.82Z"/>
        </g>
    </svg>
    <svg id="hot" width="37" height="20" viewBox="0 0 37 20" x="60" y="30" xmlns="http://www.w3.org/2000/svg">
        <g id="그룹_22" data-name="그룹 22" transform="translate(-2344.592 -1145.736)">
            <path id="패스_13" data-name="패스 13" d="M2354.592,1145.736h17a10,10,0,0,1,0,20h-17a10,10,0,0,1,0-20Z" fill="#ef6c42" fill-rule="evenodd"/>
            <path id="패스_17" data-name="패스 17" d="M2358.9,1152.174h-.83v3.037h-3.759v-3.037h-.83v7.139h.83v-3.36h3.759v3.36h.83Z" fill="#fff"/>
            <path id="패스_18" data-name="패스 18" d="M2365.988,1153.037a3.043,3.043,0,0,0-2.4-.976,3.1,3.1,0,0,0-2.441.961,3.905,3.905,0,0,0-.86,2.7,3.961,3.961,0,0,0,.858,2.722,3.084,3.084,0,0,0,2.433.965,3.049,3.049,0,0,0,2.41-.982,4.624,4.624,0,0,0,0-5.391Zm-4.205.516a2.2,2.2,0,0,1,1.8-.75,2.162,2.162,0,0,1,1.785.746,4.278,4.278,0,0,1,0,4.387,2.525,2.525,0,0,1-3.586,0,3.4,3.4,0,0,1-.619-2.2A3.352,3.352,0,0,1,2361.783,1153.553Z" fill="#fff"/>
            <path id="패스_19" data-name="패스 19" d="M2370.443,1152.91h2.26v-.736h-5.351v.736h2.261v6.4h.83Z" fill="#fff"/>
        </g>
    </svg>
    <svg id="prevend" width="13.831" height="11.917" viewBox="0 0 13.831 11.917" x="0" y="60" xmlns="http://www.w3.org/2000/svg">
        <path id="합치기_6" data-name="합치기 6" d="M1913.206,1434.856l-4.938-4.965a1,1,0,0,1,0-1.4l4.938-4.966a.988.988,0,0,1,1.4,0,1,1,0,0,1,0,1.4l-4.244,4.263,4.244,4.261a1,1,0,0,1,0,1.406.984.984,0,0,1-1.4,0Zm-6.915,0-4.94-4.965a1,1,0,0,1,0-1.4l4.94-4.966a.985.985,0,0,1,1.4,0,1,1,0,0,1,0,1.4l-4.242,4.263,4.242,4.261a1,1,0,0,1,0,1.406.982.982,0,0,1-1.4,0Z" transform="translate(-1901.061 -1423.23)" fill="#8f8f8f"/>
    </svg>
    <svg id="prev" width="7.848" height="13.915" viewBox="0 0 7.848 13.915" x="30" y="60" xmlns="http://www.w3.org/2000/svg">
        <path id="패스_25" data-name="패스 25" d="M1958.185,1436.145a.975.975,0,0,1-.694-.291l-5.885-5.964a1,1,0,0,1,0-1.406l5.885-5.962a.972.972,0,0,1,1.388,0,1,1,0,0,1,0,1.405l-5.191,5.261,5.191,5.26a1,1,0,0,1,0,1.406A.973.973,0,0,1,1958.185,1436.145Z" transform="translate(-1951.319 -1422.23)" fill="#8f8f8f"/>
    </svg>
    <svg id="next" width="7.848" height="13.915" viewBox="0 0 7.848 13.915" x="60" y="60" xmlns="http://www.w3.org/2000/svg">
        <path id="패스_28" data-name="패스 28" d="M2411.129,1436.145a.968.968,0,0,0,.693-.291l5.887-5.964a1,1,0,0,0,0-1.406l-5.887-5.962a.97.97,0,0,0-1.387,0,1,1,0,0,0,0,1.405l5.192,5.261-5.192,5.26a1.006,1.006,0,0,0,0,1.406A.975.975,0,0,0,2411.129,1436.145Z" transform="translate(-2410.148 -1422.23)" fill="#8f8f8f"/>
    </svg>
    <svg id="nextend" width="13.832" height="11.917" viewBox="0 0 13.832 11.917" x="90" y="60" xmlns="http://www.w3.org/2000/svg">
        <path id="합치기_7" data-name="합치기 7" d="M2461.688,1434.856a1,1,0,0,1,0-1.406l4.24-4.261-4.24-4.263a1,1,0,0,1,0-1.4.984.984,0,0,1,1.4,0l4.939,4.966a.994.994,0,0,1,0,1.4l-4.939,4.965a.981.981,0,0,1-1.4,0Zm-6.917,0a1,1,0,0,1,0-1.406l4.242-4.261-4.242-4.263a1,1,0,0,1,0-1.4.984.984,0,0,1,1.4,0l4.939,4.966a.994.994,0,0,1,0,1.4l-4.939,4.965a.981.981,0,0,1-1.4,0Z" transform="translate(-2454.481 -1423.23)" fill="#8f8f8f"/>
    </svg>
    <svg id="downsmall_gray" width="13" height="13" viewBox="0 0 13 13" x="120" y="0" xmlns="http://www.w3.org/2000/svg">
        <path id="합치기_52" data-name="합치기 52" d="M2577.647,878.171a2.119,2.119,0,0,1-2.12-2.119v-1.368a.749.749,0,0,1,1.5,0v1.368a.62.62,0,0,0,.621.617h8.208a.619.619,0,0,0,.619-.617l0-1.368a.75.75,0,0,1,1.5,0v1.368a2.12,2.12,0,0,1-2.12,2.119Zm3.82-3.478h0l-.012-.005-.012,0h0a.728.728,0,0,1-.222-.154l-3.421-3.421v0a.751.751,0,0,1,1.061-1.063l2.141,2.141v-6.4a.749.749,0,1,1,1.5,0v6.4l2.143-2.142a.749.749,0,1,1,1.059,1.059l-3.407,3.407a.747.747,0,0,1-.826.178Z" transform="translate(-2575.527 -865.04)" fill="#4d4d4d"/>
    </svg>
    <svg id="downsmall_white" width="13" height="13" viewBox="0 0 13 13" x="120" y="30" xmlns="http://www.w3.org/2000/svg">
        <path id="합치기_52" data-name="합치기 52" d="M2577.647,878.171a2.119,2.119,0,0,1-2.12-2.119v-1.368a.749.749,0,0,1,1.5,0v1.368a.62.62,0,0,0,.621.617h8.208a.619.619,0,0,0,.619-.617l0-1.368a.75.75,0,0,1,1.5,0v1.368a2.12,2.12,0,0,1-2.12,2.119Zm3.82-3.478h0l-.012-.005-.012,0h0a.728.728,0,0,1-.222-.154l-3.421-3.421v0a.751.751,0,0,1,1.061-1.063l2.141,2.141v-6.4a.749.749,0,1,1,1.5,0v6.4l2.143-2.142a.749.749,0,1,1,1.059,1.059l-3.407,3.407a.747.747,0,0,1-.826.178Z" transform="translate(-2575.527 -865.04)" fill="#FFF"/>
    </svg>
    <svg id="btnpreviewsmall_gray" width="13" height="13" viewBox="0 0 13 13" x="150" y="0" xmlns="http://www.w3.org/2000/svg">
        <path id="합치기_35" data-name="합치기 35" d="M2105.446,3753.908a6.037,6.037,0,0,1-9.55-4.908h.3l-.3,0a6.036,6.036,0,0,1,5.738-6.028v-.008h.6v.008a6.037,6.037,0,0,1,4.609,9.545l2.316,2.315-1.393,1.391Zm-7.585-4.91a4.069,4.069,0,1,0,4.071-4.067A4.077,4.077,0,0,0,2097.862,3749Z" transform="translate(-2095.896 -3742.963)" fill="#4d4d4d"/>
    </svg>
    <svg id="btnpreviewsmall_white" width="13" height="13" viewBox="0 0 13 13" x="150" y="30" xmlns="http://www.w3.org/2000/svg">
        <path id="합치기_35" data-name="합치기 35" d="M2105.446,3753.908a6.037,6.037,0,0,1-9.55-4.908h.3l-.3,0a6.036,6.036,0,0,1,5.738-6.028v-.008h.6v.008a6.037,6.037,0,0,1,4.609,9.545l2.316,2.315-1.393,1.391Zm-7.585-4.91a4.069,4.069,0,1,0,4.071-4.067A4.077,4.077,0,0,0,2097.862,3749Z" transform="translate(-2095.896 -3742.963)" fill="#FFF"/>
    </svg>
    <svg id="arrowup" width="12.251" height="6.999" viewBox="0 0 12.251 6.999" x="120" y="60" xmlns="http://www.w3.org/2000/svg">
        <path id="패스_70" data-name="패스 70" d="M1823.072,4413.146l-5.25,5.248a.874.874,0,0,0,0,1.237h0a.875.875,0,0,0,1.238,0h0l4.63-4.631,4.632,4.631a.875.875,0,0,0,1.238,0h0a.874.874,0,0,0,0-1.237h0l-5.25-5.248a.869.869,0,0,0-.62-.257h0a.864.864,0,0,0-.618.257Z" transform="translate(-1817.565 -4412.889)" fill="#8c8c8c"/>
    </svg>
    <svg id="arrowdown" width="12.251" height="6.999" viewBox="0 0 12.251 6.999" x="150" y="60" xmlns="http://www.w3.org/2000/svg">
        <path id="패스_71" data-name="패스 71" d="M1823.072,4477l-5.25-5.249a.874.874,0,0,1,0-1.237h0a.875.875,0,0,1,1.238,0h0l4.63,4.631,4.632-4.631a.875.875,0,0,1,1.238,0h0a.874.874,0,0,1,0,1.237h0l-5.25,5.249a.868.868,0,0,1-.62.256h0a.863.863,0,0,1-.618-.256Z" transform="translate(-1817.565 -4470.257)" fill="#8c8c8c"/>
    </svg>
    <svg id="p-date__icon" width="14.367" height="15.953" viewBox="0 0 14.367 15.953" x="180" y="0" xmlns="http://www.w3.org/2000/svg">
        <path id="합치기_46" data-name="합치기 46" d="M2243.9,4194.935a2.438,2.438,0,0,1-2.433-2.437V4183a2.432,2.432,0,0,1,2.433-2.434v1.7a.737.737,0,0,0-.734.735v2.315h10.967V4183a.735.735,0,0,0-.733-.735h-.733V4183a.85.85,0,0,1-1.7,0v-.735h-4.633V4183a.851.851,0,1,1-1.7,0v-.733h-.733v-1.7h.733v-.733a.851.851,0,1,1,1.7,0v.733h4.633v-.734a.85.85,0,0,1,1.7,0v.734h.733a2.435,2.435,0,0,1,2.434,2.434v9.5a2.441,2.441,0,0,1-2.434,2.438Zm-.734-2.437a.735.735,0,0,0,.734.734h9.5a.734.734,0,0,0,.733-.734v-5.482h-10.967Zm2.316-.73a.851.851,0,0,1-.6-.25.861.861,0,0,1-.249-.6v-1.584a.859.859,0,0,1,.249-.6.847.847,0,0,1,.6-.25h1.583a.854.854,0,0,1,.852.851v1.584a.852.852,0,0,1-.852.85Z" transform="translate(-2241.468 -4178.982)" fill="#4d4d4d"/>
    </svg>
    <svg id="p-date__icon_light" width="14.367" height="15.952" viewBox="0 0 14.367 15.952" x="180" y="30" xmlns="http://www.w3.org/2000/svg">
        <path id="합치기_45" data-name="합치기 45" d="M2243.9,4244.934a2.436,2.436,0,0,1-2.433-2.436V4233a2.435,2.435,0,0,1,2.433-2.435v1.7a.736.736,0,0,0-.734.734v2.316h10.968V4233a.736.736,0,0,0-.734-.734h-.733V4233a.85.85,0,1,1-1.7,0v-.734h-4.633V4233a.851.851,0,1,1-1.7,0v-.731h-.733v-1.7h.733v-.732a.851.851,0,1,1,1.7,0v.732h4.633v-.733a.85.85,0,0,1,1.7,0v.733h.733a2.437,2.437,0,0,1,2.434,2.435v9.5a2.439,2.439,0,0,1-2.434,2.436Zm-.734-2.436a.735.735,0,0,0,.734.734h9.5a.735.735,0,0,0,.734-.734v-5.482h-10.968Zm2.316-.732a.85.85,0,0,1-.849-.849v-1.584a.85.85,0,0,1,.849-.851h1.584a.851.851,0,0,1,.85.851v1.584a.85.85,0,0,1-.85.849Z" transform="translate(-2241.468 -4228.982)" fill="#ccc"/>
    </svg>
    <svg id="p-form-check" width="14.354" height="10.235" viewBox="0 0 14.354 10.235" x="180" y="60" xmlns="http://www.w3.org/2000/svg">
        <path id="패스_213" data-name="패스 213" d="M2409.233,3977.116l-4.118-4.119,0,0a1,1,0,0,1,0-1.416h0a1,1,0,0,1,1.416,0h0l3.411,3.408,7.528-7.526a1,1,0,0,1,1.414,0h0a1,1,0,0,1,0,1.414h0l-8.236,8.236a.99.99,0,0,1-.706.292h0a1,1,0,0,1-.709-.292Z" transform="translate(-2404.823 -3967.173)" fill="#fff"/>
    </svg>
    <svg id="question" width="9.96" height="12.63" viewBox="0 0 9.96 12.63" x="210" y="0" xmlns="http://www.w3.org/2000/svg">
        <path id="패스_222" data-name="패스 222" d="M1892.081,5306.515a7.591,7.591,0,0,0-1.065-4.469,4.8,4.8,0,0,0-7.274,0,9.975,9.975,0,0,0,0,8.969,4.176,4.176,0,0,0,3.645,1.65,4.581,4.581,0,0,0,2.774-.795l1.335,1.14,1.141-1.32-1.336-1.125A8.466,8.466,0,0,0,1892.081,5306.515Zm-2.19,0a9.24,9.24,0,0,1-.27,2.61L1888.3,5308l-1.139,1.305,1.409,1.216a2.435,2.435,0,0,1-1.184.269,2.125,2.125,0,0,1-1.875-.9,5.914,5.914,0,0,1-.645-3.375,5.825,5.825,0,0,1,.645-3.344,2.387,2.387,0,0,1,3.734,0C1889.7,5303.815,1889.891,5304.731,1889.891,5306.515Z" transform="translate(-1882.677 -5300.38)" fill="#fff"/>
    </svg>
    <svg id="answer" width="10.199" height="11.864" viewBox="0 0 10.199 11.864" x="210" y="30" xmlns="http://www.w3.org/2000/svg">
        <path id="패스_223" data-name="패스 223" d="M1884.822,5369.29l.7-2.431h4.245l.718,2.431h2.266l-3.84-11.864H1886.4l-3.84,11.864Zm4.408-4.29h-3.164l1.59-5.4Z" transform="translate(-1882.557 -5357.426)"/>
    </svg>
    <svg id="faqarrowdown" width="17.826" height="9.919" viewBox="0 0 17.826 9.919" x="240" y="0" xmlns="http://www.w3.org/2000/svg">
        <path id="패스_55" data-name="패스 55" d="M2768.5,3181.29a.979.979,0,0,1-.7-.29l-7.924-7.935a.991.991,0,1,1,1.4-1.4l7.223,7.235,7.223-7.235a.991.991,0,0,1,1.4,1.4L2769.2,3181A.984.984,0,0,1,2768.5,3181.29Z" transform="translate(-2759.583 -3171.371)" fill="#ccc"/>
    </svg>
    <svg id="faqarrowup" width="18.013" height="10.014" viewBox="0 0 18.013 10.014" x="240" y="30" xmlns="http://www.w3.org/2000/svg">
        <path id="패스_56" data-name="패스 56" d="M2768.5,2751.583a1,1,0,0,1,.707.294l8.006,8.011a1,1,0,0,1-1.414,1.416l-7.3-7.3-7.3,7.3a1,1,0,0,1-1.414-1.416l8.006-8.011A1,1,0,0,1,2768.5,2751.583Z" transform="translate(-2759.49 -2751.583)" fill="#4d4d4d"/>
    </svg>
</svg>