<?xml version="1.0" encoding="UTF-8"?>
<svg id="_레이어_2" data-name="레이어_2" xmlns="http://www.w3.org/2000/svg" viewBox="0 0 280.87 54.79">
  <defs>
    <style>
      .cls-1 {
        fill: #575756;
      }

      .cls-2 {
        fill: #e6002d;
      }

      .cls-3 {
        fill: #003668;
      }
    </style>
  </defs>
  <g id="Layer_1">
    <g>
      <g>
        <path class="cls-3" d="M42.3,26.15c-4.76-3.23-10.85-1.92-14.05,2.95-2.67,4.06-6.71,4.57-8.27,4.57-5.09,0-8.57-3.58-9.6-7.29h0s-.02-.07-.03-.1c-.01-.04-.02-.08-.03-.13-.41-1.55-.51-2.28-.51-3.93C9.81,13.36,18.89,3.49,31.99,3.49s21.08,10.21,23.06,15.88c-.04-.1-.07-.2-.1-.3C51.14,7.98,40.62,0,28.23,0,12.64,0,0,12.64,0,28.23c0,13.94,10.05,25.87,24,25.87,11.12,0,18.6-6.24,22.02-14.83,1.88-4.7.55-10.22-3.72-13.13Z"/>
        <path class="cls-2" d="M55.22,19.92c-1.65-5.53-9.38-16.43-23.23-16.43-13.1,0-22.19,9.87-22.19,18.73,0,1.64.1,2.38.51,3.93-.17-.68-.26-1.35-.26-2.01,0-9.23,9.24-15.62,18.74-15.62,12.86,0,23.28,10.42,23.28,23.28,0,10.08-5.8,18.8-14.23,22.99h0c10.86-3.93,18.62-14.33,18.62-26.55,0-2.89-.39-5.44-1.24-8.31Z"/>
      </g>
      <g>
        <path class="cls-1" d="M72.95,35.3h-2.37v-14.1h8.94v1.96h-6.57v4.08h6.39v1.94h-6.39v6.11Z"/>
        <path class="cls-1" d="M86.07,28.77h2.39c0-.66-.26-1.16-.77-1.49-.51-.33-1.25-.5-2.23-.5h-.06c-.92,0-1.89.22-2.91.65l-.59-1.8c1.07-.46,2.24-.69,3.52-.71h.04c1.7,0,3,.33,3.91.98.91.65,1.37,1.7,1.37,3.13v6.27h-2.19v-1.11c-.43.43-.96.76-1.59,1-.63.24-1.26.35-1.91.35-1.21,0-2.19-.32-2.94-.96-.75-.64-1.12-1.42-1.12-2.36,0-1.04.46-1.9,1.4-2.57.86-.59,2.09-.89,3.68-.89ZM85.45,33.72c.59,0,1.18-.15,1.76-.44.58-.29,1-.62,1.25-1v-1.72h-2.04c-1.16,0-1.97.15-2.43.45-.44.34-.67.74-.67,1.21,0,.43.19.79.57,1.07.38.28.9.43,1.56.43Z"/>
        <path class="cls-1" d="M95.87,22.31c0,.39-.14.73-.43,1.02-.29.29-.64.43-1.04.43s-.75-.14-1.04-.43c-.29-.29-.44-.63-.44-1.02s.15-.75.44-1.04c.29-.29.64-.43,1.04-.43s.75.14,1.04.43c.29.29.43.64.43,1.04ZM93.26,35.3v-10.13h2.31v10.13h-2.31Z"/>
        <path class="cls-1" d="M98.17,35.3v-10.13h2.16v1.52c.34-.5.75-.88,1.23-1.15.58-.35,1.26-.53,2.04-.53h.16v2.06h-.24c-.96,0-1.72.29-2.28.87-.53.57-.79,1.45-.79,2.65v4.71h-2.28Z"/>
        <path class="cls-1" d="M116.49,23.19v12.11h-2.37v-12.11h-4.31v-1.98h10.98v1.98h-4.31Z"/>
        <path class="cls-1" d="M121.26,35.3v-10.13h2.16v1.52c.34-.5.75-.88,1.23-1.15.58-.35,1.26-.53,2.04-.53h.16v2.06h-.24c-.96,0-1.72.29-2.29.87-.53.57-.79,1.45-.79,2.65v4.71h-2.29Z"/>
        <path class="cls-1" d="M132.74,28.77h2.39c0-.66-.26-1.16-.77-1.49-.51-.33-1.25-.5-2.23-.5h-.06c-.92,0-1.89.22-2.91.65l-.59-1.8c1.07-.46,2.24-.69,3.52-.71h.04c1.7,0,3,.33,3.92.98.91.65,1.37,1.7,1.37,3.13v6.27h-2.19v-1.11c-.43.43-.96.76-1.59,1-.63.24-1.26.35-1.91.35-1.21,0-2.19-.32-2.94-.96-.75-.64-1.12-1.42-1.12-2.36,0-1.04.47-1.9,1.4-2.57.86-.59,2.09-.89,3.68-.89ZM132.12,33.72c.59,0,1.18-.15,1.76-.44.58-.29,1-.62,1.25-1v-1.72h-2.04c-1.16,0-1.97.15-2.43.45-.44.34-.67.74-.67,1.21,0,.43.19.79.57,1.07.38.28.9.43,1.56.43Z"/>
        <path class="cls-1" d="M144.35,24.92c1.2,0,2.23.49,3.09,1.46v-5.18h2.3v14.1h-2.22v-1.27c-.85,1.01-1.91,1.52-3.18,1.52-1.48,0-2.68-.53-3.6-1.58-.92-1.05-1.38-2.29-1.38-3.72s.46-2.67,1.38-3.73c.92-1.06,2.12-1.59,3.6-1.59ZM147.42,30.89c.04-.44.04-.87,0-1.29-.08-.77-.36-1.41-.85-1.92-.54-.57-1.21-.85-2-.85-.89,0-1.59.33-2.1.98-.51.65-.77,1.47-.77,2.44s.26,1.8.77,2.44c.51.64,1.21.96,2.1.96.8,0,1.46-.28,2-.85.49-.51.77-1.15.85-1.9Z"/>
        <path class="cls-1" d="M154.09,31.25c.14.62.43,1.13.87,1.52.65.59,1.5.89,2.57.89,1.12,0,2.16-.41,3.13-1.23l.69,1.7c-1.09.94-2.39,1.42-3.88,1.42-1.71,0-3.1-.49-4.18-1.46-1.07-.97-1.61-2.24-1.61-3.82s.48-2.83,1.43-3.83c.95-1,2.19-1.51,3.73-1.51s2.75.5,3.71,1.5c.96,1,1.45,2.23,1.45,3.7,0,.4-.03.78-.1,1.13h-7.81ZM154.05,29.44h5.62c-.03-.66-.3-1.26-.83-1.81-.53-.55-1.19-.82-2-.82s-1.53.3-2.07.89c-.39.44-.63,1.02-.73,1.74Z"/>
        <path class="cls-1" d="M178.12,33.56c1.47,0,2.81-.47,4.02-1.42l.97,1.72c-1.25,1.12-2.92,1.68-4.99,1.68s-3.76-.7-5.17-2.09c-1.41-1.4-2.11-3.13-2.11-5.19s.71-3.81,2.11-5.21c1.41-1.4,3.13-2.09,5.17-2.09s3.69.57,4.92,1.7l-.95,1.72c-1.2-.96-2.52-1.44-3.96-1.44-1.35,0-2.5.5-3.46,1.5-.97,1.04-1.46,2.31-1.46,3.82s.49,2.78,1.46,3.8c.96,1,2.11,1.5,3.46,1.5Z"/>
        <path class="cls-1" d="M189.65,35.54c-1.48,0-2.75-.51-3.79-1.53-1.04-1.02-1.57-2.28-1.57-3.77s.52-2.76,1.57-3.78c1.05-1.03,2.31-1.54,3.79-1.54s2.76.51,3.8,1.54c1.04,1.03,1.56,2.29,1.56,3.78s-.52,2.75-1.56,3.77c-1.04,1.02-2.31,1.53-3.8,1.53ZM189.65,33.64c.84,0,1.55-.32,2.15-.96.6-.64.9-1.45.9-2.44s-.3-1.78-.9-2.44c-.6-.65-1.32-.98-2.15-.98s-1.53.33-2.13.98c-.6.65-.9,1.47-.9,2.44s.3,1.8.9,2.44c.6.64,1.31.96,2.13.96Z"/>
        <path class="cls-1" d="M207.64,24.92c1.19,0,2.11.41,2.77,1.22.66.82.99,1.91.99,3.27v5.89h-2.26v-5.3c0-1.08-.15-1.88-.44-2.4-.29-.52-.76-.78-1.42-.78-.39,0-.73.11-1.02.33-.29.22-.52.55-.7.98-.19.44-.28,1.06-.28,1.86v5.3h-2.26v-5.3c0-1.08-.15-1.88-.44-2.4-.3-.52-.77-.78-1.42-.78-.39,0-.73.11-1,.33-.28.22-.51.55-.7.98-.2.5-.3,1.16-.3,1.98v-.02,5.2h-2.27v-10.13h2.14v1.36c.57-1.07,1.44-1.6,2.63-1.6,1.27,0,2.2.61,2.79,1.84.35-.61.77-1.07,1.26-1.38.49-.31,1.14-.46,1.93-.46Z"/>
        <path class="cls-1" d="M224.69,24.92c1.19,0,2.11.41,2.77,1.22.66.82.99,1.91.99,3.27v5.89h-2.27v-5.3c0-1.08-.15-1.88-.44-2.4-.29-.52-.76-.78-1.42-.78-.39,0-.73.11-1.02.33-.29.22-.52.55-.7.98-.19.44-.28,1.06-.28,1.86v5.3h-2.27v-5.3c0-1.08-.15-1.88-.45-2.4-.3-.52-.77-.78-1.42-.78-.39,0-.72.11-1,.33-.28.22-.51.55-.7.98-.2.5-.3,1.16-.3,1.98v-.02,5.2h-2.27v-10.13h2.14v1.36c.57-1.07,1.44-1.6,2.63-1.6,1.27,0,2.2.61,2.79,1.84.35-.61.77-1.07,1.26-1.38.49-.31,1.14-.46,1.93-.46Z"/>
        <path class="cls-1" d="M233.64,22.31c0,.39-.14.73-.43,1.02-.29.29-.64.44-1.04.44s-.75-.15-1.04-.44c-.29-.29-.44-.63-.44-1.02s.15-.75.44-1.04c.29-.29.64-.43,1.04-.43s.75.15,1.04.43c.29.29.43.64.43,1.04ZM231.03,35.3v-10.13h2.31v10.13h-2.31Z"/>
        <path class="cls-1" d="M235.21,33.42l1.44-1.48c.4.55.85.98,1.33,1.29.47.28.98.42,1.52.42s.95-.1,1.31-.31c.36-.21.54-.49.54-.84s-.17-.62-.52-.82c-.34-.19-.75-.38-1.22-.56-.55-.18-1.12-.37-1.7-.59-.78-.28-1.35-.65-1.72-1.09-.36-.44-.55-.95-.55-1.52,0-.83.39-1.55,1.17-2.13.78-.59,1.7-.88,2.77-.88,1.13,0,2.06.27,2.77.81.37.28.65.63.87,1.05l-1.42,1.38c-.19-.32-.41-.59-.67-.79-.45-.39-1-.59-1.68-.59-.39,0-.73.1-1.02.29-.29.2-.43.43-.43.7,0,.3.16.55.49.75.32.2.8.4,1.44.59.23.07.49.15.79.24.98.32,1.73.74,2.24,1.26.5.51.76,1.13.76,1.84,0,.84-.41,1.56-1.21,2.17-.81.61-1.84.92-3.09.92-1.05,0-1.98-.24-2.79-.73-.54-.32-1-.79-1.4-1.4Z"/>
        <path class="cls-1" d="M244.6,33.42l1.44-1.48c.41.55.85.98,1.34,1.29.47.28.98.42,1.52.42.51,0,.95-.1,1.3-.31.36-.21.54-.49.54-.84s-.17-.62-.52-.82c-.34-.19-.75-.38-1.23-.56-.55-.18-1.12-.37-1.7-.59-.78-.28-1.36-.65-1.72-1.09-.36-.44-.55-.95-.55-1.52,0-.83.39-1.55,1.17-2.13.78-.59,1.71-.88,2.77-.88,1.13,0,2.06.27,2.77.81.36.28.65.63.87,1.05l-1.42,1.38c-.19-.32-.41-.59-.67-.79-.44-.39-1-.59-1.68-.59-.39,0-.73.1-1.02.29-.29.2-.43.43-.43.7,0,.3.16.55.49.75.32.2.8.4,1.44.59.23.07.49.15.79.24.99.32,1.73.74,2.24,1.26.51.51.76,1.13.76,1.84,0,.84-.4,1.56-1.21,2.17-.81.61-1.84.92-3.1.92-1.05,0-1.98-.24-2.79-.73-.54-.32-1-.79-1.4-1.4Z"/>
        <path class="cls-1" d="M257.58,22.31c0,.39-.14.73-.44,1.02-.29.29-.64.44-1.04.44s-.75-.15-1.04-.44c-.29-.29-.44-.63-.44-1.02s.15-.75.44-1.04c.29-.29.64-.43,1.04-.43s.75.15,1.04.43c.29.29.44.64.44,1.04ZM254.97,35.3v-10.13h2.31v10.13h-2.31Z"/>
        <path class="cls-1" d="M264.63,35.54c-1.48,0-2.75-.51-3.79-1.53-1.05-1.02-1.57-2.28-1.57-3.77s.52-2.76,1.57-3.78c1.04-1.03,2.31-1.54,3.79-1.54s2.77.51,3.8,1.54c1.04,1.03,1.56,2.29,1.56,3.78s-.52,2.75-1.56,3.77c-1.04,1.02-2.3,1.53-3.8,1.53ZM264.63,33.64c.83,0,1.55-.32,2.15-.96.6-.64.9-1.45.9-2.44s-.3-1.78-.9-2.44c-.6-.65-1.32-.98-2.15-.98s-1.53.33-2.13.98c-.6.65-.9,1.47-.9,2.44s.3,1.8.9,2.44c.6.64,1.31.96,2.13.96Z"/>
        <path class="cls-1" d="M274.15,30.2v5.1h-2.29v-10.13h2.21v1.36c.27-.47.66-.86,1.17-1.15.51-.3,1.07-.44,1.66-.44,1.2,0,2.16.41,2.88,1.22.72.82,1.08,1.91,1.08,3.27v5.89h-2.3v-5.3c0-1.08-.18-1.88-.53-2.4-.35-.52-.89-.78-1.62-.78-.38,0-.75.12-1.1.38-.36.25-.63.59-.82,1.02-.23.5-.34,1.16-.34,1.98Z"/>
      </g>
    </g>
  </g>
</svg>