<?xml version="1.0" encoding="utf-8"?>
<!-- Generator: Adobe Illustrator 13.0.0, SVG Export Plug-In  -->
<!DOCTYPE svg PUBLIC "-//W3C//DTD SVG 1.1//EN" "http://www.w3.org/Graphics/SVG/1.1/DTD/svg11.dtd" [
	<!ENTITY ns_flows "http://ns.adobe.com/Flows/1.0/">
]>
<svg version="1.1"
	 xmlns="http://www.w3.org/2000/svg" xmlns:xlink="http://www.w3.org/1999/xlink" xmlns:a="http://ns.adobe.com/AdobeSVGViewerExtensions/3.0/"
	 x="0px" y="0px" width="110px" height="113px" viewBox="0 0 110 113" enable-background="new 0 0 110 113" xml:space="preserve">
<defs>
</defs>
<g>
	<defs>
		<rect id="SVGID_1_" width="110" height="113"/>
	</defs>
	<clipPath id="SVGID_2_">
		<use xlink:href="#SVGID_1_"  overflow="visible"/>
	</clipPath>
	<path clip-path="url(#SVGID_2_)" fill="#A2C6E0" d="M90,92H7.068C4.821,92,3,90.178,3,87.932V82h77L90,92z"/>
	<path clip-path="url(#SVGID_2_)" fill="#162F41" d="M88.5,93H6.737C3.574,93,1,90.426,1,87.263V20.736C1,17.573,3.573,15,6.736,15
		H17.5c0.828,0,1.5,0.672,1.5,1.5S18.328,18,17.5,18H6.736C5.227,18,4,19.227,4,20.736v66.527C4,88.772,5.227,90,6.737,90H88.5
		c0.828,0,1.5,0.672,1.5,1.5S89.328,93,88.5,93"/>
	<path clip-path="url(#SVGID_2_)" fill="#162F41" d="M107.5,79c-0.828,0-1.5-0.672-1.5-1.5V20.736c0-1.509-1.228-2.736-2.736-2.736
		H92.5c-0.828,0-1.5-0.672-1.5-1.5s0.672-1.5,1.5-1.5h10.764c3.163,0,5.736,2.573,5.736,5.736V77.5C109,78.328,108.328,79,107.5,79"
		/>
	<path clip-path="url(#SVGID_2_)" fill="#162F41" d="M45.499,105.936c-0.232,0-0.468-0.054-0.689-0.168
		c-0.735-0.38-1.023-1.285-0.642-2.021C45.366,101.429,46,98.823,46,96.212v-3.713c0-0.827,0.672-1.5,1.5-1.5s1.5,0.673,1.5,1.5
		v3.713c0,3.088-0.75,6.17-2.168,8.912C46.565,105.64,46.042,105.936,45.499,105.936"/>
	<path clip-path="url(#SVGID_2_)" fill="#162F41" d="M64.501,105.936c-0.543,0-1.066-0.296-1.333-0.812
		C61.75,102.382,61,99.3,61,96.212v-3.713c0-0.827,0.672-1.5,1.5-1.5s1.5,0.673,1.5,1.5v3.713c0,2.611,0.634,5.217,1.832,7.534
		c0.381,0.736,0.093,1.642-0.643,2.021C64.969,105.882,64.733,105.936,64.501,105.936"/>
	<path clip-path="url(#SVGID_2_)" fill="#162F41" d="M73.5,113h-37c-0.828,0-1.5-0.672-1.5-1.5v-6c0-0.828,0.672-1.5,1.5-1.5h13
		c0.828,0,1.5,0.672,1.5,1.5s-0.672,1.5-1.5,1.5H38v3h34v-3H56.5c-0.828,0-1.5-0.672-1.5-1.5s0.672-1.5,1.5-1.5h17
		c0.828,0,1.5,0.672,1.5,1.5v6C75,112.328,74.328,113,73.5,113"/>
	<path clip-path="url(#SVGID_2_)" fill="#162F41" d="M108.5,113H1.5c-0.828,0-1.5-0.672-1.5-1.5s0.672-1.5,1.5-1.5h107
		c0.828,0,1.5,0.672,1.5,1.5S109.328,113,108.5,113"/>
	<path clip-path="url(#SVGID_2_)" fill="#90BBDA" d="M89.665,68.429l14.277,14.277c1.576,1.576,1.576,4.132,0,5.708l-2.196,2.197
		c-1.576,1.576-4.132,1.576-5.708,0L81.353,75.847l-2.183,0.312c-1.104,0.158-2.223-0.146-3.093-0.844l-5.345-3.38
		c4.473-2.236,11.311-8.325,14.533-13.415l3.975,3.974c0.998,0.998,1.384,2.457,1.008,3.818L89.665,68.429z"/>
	<path clip-path="url(#SVGID_2_)" fill="#162F41" d="M77.808,78.379c-1.578,0-3.061-0.614-4.177-1.73l-3.208-3.206
		c-0.586-0.586-0.586-1.536,0-2.122c0.586-0.585,1.535-0.585,2.121,0l3.208,3.207c1.098,1.1,3.014,1.1,4.111,0
		c0.586-0.585,1.535-0.585,2.121,0s0.586,1.535,0,2.121C80.869,77.765,79.386,78.379,77.808,78.379"/>
	<path clip-path="url(#SVGID_2_)" fill="#162F41" d="M85.305,72.708c-0.384,0-0.768-0.146-1.061-0.439
		c-0.585-0.585-0.585-1.535,0-2.121l3.615-3.616c1.134-1.133,1.134-2.978,0-4.111l-1.646-1.646c-0.586-0.586-0.586-1.535,0-2.121
		s1.535-0.586,2.121,0l1.646,1.646c2.304,2.304,2.304,6.051,0,8.354l-3.615,3.616C86.072,72.562,85.688,72.708,85.305,72.708"/>
	<path clip-path="url(#SVGID_2_)" fill="#162F41" d="M98.892,93.291c-1.417,0-2.835-0.54-3.914-1.619L80.29,76.904
		c-0.584-0.587-0.582-1.537,0.006-2.121c0.587-0.584,1.538-0.582,2.121,0.006l14.685,14.765c0.988,0.987,2.596,0.986,3.584-0.003
		l2.196-2.197c0.989-0.989,0.989-2.598,0-3.587L88.604,69.489c-0.586-0.586-0.586-1.535,0-2.121s1.535-0.586,2.121,0l14.277,14.276
		c2.158,2.159,2.158,5.672,0,7.83l-2.196,2.197C101.728,92.751,100.31,93.291,98.892,93.291"/>
	<path clip-path="url(#SVGID_2_)" fill="#162F41" d="M54.5,77C33.271,77,16,59.729,16,38.5C16,17.271,33.271,0,54.5,0
		C75.728,0,93,17.271,93,38.5C93,59.729,75.728,77,54.5,77 M54.5,3C34.925,3,19,18.925,19,38.5S34.925,74,54.5,74S90,58.075,90,38.5
		S74.075,3,54.5,3"/>
	<path clip-path="url(#SVGID_2_)" fill="#90BBDA" d="M54.5,69C37.683,69,24,55.317,24,38.5c0-6.98,2.295-13.549,6.637-18.995
		c0.516-0.65,1.462-0.755,2.107-0.238c0.649,0.516,0.755,1.46,0.238,2.107C29.068,26.284,27,32.206,27,38.5
		C27,53.663,39.337,66,54.5,66c5.828,0,11.396-1.8,16.103-5.205c0.671-0.486,1.609-0.337,2.095,0.336
		c0.486,0.671,0.336,1.608-0.336,2.094C67.141,67.003,60.964,69,54.5,69"/>
	<path clip-path="url(#SVGID_2_)" fill="#90BBDA" d="M76.648,58.72c-0.342,0-0.686-0.116-0.968-0.354
		c-0.633-0.535-0.712-1.481-0.178-2.115C79.693,51.299,82,44.995,82,38.5C82,23.337,69.663,11,54.5,11
		c-5.653,0-11.082,1.702-15.703,4.92c-0.677,0.476-1.614,0.308-2.087-0.373c-0.474-0.679-0.307-1.614,0.373-2.088
		C42.208,9.888,48.231,8,54.5,8C71.317,8,85,21.683,85,38.5c0,7.203-2.559,14.196-7.206,19.689
		C77.498,58.539,77.074,58.72,76.648,58.72"/>
	<path clip-path="url(#SVGID_2_)" fill="#162F41" d="M42.5,53c-0.828,0-1.5-0.672-1.5-1.5v-2c0-0.828,0.672-1.5,1.5-1.5
		s1.5,0.672,1.5,1.5v2C44,52.328,43.328,53,42.5,53"/>
	<path clip-path="url(#SVGID_2_)" fill="#162F41" d="M50.5,53c-0.828,0-1.5-0.672-1.5-1.5v-2c0-0.828,0.672-1.5,1.5-1.5
		s1.5,0.672,1.5,1.5v2C52,52.328,51.328,53,50.5,53"/>
	<path clip-path="url(#SVGID_2_)" fill="#162F41" d="M66.5,53c-0.828,0-1.5-0.672-1.5-1.5v-2c0-0.828,0.672-1.5,1.5-1.5
		s1.5,0.672,1.5,1.5v2C68,52.328,67.328,53,66.5,53"/>
	<path clip-path="url(#SVGID_2_)" fill="#162F41" d="M42.5,44c-0.828,0-1.5-0.672-1.5-1.5v-17c0-0.828,0.672-1.5,1.5-1.5
		s1.5,0.672,1.5,1.5v17C44,43.328,43.328,44,42.5,44"/>
	<path clip-path="url(#SVGID_2_)" fill="#162F41" d="M50.5,44c-0.828,0-1.5-0.672-1.5-1.5v-17c0-0.828,0.672-1.5,1.5-1.5
		s1.5,0.672,1.5,1.5v17C52,43.328,51.328,44,50.5,44"/>
	<path clip-path="url(#SVGID_2_)" fill="#162F41" d="M58.5,53c-0.828,0-1.5-0.672-1.5-1.5v-26c0-0.828,0.672-1.5,1.5-1.5
		s1.5,0.672,1.5,1.5v26C60,52.328,59.328,53,58.5,53"/>
	<path clip-path="url(#SVGID_2_)" fill="#162F41" d="M66.5,44c-0.828,0-1.5-0.672-1.5-1.5v-17c0-0.828,0.672-1.5,1.5-1.5
		s1.5,0.672,1.5,1.5v17C68,43.328,67.328,44,66.5,44"/>
</g>
</svg>
