<?xml version="1.0" encoding="utf-8"?>
<!-- Generator: Adobe Illustrator 13.0.0, SVG Export Plug-In  -->
<!DOCTYPE svg PUBLIC "-//W3C//DTD SVG 1.1//EN" "http://www.w3.org/Graphics/SVG/1.1/DTD/svg11.dtd" [
	<!ENTITY ns_flows "http://ns.adobe.com/Flows/1.0/">
]>
<svg version="1.1"
	 xmlns="http://www.w3.org/2000/svg" xmlns:xlink="http://www.w3.org/1999/xlink" xmlns:a="http://ns.adobe.com/AdobeSVGViewerExtensions/3.0/"
	 x="0px" y="0px" width="110px" height="98px" viewBox="0 0 110 98" enable-background="new 0 0 110 98" xml:space="preserve">
<defs>
</defs>
<g>
	<defs>
		<rect id="SVGID_1_" width="110" height="98"/>
	</defs>
	<clipPath id="SVGID_2_">
		<use xlink:href="#SVGID_1_"  overflow="visible"/>
	</clipPath>
	<path clip-path="url(#SVGID_2_)" fill="#6CA8FF" d="M99.848,76H10.152C7.859,76,6,74.141,6,71.847V68h98v3.847
		C104,74.141,102.141,76,99.848,76"/>
	<path clip-path="url(#SVGID_2_)" fill="#6CA8FF" d="M23.967,35.685c-5.169-0.117-8.512,3.226-8.512,6.568
		c0,4.179,3.475,6.685,6.872,6.747h29.248c5.376-0.022,8.556-4.51,6.949-10.228c-0.358-1.272-1.54-2.978-2.604-3.762
		c-2.451-1.804-4.781-2.111-6.852-1.699c-0.758-5.65-5.252-9.472-11.447-9.97C32.124,22.898,24.603,25.592,23.967,35.685"/>
	<path clip-path="url(#SVGID_2_)" fill="#FF838F" d="M94,47.5c0,4.694-3.806,8.5-8.5,8.5S77,52.194,77,47.5
		c0-4.694,3.806-8.5,8.5-8.5S94,42.806,94,47.5"/>
	<path clip-path="url(#SVGID_2_)" fill="#252D32" d="M100.264,78H9.737C6.574,78,4,75.426,4,72.263V5.736C4,2.573,6.573,0,9.736,0
		h90.527C103.428,0,106,2.573,106,5.736v66.528C106,75.427,103.428,78,100.264,78 M9.736,3C8.228,3,7,4.227,7,5.736v66.527
		C7,73.772,8.228,75,9.737,75h90.526c1.509,0,2.736-1.228,2.736-2.736V5.736C103,4.227,101.772,3,100.264,3H9.736z"/>
	<path clip-path="url(#SVGID_2_)" fill="#252D32" d="M45.499,90.643c-0.232,0-0.468-0.054-0.689-0.168
		c-0.735-0.38-1.023-1.285-0.642-2.021C45.366,86.136,46,83.53,46,80.919V77.5c0-0.828,0.672-1.5,1.5-1.5s1.5,0.672,1.5,1.5v3.419
		c0,3.088-0.75,6.17-2.168,8.913C46.565,90.347,46.042,90.643,45.499,90.643"/>
	<path clip-path="url(#SVGID_2_)" fill="#252D32" d="M64.501,90.643c-0.543,0-1.066-0.295-1.333-0.811
		C61.75,87.089,61,84.007,61,80.919V77.5c0-0.828,0.672-1.5,1.5-1.5s1.5,0.672,1.5,1.5v3.419c0,2.611,0.634,5.217,1.832,7.534
		c0.381,0.736,0.093,1.642-0.643,2.021C64.969,90.589,64.733,90.643,64.501,90.643"/>
	<path clip-path="url(#SVGID_2_)" fill="#252D32" d="M73.5,98h-37c-0.828,0-1.5-0.672-1.5-1.5v-6c0-0.828,0.672-1.5,1.5-1.5h13
		c0.828,0,1.5,0.672,1.5,1.5S50.328,92,49.5,92H38v3h34v-3H56.5c-0.828,0-1.5-0.672-1.5-1.5s0.672-1.5,1.5-1.5h17
		c0.828,0,1.5,0.672,1.5,1.5v6C75,97.328,74.328,98,73.5,98"/>
	<path clip-path="url(#SVGID_2_)" fill="#252D32" d="M108.5,98H1.5C0.672,98,0,97.328,0,96.5S0.672,95,1.5,95h107
		c0.828,0,1.5,0.672,1.5,1.5S109.328,98,108.5,98"/>
	<path clip-path="url(#SVGID_2_)" fill="#252D32" d="M103.5,70h-97C5.672,70,5,69.328,5,68.5S5.672,67,6.5,67h97
		c0.828,0,1.5,0.672,1.5,1.5S104.328,70,103.5,70"/>
	<path clip-path="url(#SVGID_2_)" fill="#252D32" d="M51.575,50.3c-0.825,0-1.496-0.667-1.5-1.493
		c-0.004-0.829,0.665-1.503,1.493-1.507c1.97-0.009,3.628-0.742,4.67-2.065c1.157-1.471,1.495-3.544,0.95-5.838
		c-0.287-1.211-1.492-2.946-2.527-3.64c-1.727-1.158-3.465-1.542-5.301-1.176c-0.407,0.081-0.827-0.01-1.165-0.25
		c-0.337-0.241-0.559-0.61-0.614-1.021c-0.658-4.904-4.52-8.227-10.079-8.674c-1.505-0.118-5.342-0.118-8.379,2.511
		c-2.195,1.901-3.426,4.738-3.659,8.432c-0.051,0.803-0.73,1.414-1.532,1.406c-2.212-0.049-4.202,0.638-5.535,1.942
		c-0.929,0.909-1.442,2.019-1.442,3.126c0,3.344,2.782,5.199,5.399,5.247h20.088c0.828,0,1.5,0.672,1.5,1.5s-0.672,1.5-1.5,1.5
		H22.327c-4.129-0.076-8.372-3.181-8.372-8.247c0-1.921,0.833-3.793,2.346-5.272c1.616-1.58,3.816-2.534,6.297-2.752
		c0.494-3.879,2.025-6.953,4.561-9.15c2.742-2.374,6.595-3.554,10.583-3.233c6.392,0.513,11.162,4.304,12.534,9.81
		c2.091-0.085,4.124,0.515,6.055,1.809c1.657,1.111,3.316,3.5,3.776,5.438c0.761,3.203,0.224,6.182-1.511,8.387
		c-1.621,2.058-4.111,3.197-7.015,3.21H51.575z"/>
	<path clip-path="url(#SVGID_2_)" fill="#252D32" d="M61.501,34c-0.531,0-1.046-0.282-1.317-0.781
		c-0.397-0.728-0.129-1.639,0.598-2.035l11-6c0.729-0.398,1.64-0.129,2.035,0.597c0.397,0.728,0.129,1.639-0.598,2.035l-11,6
		C61.99,33.941,61.744,34,61.501,34"/>
	<path clip-path="url(#SVGID_2_)" fill="#252D32" d="M70.502,46c-0.082,0-0.165-0.007-0.249-0.021l-6-1
		c-0.817-0.135-1.369-0.909-1.233-1.726c0.137-0.817,0.909-1.368,1.728-1.233l6,1c0.816,0.136,1.369,0.91,1.231,1.727
		C71.857,45.48,71.222,46,70.502,46"/>
	<path clip-path="url(#SVGID_2_)" fill="#252D32" d="M84.5,28c-4.687,0-8.5-3.814-8.5-8.5c0-4.687,3.813-8.5,8.5-8.5
		c4.686,0,8.5,3.813,8.5,8.5C93,24.186,89.186,28,84.5,28 M84.5,14c-3.032,0-5.5,2.468-5.5,5.5s2.468,5.5,5.5,5.5s5.5-2.468,5.5-5.5
		S87.532,14,84.5,14"/>
	<path clip-path="url(#SVGID_2_)" fill="#252D32" d="M85.5,58C79.71,58,75,53.29,75,47.5S79.71,37,85.5,37S96,41.71,96,47.5
		S91.29,58,85.5,58 M85.5,40c-4.136,0-7.5,3.364-7.5,7.5c0,4.136,3.364,7.5,7.5,7.5s7.5-3.364,7.5-7.5C93,43.364,89.636,40,85.5,40"
		/>
</g>
</svg>
