<?xml version="1.0" encoding="utf-8"?>
<!-- Generator: Adobe Illustrator 13.0.0, SVG Export Plug-In  -->
<!DOCTYPE svg PUBLIC "-//W3C//DTD SVG 1.1//EN" "http://www.w3.org/Graphics/SVG/1.1/DTD/svg11.dtd" [
	<!ENTITY ns_flows "http://ns.adobe.com/Flows/1.0/">
]>
<svg version="1.1"
	 xmlns="http://www.w3.org/2000/svg" xmlns:xlink="http://www.w3.org/1999/xlink" xmlns:a="http://ns.adobe.com/AdobeSVGViewerExtensions/3.0/"
	 x="0px" y="0px" width="99px" height="105px" viewBox="0 0 99 105" enable-background="new 0 0 99 105" xml:space="preserve">
<defs>
</defs>
<polygon fill="#FF838F" points="14,3 14,11 55.839,11 75,21.706 75,49 85,42 85,3 "/>
<g>
	<defs>
		<rect id="SVGID_1_" width="98.268" height="105"/>
	</defs>
	<clipPath id="SVGID_2_">
		<use xlink:href="#SVGID_1_"  overflow="visible"/>
	</clipPath>
	<path clip-path="url(#SVGID_2_)" fill="#252D32" d="M74.5,105h-73c-0.828,0-1.5-0.672-1.5-1.5v-92C0,10.672,0.672,10,1.5,10h54.302
		c0.247,0,0.491,0.061,0.709,0.178l18.698,10.023C75.696,20.463,76,20.971,76,21.523V48.5c0,0.828-0.672,1.5-1.5,1.5
		S73,49.328,73,48.5V22.421L55.425,13H3v89h70V79.5c0-0.828,0.672-1.5,1.5-1.5s1.5,0.672,1.5,1.5v24C76,104.328,75.328,105,74.5,105
		"/>
	<path clip-path="url(#SVGID_2_)" fill="#252D32" d="M58.354,29.718c-0.577,0-1.124-0.335-1.371-0.891l-4.273-9.617
		c-0.337-0.757,0.004-1.643,0.761-1.98c0.759-0.337,1.644,0.006,1.98,0.761l3.709,8.346l13.65-4.875
		c0.781-0.275,1.639,0.129,1.918,0.908c0.278,0.781-0.129,1.639-0.908,1.918l-14.961,5.343
		C58.691,29.69,58.521,29.718,58.354,29.718"/>
	<path clip-path="url(#SVGID_2_)" fill="#252D32" d="M84.5,42c-0.828,0-1.5-0.672-1.5-1.5V3H13.5C12.672,3,12,2.328,12,1.5
		S12.672,0,13.5,0h71C85.328,0,86,0.672,86,1.5v39C86,41.328,85.328,42,84.5,42"/>
	<polygon clip-path="url(#SVGID_2_)" fill="#6CA8FF" points="45.716,77.85 51.948,86.097 90.488,58.352 85.21,50.303 	"/>
	<path clip-path="url(#SVGID_2_)" fill="#252D32" d="M40.028,89.775c-0.48,0-0.936-0.231-1.22-0.628
		c-0.318-0.444-0.368-1.025-0.133-1.519l4.874-10.203c0.11-0.23,0.277-0.429,0.485-0.577l40.337-28.616
		c0.673-0.477,1.606-0.321,2.089,0.352l6.355,8.894c0.231,0.324,0.324,0.728,0.259,1.121c-0.066,0.393-0.286,0.744-0.611,0.975
		L52.13,88.19c-0.206,0.146-0.444,0.237-0.694,0.267l-11.234,1.309C40.144,89.772,40.086,89.775,40.028,89.775 M46.088,79.07
		l-3.535,7.401l8.154-0.95l38.792-27.523l-4.611-6.453L46.088,79.07z"/>
	<path clip-path="url(#SVGID_2_)" fill="#252D32" d="M92.299,59.269c-0.548,0-1.075-0.301-1.34-0.823
		c-0.374-0.738-0.077-1.642,0.662-2.016c0.782-0.401,2.947-1.838,3.507-3.616c0.252-0.804,0.154-1.609-0.3-2.463
		c-0.697-1.312-1.537-2.029-2.57-2.192c-2.244-0.355-5.135,1.891-5.975,2.706c-0.595,0.576-1.545,0.561-2.121-0.034
		c-0.576-0.594-0.562-1.544,0.032-2.121c0.442-0.427,4.429-4.17,8.531-3.514c1.375,0.216,3.315,1.043,4.753,3.748
		c0.84,1.584,1.011,3.193,0.506,4.785c-1.062,3.349-4.849,5.297-5.01,5.379C92.758,59.217,92.526,59.269,92.299,59.269"/>
	<path clip-path="url(#SVGID_2_)" fill="#252D32" d="M30.5,27h-17c-0.828,0-1.5-0.672-1.5-1.5s0.672-1.5,1.5-1.5h17
		c0.828,0,1.5,0.672,1.5,1.5S31.328,27,30.5,27"/>
	<path clip-path="url(#SVGID_2_)" fill="#252D32" d="M30.5,90h-17c-0.828,0-1.5-0.672-1.5-1.5s0.672-1.5,1.5-1.5h17
		c0.828,0,1.5,0.672,1.5,1.5S31.328,90,30.5,90"/>
	<path clip-path="url(#SVGID_2_)" fill="#252D32" d="M36.5,79h-23c-0.828,0-1.5-0.672-1.5-1.5s0.672-1.5,1.5-1.5h23
		c0.828,0,1.5,0.672,1.5,1.5S37.328,79,36.5,79"/>
	<path clip-path="url(#SVGID_2_)" fill="#252D32" d="M62.5,38H51.61c-0.828,0-1.5-0.672-1.5-1.5s0.672-1.5,1.5-1.5H62.5
		c0.828,0,1.5,0.672,1.5,1.5S63.328,38,62.5,38"/>
	<path clip-path="url(#SVGID_2_)" fill="#252D32" d="M43.021,38H13.5c-0.829,0-1.5-0.672-1.5-1.5s0.671-1.5,1.5-1.5h29.521
		c0.828,0,1.5,0.672,1.5,1.5S43.85,38,43.021,38"/>
	<path clip-path="url(#SVGID_2_)" fill="#252D32" d="M62.5,49H30.61c-0.828,0-1.5-0.672-1.5-1.5s0.672-1.5,1.5-1.5H62.5
		c0.828,0,1.5,0.672,1.5,1.5S63.328,49,62.5,49"/>
	<path clip-path="url(#SVGID_2_)" fill="#252D32" d="M22.021,49H13.5c-0.829,0-1.5-0.672-1.5-1.5s0.671-1.5,1.5-1.5h8.521
		c0.828,0,1.5,0.672,1.5,1.5S22.85,49,22.021,49"/>
	<path clip-path="url(#SVGID_2_)" fill="#252D32" d="M62.5,60h-49c-0.828,0-1.5-0.672-1.5-1.5s0.672-1.5,1.5-1.5h49
		c0.828,0,1.5,0.672,1.5,1.5S63.328,60,62.5,60"/>
</g>
</svg>
