<?xml version="1.0" encoding="utf-8"?>
<!-- Generator: Adobe Illustrator 13.0.0, SVG Export Plug-In  -->
<!DOCTYPE svg PUBLIC "-//W3C//DTD SVG 1.1//EN" "http://www.w3.org/Graphics/SVG/1.1/DTD/svg11.dtd" [
	<!ENTITY ns_flows "http://ns.adobe.com/Flows/1.0/">
]>
<svg version="1.1"
	 xmlns="http://www.w3.org/2000/svg" xmlns:xlink="http://www.w3.org/1999/xlink" xmlns:a="http://ns.adobe.com/AdobeSVGViewerExtensions/3.0/"
	 x="0px" y="0px" width="113px" height="114px" viewBox="-1 0 113 114" enable-background="new -1 0 113 114" xml:space="preserve">
<defs>
</defs>
<g>
	<defs>
		<rect id="SVGID_1_" x="0" width="112" height="114"/>
	</defs>
	<clipPath id="SVGID_2_">
		<use xlink:href="#SVGID_1_"  overflow="visible"/>
	</clipPath>
	<path clip-path="url(#SVGID_2_)" fill="#A2C6E0" d="M35,38.166V12h-7v27.461C30.257,38.824,32.595,38.382,35,38.166"/>
	<path clip-path="url(#SVGID_2_)" fill="#A2C6E0" d="M103,12v90H69.2c-2.125,2.574-4.586,4.859-7.305,6.807L62,110h48V12H103z"/>
	<path clip-path="url(#SVGID_2_)" fill="#90BBDA" d="M38.5,44C19.998,44,5,58.999,5,77.5c0,6.16,1.667,11.928,4.57,16.886L17,89
		l3.7,0.558C18.365,86.119,17,81.969,17,77.5C17,65.626,26.626,56,38.5,56S60,65.626,60,77.5S50.375,99,38.5,99
		c-5.239,0-10.036-1.878-13.766-4.992L26,98l-6.854,6.84C24.612,108.718,31.288,111,38.5,111C57.001,111,72,96.001,72,77.5
		S57.001,44,38.5,44"/>
	<path clip-path="url(#SVGID_2_)" fill="#90BBDA" d="M29,77.5c0,5.247,4.253,9.5,9.5,9.5c5.247,0,9.5-4.253,9.5-9.5
		S43.747,68,38.5,68C33.253,68,29,72.253,29,77.5"/>
	<path clip-path="url(#SVGID_2_)" fill="#183142" d="M84.932,22H73.5c-0.502,0-0.969-0.251-1.247-0.668L70.698,19h-3.395
		l-1.556,2.332C65.47,21.749,65.002,22,64.5,22H53.069C50.825,22,49,20.175,49,17.932v-6.864C49,8.825,50.825,7,53.069,7h31.863
		C87.175,7,89,8.825,89,11.068v6.864C89,20.175,87.175,22,84.932,22 M74.303,19h10.629C85.521,19,86,18.52,86,17.932v-6.864
		C86,10.479,85.521,10,84.932,10H53.069C52.48,10,52,10.479,52,11.068v6.864C52,18.52,52.48,19,53.069,19h10.629l1.555-2.332
		C65.531,16.251,65.998,16,66.5,16h5c0.503,0,0.971,0.251,1.248,0.668L74.303,19z"/>
	<path clip-path="url(#SVGID_2_)" fill="#183142" d="M107.937,111H62.5c-0.829,0-1.5-0.672-1.5-1.5s0.671-1.5,1.5-1.5h45.437
		c0.586,0,1.063-0.477,1.063-1.064V14.063c0-0.586-0.478-1.063-1.063-1.063H93.5c-0.829,0-1.5-0.672-1.5-1.5s0.671-1.5,1.5-1.5
		h14.437c2.24,0,4.063,1.823,4.063,4.063v92.873C112,109.177,110.177,111,107.937,111"/>
	<path clip-path="url(#SVGID_2_)" fill="#183142" d="M27.5,40c-0.828,0-1.5-0.672-1.5-1.5V14.063C26,11.823,27.823,10,30.063,10
		H44.5c0.828,0,1.5,0.672,1.5,1.5S45.328,13,44.5,13H30.063C29.477,13,29,13.477,29,14.063V38.5C29,39.328,28.328,40,27.5,40"/>
	<path clip-path="url(#SVGID_2_)" fill="#183142" d="M81.5,8C80.672,8,80,7.328,80,6.5V4.495C80,3.671,79.33,3,78.505,3h-19.01
		C58.671,3,58,3.671,58,4.495V6.5C58,7.328,57.329,8,56.5,8S55,7.328,55,6.5V4.495C55,2.017,57.017,0,59.496,0h19.01
		C80.983,0,83,2.017,83,4.495V6.5C83,7.328,82.329,8,81.5,8"/>
	<path clip-path="url(#SVGID_2_)" fill="#183142" d="M81.5,16h-1c-0.828,0-1.5-0.672-1.5-1.5s0.672-1.5,1.5-1.5h1
		c0.828,0,1.5,0.672,1.5,1.5S82.329,16,81.5,16"/>
	<path clip-path="url(#SVGID_2_)" fill="#183142" d="M57.5,16h-1c-0.828,0-1.5-0.672-1.5-1.5s0.672-1.5,1.5-1.5h1
		c0.828,0,1.5,0.672,1.5,1.5S58.329,16,57.5,16"/>
	<path clip-path="url(#SVGID_2_)" fill="#183142" d="M38.5,113c-5.335,0-10.465-1.154-15.245-3.431
		c-0.748-0.356-1.067-1.251-0.71-1.999c0.355-0.748,1.251-1.065,1.999-0.71c4.375,2.083,9.07,3.14,13.956,3.14
		C56.421,110,71,95.421,71,77.5S56.421,45,38.5,45C20.579,45,6,59.579,6,77.5c0,3.585,0.58,7.109,1.724,10.475
		c0.266,0.784-0.153,1.636-0.938,1.902c-0.78,0.268-1.637-0.152-1.902-0.938C3.634,85.264,3,81.414,3,77.5
		C3,57.925,18.925,42,38.5,42S74,57.925,74,77.5S58.076,113,38.5,113"/>
	<path clip-path="url(#SVGID_2_)" fill="#183142" d="M38.5,100c-2.643,0-5.231-0.454-7.691-1.35
		c-0.779-0.282-1.18-1.144-0.897-1.922c0.282-0.778,1.145-1.183,1.922-0.896C33.966,96.606,36.208,97,38.5,97
		C49.252,97,58,88.252,58,77.5S49.252,58,38.5,58S19,66.748,19,77.5c0,1.599,0.194,3.189,0.577,4.729
		c0.199,0.805-0.29,1.618-1.094,1.818c-0.812,0.204-1.618-0.291-1.818-1.094C16.224,81.177,16,79.343,16,77.5
		C16,65.094,26.094,55,38.5,55C50.906,55,61,65.094,61,77.5S50.906,100,38.5,100"/>
	<path clip-path="url(#SVGID_2_)" fill="#183142" d="M38.5,88c-0.662,0-1.329-0.062-1.981-0.187
		c-0.814-0.154-1.348-0.939-1.194-1.753c0.154-0.814,0.944-1.345,1.753-1.194C37.547,84.955,38.025,85,38.5,85
		c4.136,0,7.5-3.364,7.5-7.5S42.636,70,38.5,70c-4.136,0-7.5,3.364-7.5,7.5c0,0.403,0.032,0.811,0.097,1.209
		c0.132,0.818-0.424,1.588-1.242,1.72c-0.82,0.14-1.586-0.425-1.719-1.242C28.046,78.631,28,78.063,28,77.5
		C28,71.71,32.71,67,38.5,67S49,71.71,49,77.5S44.291,88,38.5,88"/>
	<path clip-path="url(#SVGID_2_)" fill="#183142" d="M6.5,109c-0.399,0-0.799-0.159-1.095-0.474
		c-0.566-0.604-0.535-1.554,0.069-2.121l32-30c0.604-0.564,1.552-0.536,2.121,0.068c0.566,0.604,0.535,1.554-0.069,2.121l-32,30
		C7.236,108.865,6.868,109,6.5,109"/>
	<path clip-path="url(#SVGID_2_)" fill="#183142" d="M12.5,114c-0.125,0-0.251-0.016-0.376-0.048
		c-0.551-0.143-0.975-0.585-1.092-1.143l-1.654-7.844l-8.392-3.057c-0.517-0.188-0.89-0.645-0.97-1.189
		c-0.081-0.545,0.143-1.09,0.583-1.42l16-12c0.454-0.341,1.064-0.397,1.572-0.142l6,3c0.355,0.178,0.626,0.49,0.752,0.867l2,6
		c0.168,0.503,0.057,1.057-0.289,1.457l-13,15C13.345,113.815,12.929,114,12.5,114 M4.616,100.038l6.572,2.395
		c0.487,0.177,0.847,0.593,0.954,1.1l1.203,5.703l10.462-12.072l-1.533-4.6l-4.615-2.308L4.616,100.038z"/>
	<path clip-path="url(#SVGID_2_)" fill="#183142" d="M91.5,38h-45c-0.828,0-1.5-0.672-1.5-1.5s0.672-1.5,1.5-1.5h45
		c0.828,0,1.5,0.672,1.5,1.5S92.329,38,91.5,38"/>
	<path clip-path="url(#SVGID_2_)" fill="#183142" d="M91.5,49h-25c-0.828,0-1.5-0.672-1.5-1.5s0.672-1.5,1.5-1.5h25
		c0.828,0,1.5,0.672,1.5,1.5S92.329,49,91.5,49"/>
	<path clip-path="url(#SVGID_2_)" fill="#183142" d="M91.5,60h-16c-0.828,0-1.5-0.672-1.5-1.5s0.672-1.5,1.5-1.5h16
		c0.828,0,1.5,0.672,1.5,1.5S92.329,60,91.5,60"/>
</g>
</svg>
