<?xml version="1.0" encoding="utf-8"?>
<!-- Generator: Adobe Illustrator 13.0.0, SVG Export Plug-In  -->
<!DOCTYPE svg PUBLIC "-//W3C//DTD SVG 1.1//EN" "http://www.w3.org/Graphics/SVG/1.1/DTD/svg11.dtd" [
	<!ENTITY ns_flows "http://ns.adobe.com/Flows/1.0/">
]>
<svg version="1.1"
	 xmlns="http://www.w3.org/2000/svg" xmlns:xlink="http://www.w3.org/1999/xlink" xmlns:a="http://ns.adobe.com/AdobeSVGViewerExtensions/3.0/"
	 x="0px" y="0px" width="109px" height="107px" viewBox="-1 -0.892 109 107" enable-background="new -1 -0.892 109 107"
	 xml:space="preserve">
<defs>
</defs>
<g>
	<defs>
		<rect id="SVGID_1_" y="0" width="107.729" height="106.108"/>
	</defs>
	<clipPath id="SVGID_2_">
		<use xlink:href="#SVGID_1_"  overflow="visible"/>
	</clipPath>
	<path clip-path="url(#SVGID_2_)" fill="#183142" d="M106.229,103h-61c-0.828,0-1.5-0.672-1.5-1.5s0.672-1.5,1.5-1.5h59.5V19.146
		L87.632,3H25.729v36.5c0,0.828-0.672,1.5-1.5,1.5c-0.828,0-1.5-0.672-1.5-1.5v-38c0-0.828,0.672-1.5,1.5-1.5h64
		c0.383,0,0.752,0.146,1.03,0.409l18,17c0.3,0.283,0.47,0.678,0.47,1.091v83C107.729,102.328,107.057,103,106.229,103"/>
	<path clip-path="url(#SVGID_2_)" fill="#90BBDA" d="M18.449,51.816c-0.923,0.641-1.343,1.794-1.049,2.879l5.679,20.966
		c0.294,1.084,1.238,1.867,2.359,1.955l39.104,1.948L51.224,30.397L18.449,51.816z"/>
	<path clip-path="url(#SVGID_2_)" fill="#183142" d="M64.338,81.285c-0.024,0-0.05-0.001-0.075-0.002l-39.35-1.96
		c-1.798-0.141-3.286-1.375-3.747-3.074l-5.714-21.097c-0.46-1.699,0.201-3.517,1.647-4.52l33.016-21.578
		c0.692-0.451,1.622-0.258,2.077,0.436c0.453,0.693,0.257,1.623-0.436,2.076L18.775,53.119c-0.371,0.259-0.556,0.77-0.426,1.248
		l5.714,21.097c0.129,0.479,0.548,0.827,1.043,0.866l39.305,1.957c0.828,0.041,1.465,0.745,1.424,1.572
		C65.795,80.662,65.132,81.285,64.338,81.285"/>
	<path clip-path="url(#SVGID_2_)" fill="#183142" d="M9.61,80.399c-1.113,0-2.213-0.291-3.204-0.859
		c-1.497-0.859-2.57-2.25-3.021-3.916L0.227,63.968c-0.45-1.666-0.225-3.408,0.633-4.905c0.859-1.497,2.25-2.57,3.916-3.021
		l11.619-3.147c0.8-0.217,1.623,0.256,1.841,1.056c0.216,0.8-0.257,1.624-1.056,1.841L5.56,58.938
		c-0.893,0.241-1.637,0.815-2.097,1.618c-0.461,0.802-0.581,1.735-0.339,2.628L6.282,74.84c0.241,0.893,0.815,1.638,1.617,2.098
		c0.803,0.461,1.739,0.581,2.628,0.338l11.62-3.147c0.799-0.219,1.623,0.257,1.841,1.056c0.216,0.8-0.257,1.624-1.056,1.841
		l-11.62,3.147C10.75,80.324,10.178,80.399,9.61,80.399"/>
	<path clip-path="url(#SVGID_2_)" fill="#183142" d="M28.797,106.108c-0.98,0-1.854-0.171-2.526-0.557
		c-3.562-2.043-15.182-22.083-16.031-25.22c-0.215-0.8,0.257-1.623,1.057-1.84c0.794-0.218,1.622,0.256,1.84,1.057
		c0.776,2.87,12.049,21.922,14.627,23.401c1.519,0.872,7.907-1.311,9.17-3.511c0.635-1.109,0.07-2.322-4.786-5.873
		c-4.913-3.595-7.974-9.259-8.397-15.539c-0.055-0.826,0.57-1.542,1.397-1.598c0.818-0.048,1.542,0.569,1.597,1.396
		c0.363,5.395,2.977,10.249,7.174,13.318c3.524,2.578,7.912,5.786,5.616,9.787C38.052,103.518,32.614,106.108,28.797,106.108"/>
	<path clip-path="url(#SVGID_2_)" fill="#183142" d="M30.569,88.355c-0.577,0-1.128-0.335-1.375-0.898
		c-0.332-0.757,0.013-1.641,0.77-1.975c0.902-0.397,2.351-1.272,2.749-1.967c0.084-0.313-0.1-1.749-0.42-2.937
		c-0.216-0.8,0.258-1.623,1.056-1.839c0.806-0.226,1.622,0.256,1.84,1.055c0.373,1.379,0.887,3.89,0.126,5.214
		c-1.021,1.782-3.632,2.995-4.144,3.221C30.975,88.315,30.771,88.355,30.569,88.355"/>
	<path clip-path="url(#SVGID_2_)" fill="#183142" d="M71.683,83.389c-0.094,0-0.188-0.004-0.283-0.013l-6.112-0.784
		c-0.603-0.077-1.099-0.51-1.257-1.095L53.424,42.346c-0.216-0.8,0.257-1.624,1.056-1.841c0.803-0.217,1.623,0.256,1.84,1.056
		l10.343,38.184l5.059,0.65c0.03,0,0.103-0.031,0.157-0.098c0.058-0.068,0.074-0.146,0.051-0.231L57.349,26.237
		c-0.021-0.086-0.077-0.145-0.16-0.175c-0.082-0.029-0.162-0.019-0.234,0.032l-3.99,3.078l1.788,6.598
		c0.216,0.8-0.256,1.624-1.055,1.841c-0.799,0.212-1.624-0.256-1.841-1.056l-2.05-7.565c-0.158-0.586,0.052-1.21,0.532-1.581
		l4.833-3.726c0.915-0.651,2.031-0.805,3.032-0.444c1,0.359,1.764,1.186,2.042,2.212l14.582,53.83
		c0.276,1.026,0.036,2.126-0.647,2.941C73.559,82.965,72.642,83.389,71.683,83.389"/>
	<path clip-path="url(#SVGID_2_)" fill="#A2C6E0" d="M76.818,62.179c-0.371,0-0.743-0.137-1.034-0.413
		c-0.6-0.571-0.624-1.521-0.053-2.121c2.734-2.874,3.771-6.883,2.773-10.724c-1.002-3.856-4.003-6.951-7.832-8.077
		c-0.793-0.234-1.249-1.068-1.016-1.863c0.234-0.795,1.076-1.247,1.862-1.016c4.834,1.422,8.622,5.331,9.889,10.202
		c1.261,4.851-0.05,9.916-3.503,13.546C77.61,62.022,77.215,62.179,76.818,62.179"/>
	<path clip-path="url(#SVGID_2_)" fill="#A2C6E0" d="M85.056,65.217c-0.372,0-0.745-0.138-1.035-0.415
		c-0.6-0.571-0.622-1.521-0.05-2.12c4.159-4.361,5.739-10.446,4.224-16.276c-1.535-5.913-5.95-10.482-11.807-12.222
		c-0.795-0.236-1.247-1.071-1.011-1.865s1.072-1.247,1.865-1.01c6.874,2.042,12.053,7.403,13.856,14.343
		c1.777,6.841-0.076,13.982-4.958,19.1C85.847,65.062,85.452,65.217,85.056,65.217"/>
	<path clip-path="url(#SVGID_2_)" fill="#183142" d="M98.229,21h-11c-0.828,0-1.5-0.672-1.5-1.5v-17c0-0.828,0.672-1.5,1.5-1.5
		s1.5,0.672,1.5,1.5V18h9.5c0.828,0,1.5,0.672,1.5,1.5S99.057,21,98.229,21"/>
</g>
</svg>
