<?xml version="1.0" encoding="utf-8"?>
<!-- Generator: Adobe Illustrator 13.0.0, SVG Export Plug-In  -->
<!DOCTYPE svg PUBLIC "-//W3C//DTD SVG 1.1//EN" "http://www.w3.org/Graphics/SVG/1.1/DTD/svg11.dtd" [
	<!ENTITY ns_flows "http://ns.adobe.com/Flows/1.0/">
]>
<svg version="1.1"
	 xmlns="http://www.w3.org/2000/svg" xmlns:xlink="http://www.w3.org/1999/xlink" xmlns:a="http://ns.adobe.com/AdobeSVGViewerExtensions/3.0/"
	 x="0px" y="0px" width="22px" height="19px" viewBox="0 0 22 19" enable-background="new 0 0 22 19" xml:space="preserve">
<defs>
</defs>
<path fill="#FFFFFF" d="M12.995,7.956c-0.395-0.393-1.034-0.393-1.429,0l-0.714,0.711c-0.789,0.785-2.068,0.785-2.857,0
	s-0.789-2.059,0-2.844l5.688-5.662c2.125-0.478,4.443,0.106,6.098,1.753c2.443,2.433,2.559,6.305,0.344,8.872l-2.13,2.146
	L12.995,7.956z M1.923,1.914c2.195-2.185,5.559-2.499,8.09-0.942L6.566,4.402c-1.578,1.57-1.578,4.116,0,5.687
	c1.53,1.522,3.982,1.568,5.568,0.139l0.146-0.139l4.285,4.266l-4.285,4.265c-0.789,0.785-2.068,0.785-2.857,0l-7.5-7.464
	C-0.641,8.604-0.641,4.466,1.923,1.914z"/>
</svg>
