<?xml version="1.0" encoding="utf-8"?>
<!-- Generator: Adobe Illustrator 13.0.0, SVG Export Plug-In  -->
<!DOCTYPE svg PUBLIC "-//W3C//DTD SVG 1.1//EN" "http://www.w3.org/Graphics/SVG/1.1/DTD/svg11.dtd" [
	<!ENTITY ns_flows "http://ns.adobe.com/Flows/1.0/">
]>
<svg version="1.1"
	 xmlns="http://www.w3.org/2000/svg" xmlns:xlink="http://www.w3.org/1999/xlink" xmlns:a="http://ns.adobe.com/AdobeSVGViewerExtensions/3.0/"
	 x="0px" y="0px" width="16px" height="12px" viewBox="-0.248 0.03 16 12" enable-background="new -0.248 0.03 16 12"
	 xml:space="preserve">
<defs>
</defs>
<path fill="#FFFFFF" d="M7.754,0c3.865,0,7.08,2.6,7.755,6.03c-0.675,3.431-3.89,6.031-7.755,6.031C3.89,12.062,0.675,9.461,0,6.03
	C0.675,2.6,3.89,0,7.754,0z M7.754,10.721c3.036,0,5.634-1.976,6.292-4.69c-0.658-2.715-3.256-4.691-6.292-4.691
	c-3.035,0-5.633,1.977-6.291,4.691C2.121,8.745,4.719,10.721,7.754,10.721z M7.754,9.046c-1.781,0-3.225-1.351-3.225-3.016
	s1.443-3.016,3.225-3.016s3.226,1.351,3.226,3.016S9.535,9.046,7.754,9.046z M7.754,7.706c0.99,0,1.792-0.75,1.792-1.676
	c0-0.925-0.802-1.675-1.792-1.675c-0.989,0-1.791,0.75-1.791,1.675C5.963,6.956,6.765,7.706,7.754,7.706z"/>
</svg>
