<?xml version="1.0" encoding="utf-8"?>
<!-- Generator: Adobe Illustrator 13.0.0, SVG Export Plug-In . SVG Version: 6.00 Build 14948)  -->
<!DOCTYPE svg PUBLIC "-//W3C//DTD SVG 1.1//EN" "http://www.w3.org/Graphics/SVG/1.1/DTD/svg11.dtd">
<svg version="1.1" id="Layer_1" xmlns="http://www.w3.org/2000/svg" xmlns:xlink="http://www.w3.org/1999/xlink" x="0px" y="0px"
	 width="209.5px" height="107.8px" viewBox="0 0 209.5 107.8" enable-background="new 0 0 209.5 107.8" xml:space="preserve">
<g>
	<defs>
		<rect id="SVGID_1_" width="209.5" height="107.8"/>
	</defs>
	<clipPath id="SVGID_2_">
		<use xlink:href="#SVGID_1_"  overflow="visible"/>
	</clipPath>
	<path clip-path="url(#SVGID_2_)" fill="#1D4824" d="M55.1,98.2C45.7,98.2,38,83.8,36.8,65.1c-0.1,1.5-0.1,3.101-0.1,4.7
		c0,21,8.6,38,19.3,38c10.6,0,19.3-17,19.3-38c0-6-0.7-11.7-2-16.8c0.2,2.3,0.3,4.7,0.3,7.1C73.6,81.2,65.3,98.2,55.1,98.2"/>
	<path clip-path="url(#SVGID_2_)" fill="#1D4824" d="M102.3,54c1,9.7-14.6,19.5-35.8,23c1.8-0.101,3.6-0.2,5.5-0.4
		c23.9-2.7,42.3-13.7,41.2-24.7c-1.2-11-21.6-17.8-45.5-15.3c-6.9,0.7-13.3,2.2-18.9,4.1c2.6-0.5,5.3-0.9,8.1-1.2
		C80.8,37,101.1,43.4,102.3,54"/>
	<path clip-path="url(#SVGID_2_)" fill="#CE982B" d="M81.7,54.6c0,7-11,12.7-25.1,13.601c1.2,0.1,2.4,0.1,3.6,0.1
		c15.9,0,28.8-6.4,28.8-14.3c0-7.9-12.9-14.4-28.8-14.4c-4.6,0-8.9,0.5-12.7,1.5c1.8-0.2,3.6-0.2,5.4-0.2
		C68.8,40.9,81.7,47,81.7,54.6"/>
	<path clip-path="url(#SVGID_2_)" fill="#54142B" d="M64.4,11.2c10,0,18.7,9.5,23.5,23.6C84.6,14.7,74.1,0,61.8,0
		C46.7,0,34.5,21.9,34.5,48.9c0,7.8,1,15.1,2.8,21.6c-0.3-3-0.5-6.101-0.5-9.2c0-2.7,0.1-5.4,0.4-8.1C39.1,29.5,50.6,11.2,64.4,11.2
		"/>
	<path clip-path="url(#SVGID_2_)" fill="#CE982B" d="M10.9,52.1c0-10.5,11.3-19.6,27.5-23.5C16.4,31.1,0,41.3,0,53.6
		C0,67.7,21.9,79.2,48.9,79.2c7.8,0,15.1-0.9,21.6-2.601c-0.5,0-1,0.101-1.5,0.101c-4.1,0.699-8.3,1-12.8,1
		C31.2,77.7,10.9,66.2,10.9,52.1"/>
	<polygon clip-path="url(#SVGID_2_)" points="126.2,41.8 126.2,31.4 127.6,31.4 127.6,41.9 126.2,41.9 	"/>
	<path clip-path="url(#SVGID_2_)" d="M130.3,41.8v-7.6h1.2v1.1c0.6-0.8,1.4-1.2,2.4-1.2c0.5,0,0.899,0.1,1.3,0.2
		c0.399,0.2,0.7,0.4,0.899,0.6c0.2,0.3,0.301,0.6,0.4,0.9c0,0.2,0.1,0.7,0.1,1.2v4.7h-1.3v-4.6c0-0.5,0-0.9-0.1-1.2
		c-0.101-0.3-0.3-0.5-0.5-0.6c-0.3-0.2-0.601-0.2-0.9-0.2c-0.5,0-1,0.2-1.399,0.5c-0.4,0.3-0.601,1-0.601,2v4.1h-1.5V41.8z"/>
	<path clip-path="url(#SVGID_2_)" d="M141.7,40.7l0.2,1.1c-0.4,0.1-0.7,0.1-1,0.1c-0.5,0-0.801-0.1-1.101-0.2s-0.399-0.3-0.5-0.6
		c-0.1-0.2-0.2-0.7-0.2-1.5v-4.4H138.2v-1h0.899v-1.9l1.301-0.8v2.6h1.3v1h-1.3v4.4c0,0.4,0,0.6,0.1,0.7c0,0.1,0.1,0.2,0.2,0.2
		c0.1,0.1,0.2,0.1,0.399,0.1C141.2,40.7,141.4,40.7,141.7,40.7"/>
	<path clip-path="url(#SVGID_2_)" d="M148.5,39.4l1.3,0.2c-0.2,0.8-0.6,1.4-1.2,1.8c-0.6,0.4-1.3,0.6-2.199,0.6
		c-1.101,0-2-0.3-2.601-1c-0.6-0.7-1-1.6-1-2.9c0-1.3,0.3-2.3,1-3c0.7-0.7,1.5-1.1,2.601-1.1c1,0,1.8,0.3,2.5,1c0.6,0.7,1,1.7,1,2.9
		v0.3H144.3c0,0.8,0.3,1.5,0.7,1.9c0.4,0.4,1,0.7,1.6,0.7c0.5,0,0.9-0.1,1.2-0.4C148.1,40.3,148.3,39.9,148.5,39.4 M144.3,37.3h4.2
		c-0.1-0.6-0.2-1.1-0.5-1.4c-0.4-0.5-0.9-0.7-1.6-0.7c-0.601,0-1.101,0.2-1.5,0.6C144.6,36.1,144.4,36.6,144.3,37.3"/>
	<path clip-path="url(#SVGID_2_)" d="M151.9,41.8v-7.6h1.199v1.1c0.301-0.5,0.601-0.9,0.801-1.1c0.199-0.2,0.5-0.3,0.8-0.3
		c0.399,0,0.899,0.1,1.3,0.4l-0.4,1.2c-0.3-0.2-0.6-0.3-0.899-0.3s-0.5,0.1-0.8,0.3c-0.2,0.2-0.4,0.4-0.5,0.7
		c-0.101,0.5-0.2,1-0.2,1.5v4h-1.3V41.8z"/>
	<path clip-path="url(#SVGID_2_)" d="M157.2,41.8v-7.6h1.2v1.1c0.6-0.8,1.399-1.2,2.399-1.2c0.5,0,0.9,0.1,1.3,0.2
		c0.4,0.2,0.7,0.4,0.9,0.6c0.2,0.3,0.3,0.6,0.4,0.9c0,0.2,0.1,0.7,0.1,1.2v4.7h-1.3v-4.6c0-0.5,0-0.9-0.101-1.2
		c-0.1-0.3-0.3-0.5-0.5-0.6c-0.3-0.2-0.6-0.2-0.899-0.2c-0.5,0-1,0.2-1.4,0.5c-0.399,0.3-0.6,1-0.6,2v4.1h-1.5V41.8z"/>
	<path clip-path="url(#SVGID_2_)" d="M170.7,40.9c-0.5,0.4-0.9,0.7-1.4,0.9C168.9,42,168.4,42,167.9,42c-0.801,0-1.5-0.2-1.9-0.6
		s-0.7-0.9-0.7-1.6c0-0.4,0.101-0.7,0.3-1c0.2-0.3,0.4-0.6,0.7-0.7c0.3-0.2,0.601-0.3,0.9-0.4s0.6-0.1,1.1-0.2
		c1-0.1,1.8-0.3,2.3-0.4v-0.3c0-0.5-0.1-0.9-0.399-1.1c-0.3-0.3-0.8-0.4-1.5-0.4c-0.601,0-1,0.1-1.3,0.3
		c-0.301,0.2-0.5,0.6-0.601,1.1l-1.3-0.2c0.1-0.5,0.3-1,0.6-1.3c0.301-0.3,0.601-0.6,1.101-0.8c0.5-0.2,1.1-0.3,1.7-0.3
		c0.6,0,1.199,0.1,1.6,0.2c0.4,0.2,0.7,0.3,0.9,0.6c0.199,0.2,0.3,0.5,0.399,0.9c0,0.2,0.101,0.6,0.101,1.2v1.7c0,1.2,0,1.9,0.1,2.3
		c0.1,0.3,0.2,0.6,0.3,0.9H171C170.8,41.5,170.8,41.2,170.7,40.9 M170.6,38c-0.5,0.2-1.199,0.4-2.1,0.5c-0.5,0.1-0.9,0.2-1.1,0.3
		c-0.2,0.1-0.4,0.2-0.5,0.4c-0.101,0.2-0.2,0.4-0.2,0.6c0,0.3,0.1,0.6,0.399,0.9C167.4,41,167.7,41,168.2,41s0.899-0.1,1.3-0.3
		c0.4-0.2,0.7-0.5,0.8-0.9c0.101-0.3,0.2-0.7,0.2-1.3V38H170.6z"/>
	<path clip-path="url(#SVGID_2_)" d="M177.1,40.7l0.2,1.1c-0.399,0.1-0.7,0.1-1,0.1c-0.5,0-0.8-0.1-1.1-0.2s-0.4-0.3-0.5-0.6
		c-0.101-0.2-0.2-0.7-0.2-1.5v-4.4h-0.9v-1h0.9v-1.9l1.3-0.8v2.6h1.3v1h-1.3v4.4c0,0.4,0,0.6,0.101,0.7c0,0.1,0.1,0.2,0.199,0.2
		c0.101,0.1,0.2,0.1,0.4,0.1C176.7,40.7,176.9,40.7,177.1,40.7"/>
	<path clip-path="url(#SVGID_2_)" d="M178.8,31.3h1.3v1.5h-1.3V31.3z M178.8,34.2h1.3v7.6h-1.3V34.2z"/>
	<path clip-path="url(#SVGID_2_)" d="M182,38c0-1.4,0.4-2.4,1.2-3.1c0.7-0.6,1.399-0.8,2.399-0.8s1.9,0.3,2.601,1
		c0.7,0.7,1,1.6,1,2.8c0,1-0.101,1.7-0.4,2.3s-0.7,1-1.3,1.3c-0.6,0.3-1.2,0.5-1.8,0.5c-1.101,0-1.9-0.3-2.601-1
		C182.4,40.3,182,39.3,182,38 M183.4,38c0,1,0.199,1.7,0.6,2.2s1,0.7,1.6,0.7c0.601,0,1.2-0.2,1.601-0.7c0.399-0.5,0.6-1.2,0.6-2.2
		c0-0.9-0.2-1.6-0.6-2.1c-0.4-0.5-1-0.7-1.601-0.7c-0.6,0-1.199,0.2-1.6,0.7C183.6,36.3,183.4,37.1,183.4,38"/>
	<path clip-path="url(#SVGID_2_)" d="M191.1,41.8v-7.6h1.2v1.1c0.601-0.8,1.4-1.2,2.4-1.2c0.5,0,0.899,0.1,1.3,0.2
		c0.4,0.2,0.7,0.4,0.9,0.6c0.199,0.3,0.3,0.6,0.399,0.9c0,0.2,0.101,0.7,0.101,1.2v4.7H196.1v-4.6c0-0.5,0-0.9-0.1-1.2
		c-0.1-0.3-0.3-0.5-0.5-0.6c-0.3-0.2-0.6-0.2-0.9-0.2c-0.5,0-1,0.2-1.399,0.5c-0.4,0.3-0.601,1-0.601,2v4.1h-1.5V41.8z"/>
	<path clip-path="url(#SVGID_2_)" d="M204.6,40.9c-0.5,0.4-0.899,0.7-1.399,0.9c-0.4,0.2-0.9,0.2-1.4,0.2c-0.8,0-1.5-0.2-1.899-0.6
		c-0.4-0.4-0.7-0.9-0.7-1.6c0-0.4,0.1-0.7,0.3-1s0.4-0.6,0.7-0.7c0.3-0.2,0.6-0.3,0.899-0.4c0.301-0.1,0.601-0.1,1.101-0.2
		c1-0.1,1.8-0.3,2.3-0.4v-0.3c0-0.5-0.1-0.9-0.4-1.1c-0.3-0.3-0.8-0.4-1.5-0.4c-0.6,0-1,0.1-1.3,0.3c-0.3,0.2-0.5,0.6-0.6,1.1
		l-1.3-0.2c0.1-0.5,0.3-1,0.6-1.3c0.3-0.3,0.6-0.6,1.1-0.8c0.5-0.2,1.101-0.3,1.7-0.3c0.601,0,1.2,0.1,1.601,0.2
		c0.399,0.2,0.699,0.3,0.899,0.6c0.2,0.2,0.3,0.5,0.4,0.9c0,0.2,0.1,0.6,0.1,1.2v1.7c0,1.2,0,1.9,0.101,2.3
		c0.1,0.3,0.199,0.6,0.3,0.9h-1.3C204.7,41.5,204.6,41.2,204.6,40.9 M204.5,38c-0.5,0.2-1.2,0.4-2.1,0.5c-0.5,0.1-0.9,0.2-1.101,0.3
		s-0.399,0.2-0.5,0.4c-0.1,0.2-0.2,0.4-0.2,0.6c0,0.3,0.101,0.6,0.4,0.9c0.3,0.2,0.6,0.3,1.1,0.3s0.9-0.1,1.301-0.3
		c0.399-0.2,0.699-0.5,0.8-0.9c0.1-0.3,0.2-0.7,0.2-1.3V38H204.5z"/>
	<polygon clip-path="url(#SVGID_2_)" points="208.2,41.8 208.2,31.4 209.5,31.4 209.5,41.9 208.2,41.9 	"/>
	<path clip-path="url(#SVGID_2_)" d="M133.4,55.7L134.8,56c-0.3,1.1-0.8,2-1.6,2.6c-0.8,0.601-1.7,0.9-2.8,0.9
		c-1.101,0-2-0.2-2.7-0.7s-1.2-1.1-1.601-2c-0.399-0.9-0.6-1.8-0.6-2.8c0-1.1,0.2-2,0.6-2.9c0.4-0.8,1-1.4,1.801-1.8
		c0.8-0.4,1.6-0.6,2.5-0.6c1,0,1.899,0.3,2.6,0.8s1.2,1.3,1.5,2.2l-1.4,0.3c-0.199-0.8-0.6-1.3-1.1-1.7c-0.5-0.3-1-0.5-1.7-0.5
		c-0.8,0-1.5,0.2-2,0.6s-0.899,0.9-1.1,1.6c-0.2,0.6-0.3,1.3-0.3,2c0,0.9,0.1,1.7,0.399,2.3c0.3,0.7,0.7,1.2,1.2,1.5
		s1.1,0.5,1.8,0.5c0.8,0,1.4-0.2,2-0.7C132.9,57.2,133.2,56.6,133.4,55.7"/>
	<path clip-path="url(#SVGID_2_)" d="M136.3,55.6c0-1.4,0.4-2.4,1.2-3.1c0.7-0.6,1.4-0.8,2.4-0.8s1.899,0.3,2.6,1
		c0.7,0.7,1,1.6,1,2.8c0,1-0.1,1.7-0.4,2.3c-0.3,0.6-0.699,1-1.3,1.3c-0.6,0.3-1.2,0.5-1.8,0.5c-1.1,0-1.9-0.3-2.6-1
		C136.6,57.8,136.3,56.8,136.3,55.6 M137.6,55.6c0,1,0.2,1.7,0.601,2.2c0.399,0.5,1,0.7,1.6,0.7c0.601,0,1.2-0.2,1.601-0.7
		c0.399-0.5,0.6-1.2,0.6-2.2c0-0.9-0.2-1.6-0.6-2.1c-0.4-0.5-1-0.7-1.601-0.7c-0.6,0-1.2,0.2-1.6,0.7
		C137.8,53.9,137.6,54.6,137.6,55.6"/>
	<path clip-path="url(#SVGID_2_)" d="M145.3,59.3v-7.6h1.101v1.1c0.199-0.4,0.6-0.7,0.899-0.9c0.4-0.2,0.8-0.3,1.3-0.3
		c0.601,0,1,0.1,1.4,0.3c0.4,0.2,0.6,0.6,0.8,1c0.601-0.9,1.4-1.3,2.3-1.3c0.801,0,1.301,0.2,1.7,0.6c0.4,0.4,0.601,1.1,0.601,1.9
		v5.2H154.1v-4.8c0-0.5,0-0.9-0.1-1.1c-0.1-0.2-0.2-0.4-0.5-0.5c-0.2-0.1-0.5-0.2-0.8-0.2c-0.5,0-1,0.2-1.3,0.5
		c-0.4,0.4-0.5,0.9-0.5,1.7v4.4H149.6v-4.9c0-0.6-0.1-1-0.3-1.3c-0.2-0.3-0.6-0.4-1-0.4c-0.399,0-0.7,0.1-1,0.3
		c-0.3,0.2-0.5,0.5-0.7,0.8c-0.1,0.4-0.199,0.9-0.199,1.6v3.9H145.3z"/>
	<path clip-path="url(#SVGID_2_)" d="M157.9,62.2V51.8h1.199v1c0.301-0.4,0.601-0.7,0.9-0.9c0.3-0.2,0.8-0.3,1.3-0.3
		c0.601,0,1.2,0.2,1.7,0.5c0.5,0.3,0.9,0.8,1.1,1.4c0.301,0.6,0.4,1.3,0.4,2c0,0.8-0.1,1.5-0.4,2.1C163.8,58.2,163.4,58.7,162.9,59
		s-1.101,0.5-1.7,0.5c-0.4,0-0.8-0.101-1.2-0.3c-0.3-0.2-0.6-0.4-0.8-0.7v3.7H157.9 M159.1,55.6c0,1,0.2,1.7,0.601,2.2
		c0.399,0.5,0.899,0.7,1.399,0.7c0.601,0,1.101-0.2,1.5-0.7c0.4-0.5,0.601-1.2,0.601-2.2s-0.2-1.7-0.601-2.2
		c-0.399-0.5-0.899-0.7-1.399-0.7s-1,0.3-1.5,0.8C159.3,53.9,159.1,54.6,159.1,55.6"/>
	<path clip-path="url(#SVGID_2_)" d="M171.7,56.899l1.3,0.2c-0.2,0.8-0.6,1.4-1.2,1.8c-0.6,0.4-1.3,0.601-2.2,0.601
		c-1.1,0-2-0.3-2.6-1s-1-1.601-1-2.9s0.3-2.3,1-3c0.7-0.7,1.5-1.1,2.6-1.1c1,0,1.801,0.3,2.5,1c0.601,0.7,1,1.7,1,2.899V55.7h-5.6
		c0,0.8,0.3,1.5,0.7,1.899c0.399,0.4,1,0.7,1.6,0.7c0.5,0,0.9-0.1,1.2-0.4C171.2,57.8,171.5,57.399,171.7,56.899 M167.5,54.8h4.2
		c-0.101-0.6-0.2-1.1-0.5-1.4c-0.4-0.5-0.9-0.7-1.601-0.7c-0.6,0-1.1,0.2-1.5,0.6C167.7,53.6,167.5,54.2,167.5,54.8"/>
	<path clip-path="url(#SVGID_2_)" d="M177.9,58.2l0.199,1.1c-0.399,0.1-0.699,0.1-1,0.1c-0.5,0-0.8-0.1-1.1-0.199
		c-0.3-0.101-0.4-0.301-0.5-0.601c-0.1-0.2-0.2-0.7-0.2-1.5v-4.4H174.4v-1h0.899v-1.8l1.3-0.8v2.6h1.301v1H176.6v4.4
		c0,0.4,0,0.601,0.101,0.7c0,0.1,0.1,0.2,0.2,0.2c0.1,0.1,0.199,0.1,0.399,0.1C177.5,58.2,177.6,58.2,177.9,58.2"/>
	<path clip-path="url(#SVGID_2_)" d="M179.6,48.9h1.301v1.5H179.6V48.9z M179.6,51.7h1.301v7.6H179.6V51.7z"/>
	<path clip-path="url(#SVGID_2_)" d="M186.1,58.2l0.2,1.1c-0.399,0.1-0.7,0.1-1,0.1c-0.5,0-0.8-0.1-1.1-0.199
		c-0.3-0.101-0.4-0.301-0.5-0.601c-0.101-0.2-0.2-0.7-0.2-1.5v-4.4h-0.9v-1h0.9v-1.8l1.3-0.8v2.6h1.3v1h-1.3v4.4
		c0,0.4,0,0.601,0.101,0.7c0,0.1,0.1,0.2,0.199,0.2c0.101,0.1,0.2,0.1,0.4,0.1C185.6,58.2,185.8,58.2,186.1,58.2"/>
	<path clip-path="url(#SVGID_2_)" d="M187.8,48.9h1.3v1.5h-1.3V48.9z M187.8,51.7h1.3v7.6h-1.3V51.7z"/>
	<path clip-path="url(#SVGID_2_)" d="M191,55.6c0-1.4,0.4-2.4,1.2-3.1c0.7-0.6,1.399-0.8,2.399-0.8s1.9,0.3,2.601,1
		c0.7,0.7,1,1.6,1,2.8c0,1-0.101,1.7-0.4,2.3s-0.7,1-1.3,1.3s-1.2,0.5-1.8,0.5c-1.101,0-1.9-0.3-2.601-1
		C191.3,57.8,191,56.8,191,55.6 M192.3,55.6c0,1,0.2,1.7,0.601,2.2c0.399,0.5,1,0.7,1.6,0.7s1.2-0.2,1.6-0.7
		c0.4-0.5,0.601-1.2,0.601-2.2c0-0.9-0.2-1.6-0.601-2.1c-0.399-0.5-1-0.7-1.6-0.7s-1.2,0.2-1.6,0.7
		C192.5,53.9,192.3,54.6,192.3,55.6"/>
	<path clip-path="url(#SVGID_2_)" d="M200,59.3v-7.6h1.2v1.1c0.6-0.8,1.399-1.2,2.399-1.2c0.5,0,0.9,0.1,1.301,0.2
		c0.399,0.2,0.699,0.4,0.899,0.6c0.2,0.3,0.3,0.6,0.4,0.9c0,0.2,0.1,0.7,0.1,1.2v4.7H205V54.6c0-0.5,0-0.9-0.1-1.2
		c-0.101-0.3-0.301-0.5-0.5-0.6c-0.301-0.2-0.601-0.2-0.9-0.2c-0.5,0-1,0.2-1.4,0.5c-0.399,0.3-0.6,1-0.6,2V59.2H200V59.3z"/>
	<polygon clip-path="url(#SVGID_2_)" points="125.9,76.899 125.9,66.399 127.3,66.399 132.8,74.6 132.8,66.399 134.1,66.399 
		134.1,76.899 132.7,76.899 127.2,68.7 127.2,76.899 	"/>
	<path clip-path="url(#SVGID_2_)" d="M142,74.399l1.3,0.2c-0.2,0.8-0.6,1.4-1.2,1.8C141.5,76.8,140.8,77,139.9,77
		c-1.101,0-2-0.3-2.601-1c-0.6-0.7-1-1.601-1-2.9s0.3-2.3,1-3s1.5-1.1,2.601-1.1c1,0,1.8,0.3,2.5,1c0.6,0.7,1,1.7,1,2.899V73.2h-5.7
		c0,0.8,0.3,1.5,0.7,1.899c0.399,0.4,1,0.7,1.6,0.7c0.5,0,0.9-0.1,1.2-0.4C141.5,75.399,141.8,75,142,74.399 M137.8,72.399h4.2
		c-0.1-0.6-0.2-1.1-0.5-1.399c-0.4-0.5-0.9-0.7-1.6-0.7c-0.601,0-1.101,0.2-1.5,0.6C138,71.2,137.8,71.7,137.8,72.399"/>
	<path clip-path="url(#SVGID_2_)" d="M148.1,75.7l0.2,1.1c-0.399,0.1-0.7,0.1-1,0.1c-0.5,0-0.8-0.1-1.1-0.199
		c-0.3-0.101-0.4-0.301-0.5-0.601c-0.101-0.2-0.2-0.7-0.2-1.5V70.2h-0.9v-1h0.9v-1.9l1.3-0.8v2.6h1.3v1h-1.3v4.4
		c0,0.399,0,0.6,0.101,0.7c0,0.1,0.1,0.199,0.199,0.199c0.101,0.101,0.2,0.101,0.4,0.101C147.7,75.8,147.9,75.8,148.1,75.7"/>
	<path clip-path="url(#SVGID_2_)" d="M151.2,76.899l-2.3-7.6h1.3l1.2,4.4l0.399,1.6c0-0.1,0.101-0.6,0.4-1.6l1.2-4.4h1.3l1.1,4.4
		l0.4,1.399l0.399-1.5L157.9,69.2h1.199l-2.399,7.6h-1.3l-1.2-4.5l-0.3-1.3l-1.5,5.8h-1.2V76.899z"/>
	<path clip-path="url(#SVGID_2_)" d="M160.3,73.1c0-1.399,0.4-2.399,1.2-3.1c0.7-0.601,1.4-0.8,2.4-0.8s1.899,0.3,2.6,1
		c0.7,0.699,1,1.6,1,2.8c0,1-0.1,1.7-0.4,2.3c-0.3,0.6-0.699,1-1.3,1.3c-0.6,0.3-1.2,0.5-1.8,0.5c-1.1,0-1.9-0.3-2.6-1
		C160.7,75.3,160.3,74.399,160.3,73.1 M161.7,73.1c0,1,0.2,1.7,0.6,2.2c0.4,0.5,1,0.7,1.601,0.7c0.6,0,1.199-0.2,1.6-0.7
		s0.6-1.2,0.6-2.2c0-0.899-0.199-1.6-0.6-2.1s-1-0.7-1.6-0.7c-0.601,0-1.2,0.2-1.601,0.7C161.9,71.399,161.7,72.1,161.7,73.1"/>
	<path clip-path="url(#SVGID_2_)" d="M169.4,76.899v-7.6h1.199v1.1c0.301-0.5,0.601-0.899,0.801-1.1c0.199-0.2,0.5-0.3,0.8-0.3
		c0.399,0,0.899,0.1,1.3,0.399l-0.4,1.2c-0.3-0.2-0.6-0.3-0.899-0.3s-0.5,0.1-0.8,0.3c-0.2,0.2-0.4,0.4-0.5,0.7
		c-0.101,0.5-0.2,1-0.2,1.5v4h-1.3V76.899z"/>
	<polyline clip-path="url(#SVGID_2_)" points="174.7,76.899 174.7,66.399 176,66.399 176,72.399 179,69.3 180.7,69.3 177.8,72.1 
		181,76.899 179.4,76.899 176.9,73 176,73.899 176,76.899 174.7,76.899 	"/>
</g>
</svg>
