<?xml version="1.0" encoding="UTF-8"?>
<svg width="20px" height="11px" viewBox="0 0 20 11" version="1.1" xmlns="http://www.w3.org/2000/svg" xmlns:xlink="http://www.w3.org/1999/xlink">
    <!-- Generator: Sketch 54.1 (76490) - https://sketchapp.com -->
    <title>backspace</title>
    <desc>Created with Sketch.</desc>
    <g id="Page-1" stroke="none" stroke-width="1" fill="none" fill-rule="evenodd">
        <g id="keyboard1" transform="translate(-408.000000, -289.000000)" fill="#777777">
            <g id="en" transform="translate(10.000000, 235.000000)">
                <g id="text" transform="translate(17.000000, 46.000000)">
                    <g id="123" transform="translate(9.000000, 0.000000)">
                        <g id="back" transform="translate(372.000000, 8.000000)">
                            <path d="M5.301552,0 L18,0 C19.1045695,1.75920346e-15 20,0.8954305 20,2 L20,8.5 C20,9.6045695 19.1045695,10.5 18,10.5 L5.301552,10.5 C5.02312225,10.5 4.75729885,10.3839183 4.56805283,10.1796903 L0.629828895,5.92969035 C0.274494452,5.54622526 0.274494452,4.95377474 0.629828895,4.57030965 L4.56805283,0.320309651 C4.75729885,0.116081661 5.02312225,-2.81920192e-16 5.301552,-3.33066907e-16 Z M12.4497475,5.24264069 L13.863961,3.82842712 C14.0592232,3.63316498 14.0592232,3.31658249 13.863961,3.12132034 C13.6686989,2.9260582 13.3521164,2.9260582 13.1568542,3.12132034 L11.7426407,4.53553391 L10.3284271,3.12132034 C10.133165,2.9260582 9.81658249,2.9260582 9.62132034,3.12132034 C9.4260582,3.31658249 9.4260582,3.63316498 9.62132034,3.82842712 L11.0355339,5.24264069 L9.62132034,6.65685425 C9.4260582,6.8521164 9.4260582,7.16869888 9.62132034,7.36396103 C9.81658249,7.55922318 10.133165,7.55922318 10.3284271,7.36396103 L11.7426407,5.94974747 L13.1568542,7.36396103 C13.3521164,7.55922318 13.6686989,7.55922318 13.863961,7.36396103 C14.0592232,7.16869888 14.0592232,6.8521164 13.863961,6.65685425 L12.4497475,5.24264069 Z" id="backspace"></path>
                        </g>
                    </g>
                </g>
            </g>
        </g>
    </g>
</svg>