<?xml version="1.0" encoding="UTF-8"?>
<svg width="282px" height="26px" viewBox="0 0 282 26" version="1.1" xmlns="http://www.w3.org/2000/svg" xmlns:xlink="http://www.w3.org/1999/xlink">
    <!-- Generator: Sketch 54.1 (76490) - https://sketchapp.com -->
    <title>keyboard-img</title>
    <desc>Created with Sketch.</desc>
    <g id="Page-1" stroke="none" stroke-width="1" fill="none" fill-rule="evenodd">
        <g id="keyboard-img" transform="translate(-1.000000, -1.000000)">
            <rect id="Rectangle" x="0" y="0" width="284" height="28"></rect>
            <path d="M12,2 L12,6 L11,6 L11,2 L7,2 L7,1 L12,1 L12,2 Z M11,26 L11,22 L12,22 L12,26 L12,27 L7,27 L7,26 L11,26 Z" id="over-right" fill="#347DAF" fill-rule="nonzero"></path>
            <path d="M2,2 L2,6 L1,6 L1,2 L1,1 L6,1 L6,2 L2,2 Z M2,26 L6,26 L6,27 L1,27 L1,26 L1,22 L2,22 L2,26 Z" id="over-left" fill="#347DAF" fill-rule="nonzero"></path>
            <path d="M17.9382239,8.5 L30.6366719,8.5 C31.7412414,8.5 32.6366719,9.3954305 32.6366719,10.5 L32.6366719,17 C32.6366719,18.1045695 31.7412414,19 30.6366719,19 L17.9382239,19 C17.6597942,19 17.3939708,18.8839183 17.2047248,18.6796903 L13.2665008,14.4296903 C12.9111664,14.0462253 12.9111664,13.4537747 13.2665008,13.0703097 L17.2047248,8.82030965 C17.3939708,8.61608166 17.6597942,8.5 17.9382239,8.5 Z M25.0864194,13.7426407 L26.500633,12.3284271 C26.6958951,12.133165 26.6958951,11.8165825 26.500633,11.6213203 C26.3053708,11.4260582 25.9887883,11.4260582 25.7935262,11.6213203 L24.3793126,13.0355339 L22.9650991,11.6213203 C22.7698369,11.4260582 22.4532544,11.4260582 22.2579923,11.6213203 C22.0627301,11.8165825 22.0627301,12.133165 22.2579923,12.3284271 L23.6722058,13.7426407 L22.2579923,15.1568542 C22.0627301,15.3521164 22.0627301,15.6686989 22.2579923,15.863961 C22.4532544,16.0592232 22.7698369,16.0592232 22.9650991,15.863961 L24.3793126,14.4497475 L25.7935262,15.863961 C25.9887883,16.0592232 26.3053708,16.0592232 26.500633,15.863961 C26.6958951,15.6686989 26.6958951,15.3521164 26.500633,15.1568542 L25.0864194,13.7426407 Z" id="backspace" fill="#777777" fill-rule="nonzero"></path>
            <g id="tab" transform="translate(34.000000, 4.000000)" fill="#347DAF" fill-rule="nonzero">
                <path d="M5.69,11.85 C5.8433341,11.85 5.9566663,11.9033328 6.03,12.01 C6.1033337,12.1166672 6.14,12.2433326 6.14,12.39 C6.14,12.5366674 6.1033337,12.6633328 6.03,12.77 C5.9566663,12.8766672 5.8433341,12.93 5.69,12.93 L3.97,12.93 L3.97,18.47 C3.97,18.6633343 3.9066673,18.8033329 3.78,18.89 C3.6533327,18.9766671 3.5033342,19.02 3.33,19.02 C3.1566658,19.02 3.0066673,18.9766671 2.88,18.89 C2.7533327,18.8033329 2.69,18.6633343 2.69,18.47 L2.69,12.93 L0.96,12.93 C0.8066659,12.93 0.6933337,12.8766672 0.62,12.77 C0.5466663,12.6633328 0.51,12.5366674 0.51,12.39 C0.51,12.2433326 0.5466663,12.1166672 0.62,12.01 C0.6933337,11.9033328 0.8066659,11.85 0.96,11.85 L5.69,11.85 Z M8.25,16.69 C7.916665,16.69 7.68500065,16.7533327 7.555,16.88 C7.42499935,17.0066673 7.36,17.1766656 7.36,17.39 L7.36,17.41 C7.36,17.7966686 7.6099975,17.99 8.11,17.99 C8.5033353,17.99 8.8133322,17.923334 9.04,17.79 C9.2000008,17.6966662 9.31499965,17.5866673 9.385,17.46 C9.45500035,17.3333327 9.49,17.1633344 9.49,16.95 L9.49,16.69 L8.25,16.69 Z M8.51,13.53 C8.8300016,13.53 9.1266653,13.5699996 9.4,13.65 C9.6733347,13.7300004 9.90833235,13.8449993 10.105,13.995 C10.3016677,14.1450008 10.4549995,14.3283322 10.565,14.545 C10.6750006,14.7616678 10.73,15.0099986 10.73,15.29 L10.73,18.54 C10.73,18.7066675 10.6716673,18.828333 10.555,18.905 C10.4383328,18.981667 10.3066674,19.02 10.16,19.02 C10.0133326,19.02 9.88166725,18.981667 9.765,18.905 C9.64833275,18.828333 9.59,18.7066675 9.59,18.54 L9.59,18.28 L9.58,18.28 C9.5266664,18.3933339 9.4500005,18.4933329 9.35,18.58 C9.2499995,18.6666671 9.1300007,18.7466663 8.99,18.82 C8.856666,18.886667 8.7033342,18.9399998 8.53,18.98 C8.3566658,19.0200002 8.1833342,19.04 8.01,19.04 C7.409997,19.04 6.94833495,18.9033347 6.625,18.63 C6.30166505,18.3566653 6.14,17.9700025 6.14,17.47 L6.14,17.31 C6.14,17.0833322 6.17499965,16.8733343 6.245,16.68 C6.31500035,16.4866657 6.43166585,16.3183341 6.595,16.175 C6.75833415,16.031666 6.97166535,15.9200004 7.235,15.84 C7.49833465,15.7599996 7.8266647,15.72 8.22,15.72 L9.48,15.72 L9.48,15.58 C9.48,15.2399983 9.40166745,14.9950007 9.245,14.845 C9.08833255,14.6949993 8.8400017,14.62 8.5,14.62 C8.0466644,14.62 7.620002,14.7399988 7.22,14.98 C7.086666,15.0600004 6.95500065,15.0816668 6.825,15.045 C6.69499935,15.0083332 6.5900004,14.923334 6.51,14.79 C6.4366663,14.6633327 6.40833325,14.5316673 6.425,14.395 C6.44166675,14.2583326 6.516666,14.1466671 6.65,14.06 C6.8900012,13.8999992 7.17166505,13.7716672 7.495,13.675 C7.81833495,13.5783329 8.1566649,13.53 8.51,13.53 Z M12.78,11.54 C12.9466675,11.54 13.0933327,11.5833329 13.22,11.67 C13.3466673,11.7566671 13.41,11.8899991 13.41,12.07 L13.41,14.19 C13.4966671,14.0633327 13.6049993,13.9566671 13.735,13.87 C13.8650006,13.7833329 13.9983327,13.7150002 14.135,13.665 C14.2716674,13.6149997 14.4083326,13.5800001 14.545,13.56 C14.6816673,13.5399999 14.8066661,13.53 14.92,13.53 C15.6466703,13.53 16.1866649,13.7516644 16.54,14.195 C16.8933351,14.6383356 17.07,15.2899957 17.07,16.15 L17.07,16.41 C17.07,16.8433355 17.0166672,17.2249983 16.91,17.555 C16.8033328,17.8850016 16.6533343,18.1599989 16.46,18.38 C16.2666657,18.6000011 16.0350014,18.7649994 15.765,18.875 C15.4949986,18.9850006 15.193335,19.04 14.86,19.04 C14.4933315,19.04 14.1866679,18.973334 13.94,18.84 C13.6933321,18.706666 13.5066673,18.5333344 13.38,18.32 L13.35,18.32 L13.35,18.51 C13.35,18.6833342 13.288334,18.8116663 13.165,18.895 C13.041666,18.9783338 12.9033341,19.02 12.75,19.02 C12.5966659,19.02 12.458334,18.9783338 12.335,18.895 C12.2116661,18.8116663 12.15,18.6833342 12.15,18.51 L12.15,12.07 C12.15,11.8899991 12.2149994,11.7566671 12.345,11.67 C12.4750007,11.5833329 12.6199992,11.54 12.78,11.54 Z M14.67,14.61 C14.2499979,14.61 13.9316678,14.7316654 13.715,14.975 C13.4983323,15.2183345 13.39,15.5299981 13.39,15.91 L13.39,16.84 C13.39,16.9800007 13.423333,17.116666 13.49,17.25 C13.556667,17.383334 13.6466661,17.5033328 13.76,17.61 C13.8733339,17.7166672 14.0099992,17.803333 14.17,17.87 C14.3300008,17.936667 14.5066657,17.97 14.7,17.97 C15.4466704,17.97 15.82,17.4400053 15.82,16.38 L15.82,16.18 C15.82,15.6599974 15.7333342,15.2683346 15.56,15.005 C15.3866658,14.7416653 15.0900021,14.61 14.67,14.61 Z" id="Tab"></path>
                <path d="M7.41421356,3 L6.29289322,1.87867966 C5.90236893,1.48815536 5.90236893,0.854990386 6.29289322,0.464466094 C6.68341751,0.0739418023 7.31658249,0.0739418023 7.70710678,0.464466094 L10.5355339,3.29289322 C10.9260582,3.68341751 10.9260582,4.31658249 10.5355339,4.70710678 L7.70710678,7.53553391 C7.31658249,7.9260582 6.68341751,7.9260582 6.29289322,7.53553391 C5.90236893,7.14500961 5.90236893,6.51184464 6.29289322,6.12132034 L7.41421356,5 L2,5 C1.44771525,5 1,4.55228475 1,4 C1,3.44771525 1.44771525,3 2,3 L7.41421356,3 Z M13,0 C13.5522847,-1.01453063e-16 14,0.44771525 14,1 L14,7 C14,7.55228475 13.5522847,8 13,8 C12.4477153,8 12,7.55228475 12,7 L12,1 C12,0.44771525 12.4477153,1.01453063e-16 13,0 Z" id="Shape"></path>
            </g>
            <path d="M67,11.18 C67,10.787998 67.0599994,10.4240017 67.18,10.088 C67.3000006,9.75199832 67.4759988,9.46200122 67.708,9.218 C67.9400012,8.97399878 68.2319982,8.78400068 68.584,8.648 C68.9360018,8.51199932 69.3439977,8.444 69.808,8.444 C70.2720023,8.444 70.6799982,8.51199932 71.032,8.648 C71.3840018,8.78400068 71.6759988,8.97399878 71.908,9.218 C72.1400012,9.46200122 72.3159994,9.75199832 72.436,10.088 C72.5560006,10.4240017 72.616,10.787998 72.616,11.18 C72.616,11.580002 72.5560006,11.9459983 72.436,12.278 C72.3159994,12.6100017 72.1400012,12.8979988 71.908,13.142 C71.6759988,13.3860012 71.3840018,13.5759993 71.032,13.712 C70.6799982,13.8480007 70.2720023,13.916 69.808,13.916 C69.3439977,13.916 68.9360018,13.8480007 68.584,13.712 C68.2319982,13.5759993 67.9400012,13.3860012 67.708,13.142 C67.4759988,12.8979988 67.3000006,12.6100017 67.18,12.278 C67.0599994,11.9459983 67,11.580002 67,11.18 Z M71.152,11.18 C71.152,10.979999 71.1280002,10.7900009 71.08,10.61 C71.0319998,10.4299991 70.9540005,10.2740007 70.846,10.142 C70.7379995,10.0099993 70.6000008,9.90600038 70.432,9.83 C70.2639992,9.75399962 70.0560012,9.716 69.808,9.716 C69.5599988,9.716 69.3520008,9.75399962 69.184,9.83 C69.0159992,9.90600038 68.8780005,10.0099993 68.77,10.142 C68.6619995,10.2740007 68.5840002,10.4299991 68.536,10.61 C68.4879998,10.7900009 68.464,10.979999 68.464,11.18 C68.464,11.388001 68.4879998,11.5799991 68.536,11.756 C68.5840002,11.9320009 68.6619995,12.0859993 68.77,12.218 C68.8780005,12.3500007 69.0159992,12.4539996 69.184,12.53 C69.3520008,12.6060004 69.5599988,12.644 69.808,12.644 C70.0560012,12.644 70.2639992,12.6060004 70.432,12.53 C70.6000008,12.4539996 70.7379995,12.3500007 70.846,12.218 C70.9540005,12.0859993 71.0319998,11.9320009 71.08,11.756 C71.1280002,11.5799991 71.152,11.388001 71.152,11.18 Z M75.976,13.964 C75.976,14.1880011 75.8980008,14.3519995 75.742,14.456 C75.5859992,14.5600005 75.412001,14.612 75.22,14.612 C75.027999,14.612 74.8540008,14.5600005 74.698,14.456 C74.5419992,14.3519995 74.464,14.1880011 74.464,13.964 L74.464,12.944 L73.408,12.944 C73.2239991,12.944 73.0900004,12.8800006 73.006,12.752 C72.9219996,12.6239994 72.88,12.4680009 72.88,12.284 C72.88,12.1079991 72.9219996,11.9560006 73.006,11.828 C73.0900004,11.6999994 73.2239991,11.636 73.408,11.636 L74.464,11.636 L74.464,10.784 L73.408,10.784 C73.2239991,10.784 73.0900004,10.7200006 73.006,10.592 C72.9219996,10.4639994 72.88,10.3080009 72.88,10.124 C72.88,9.94799912 72.9219996,9.79600064 73.006,9.668 C73.0900004,9.53999936 73.2239991,9.476 73.408,9.476 L74.464,9.476 L74.464,8.648 C74.464,8.42399888 74.5419992,8.26000052 74.698,8.156 C74.8540008,8.05199948 75.027999,8 75.22,8 C75.412001,8 75.5859992,8.05199948 75.742,8.156 C75.8980008,8.26000052 75.976,8.42399888 75.976,8.648 L75.976,13.964 Z M68.764,17.012 C68.764,16.2359961 69.0859968,15.6540019 69.73,15.266 C70.3740032,14.8779981 71.2599944,14.684 72.388,14.684 C73.5160056,14.684 74.4019968,14.8779981 75.046,15.266 C75.6900032,15.6540019 76.012,16.2359961 76.012,17.012 C76.012,17.7960039 75.6900032,18.3799981 75.046,18.764 C74.4019968,19.1480019 73.5160056,19.34 72.388,19.34 C71.2599944,19.34 70.3740032,19.1480019 69.73,18.764 C69.0859968,18.3799981 68.764,17.7960039 68.764,17.012 Z M74.488,17.012 C74.488,16.6839984 74.3260016,16.418001 74.002,16.214 C73.6779984,16.009999 73.1400038,15.908 72.388,15.908 C71.6279962,15.908 71.0880016,16.009999 70.768,16.214 C70.4479984,16.418001 70.288,16.6839984 70.288,17.012 C70.288,17.3400016 70.4479984,17.605999 70.768,17.81 C71.0880016,18.014001 71.6279962,18.116 72.388,18.116 C73.1400038,18.116 73.6779984,18.014001 74.002,17.81 C74.3260016,17.605999 74.488,17.3400016 74.488,17.012 Z" id="영" fill="#347DAF" fill-rule="nonzero"></path>
            <path d="M57.312,11.036 C58.1360041,11.036 58.7819977,11.2179982 59.25,11.582 C59.7180023,11.9460018 59.952,12.4439968 59.952,13.076 C59.952,13.7080032 59.7180023,14.2059982 59.25,14.57 C58.7819977,14.9340018 58.1360041,15.116 57.312,15.116 C56.4879959,15.116 55.8420023,14.9340018 55.374,14.57 C54.9059977,14.2059982 54.672,13.7080032 54.672,13.076 C54.672,12.4439968 54.9059977,11.9460018 55.374,11.582 C55.8420023,11.2179982 56.4879959,11.036 57.312,11.036 Z M54.54,10.532 C54.3559991,10.532 54.2200004,10.4680006 54.132,10.34 C54.0439996,10.2119994 54,10.0600009 54,9.884 C54,9.70799912 54.0439996,9.55600064 54.132,9.428 C54.2200004,9.29999936 54.3559991,9.236 54.54,9.236 L56.544,9.236 L56.544,8.648 C56.544,8.42399888 56.6219992,8.26000052 56.778,8.156 C56.9340008,8.05199948 57.111999,8 57.312,8 C57.512001,8 57.6899992,8.05199948 57.846,8.156 C58.0020008,8.26000052 58.08,8.42399888 58.08,8.648 L58.08,9.236 L59.964,9.236 C60.1480009,9.236 60.2839996,9.29999936 60.372,9.428 C60.4600004,9.55600064 60.504,9.70799912 60.504,9.884 C60.504,10.0600009 60.4600004,10.2119994 60.372,10.34 C60.2839996,10.4680006 60.1480009,10.532 59.964,10.532 L54.54,10.532 Z M57.312,13.94 C57.7440022,13.94 58.061999,13.8580008 58.266,13.694 C58.470001,13.5299992 58.572,13.3240012 58.572,13.076 C58.572,12.8279988 58.470001,12.6220008 58.266,12.458 C58.061999,12.2939992 57.7440022,12.212 57.312,12.212 C56.8799978,12.212 56.562001,12.2939992 56.358,12.458 C56.153999,12.6220008 56.052,12.8279988 56.052,13.076 C56.052,13.3240012 56.153999,13.5299992 56.358,13.694 C56.562001,13.8580008 56.8799978,13.94 57.312,13.94 Z M62.736,11.156 L63.876,11.156 C64.0600009,11.156 64.1959996,11.2199994 64.284,11.348 C64.3720004,11.4760006 64.416,11.6319991 64.416,11.816 C64.416,12.0000009 64.3720004,12.1559994 64.284,12.284 C64.1959996,12.4120006 64.0600009,12.476 63.876,12.476 L62.736,12.476 L62.736,15.68 C62.736,15.9040011 62.6580008,16.0679995 62.502,16.172 C62.3459992,16.2760005 62.172001,16.328 61.98,16.328 C61.779999,16.328 61.6020008,16.2760005 61.446,16.172 C61.2899992,16.0679995 61.212,15.9040011 61.212,15.68 L61.212,8.672 C61.212,8.44799888 61.2899992,8.28400052 61.446,8.18 C61.6020008,8.07599948 61.779999,8.024 61.98,8.024 C62.172001,8.024 62.3459992,8.07599948 62.502,8.18 C62.6580008,8.28400052 62.736,8.44799888 62.736,8.672 L62.736,11.156 Z M56.652,19.064 C56.2679981,19.064 56.0020007,18.9920007 55.854,18.848 C55.7059993,18.7039993 55.632,18.4440019 55.632,18.068 L55.632,16.256 C55.632,16.0319989 55.7099992,15.8680005 55.866,15.764 C56.0220008,15.6599995 56.203999,15.608 56.412,15.608 C56.612001,15.608 56.7899992,15.6599995 56.946,15.764 C57.1020008,15.8680005 57.18,16.0319989 57.18,16.256 L57.18,17.48 C57.18,17.6640009 57.2719991,17.756 57.456,17.756 L62.46,17.756 C62.6440009,17.756 62.7799996,17.8199994 62.868,17.948 C62.9560004,18.0760006 63,18.2319991 63,18.416 C63,18.5920009 62.9560004,18.7439994 62.868,18.872 C62.7799996,19.0000006 62.6440009,19.064 62.46,19.064 L56.652,19.064 Z" id="한" fill="#347DAF" fill-rule="nonzero"></path>
            <g id="space" transform="translate(234.000000, 10.000000)" fill-rule="nonzero">
                <path d="M3.79,7.3 C3.6166658,7.4933343 3.3866681,7.65166605 3.1,7.775 C2.8133319,7.89833395 2.5200015,7.9733332 2.22,8 C2.0599992,8.0200001 1.87833435,8.0233334 1.675,8.01 C1.47166565,7.9966666 1.2733343,7.97500015 1.08,7.945 C0.8866657,7.91499985 0.7100008,7.88166685 0.55,7.845 C0.3899992,7.80833315 0.2700004,7.7733335 0.19,7.74 C0.1166663,7.7066665 0.0700001,7.67500015 0.05,7.645 C0.0299999,7.61499985 0.0266666,7.5600004 0.04,7.48 L0.14,6.51 C0.1466667,6.443333 0.16166655,6.4033334 0.185,6.39 C0.20833345,6.3766666 0.2599996,6.3866665 0.34,6.42 C0.4666673,6.4733336 0.61166585,6.52166645 0.775,6.565 C0.93833415,6.60833355 1.10499915,6.64166655 1.275,6.665 C1.44500085,6.68833345 1.61166585,6.7033333 1.775,6.71 C1.93833415,6.7166667 2.086666,6.7033335 2.22,6.67 C2.5000014,6.603333 2.6999994,6.4933341 2.82,6.34 C2.9400006,6.1866659 3,5.9666681 3,5.68 C3,5.6199997 2.9866668,5.5500004 2.96,5.47 C2.9333332,5.3899996 2.8833337,5.30166715 2.81,5.205 C2.7366663,5.10833285 2.63833395,5.0066672 2.515,4.9 C2.39166605,4.7933328 2.2333343,4.6800006 2.04,4.56 C1.6733315,4.3333322 1.36166795,4.1233343 1.105,3.93 C0.84833205,3.7366657 0.63833415,3.54500095 0.475,3.355 C0.31166585,3.16499905 0.19166705,2.970001 0.115,2.77 C0.03833295,2.569999 0,2.3500012 0,2.11 C0,1.8099985 0.06166605,1.53166795 0.185,1.275 C0.30833395,1.01833205 0.47833225,0.79500095 0.695,0.605 C0.91166775,0.41499905 1.1666652,0.2666672 1.46,0.16 C1.7533348,0.0533328 2.0699983,-8.17124146e-14 2.41,-8.17124146e-14 C2.7500017,-8.17124146e-14 3.04166545,0.02499975 3.285,0.075 C3.52833455,0.12500025 3.7299992,0.1866663 3.89,0.26 C3.9766671,0.3000002 4.02499995,0.3333332 4.035,0.36 C4.04500005,0.3866668 4.0433334,0.4366663 4.03,0.51 L3.84,1.36 C3.8266666,1.4200003 3.8033335,1.4566666 3.77,1.47 C3.7366665,1.4833334 3.6700005,1.4733335 3.57,1.44 C3.2566651,1.3399995 2.96833465,1.2800001 2.705,1.26 C2.44166535,1.2399999 2.2133343,1.263333 2.02,1.33 C1.8266657,1.396667 1.67500055,1.50166595 1.565,1.645 C1.45499945,1.78833405 1.4,1.9699989 1.4,2.19 C1.4,2.3500008 1.47166595,2.5133325 1.615,2.68 C1.75833405,2.8466675 1.9899984,3.0266657 2.31,3.22 C2.7166687,3.4733346 3.05499865,3.699999 3.325,3.9 C3.59500135,4.100001 3.8099992,4.29499905 3.97,4.485 C4.1300008,4.67500095 4.243333,4.86833235 4.31,5.065 C4.376667,5.26166765 4.41,5.4799988 4.41,5.72 C4.41,6.0400016 4.35500055,6.3299987 4.245,6.59 C4.13499945,6.8500013 3.9833343,7.0866656 3.79,7.3 Z M8.06,8.09 C7.8533323,8.09 7.64166775,8.0433338 7.425,7.95 C7.20833225,7.8566662 7.0200008,7.7133343 6.86,7.52 L6.86,9.23 C6.86,9.3033337 6.84833345,9.35499985 6.825,9.385 C6.80166655,9.41500015 6.7500004,9.43 6.67,9.43 L5.74,9.43 C5.6666663,9.43 5.6166668,9.41500015 5.59,9.385 C5.5633332,9.35499985 5.55,9.3033337 5.55,9.23 L5.55,2.45 C5.55,2.3566662 5.56833315,2.29500015 5.605,2.265 C5.64166685,2.23499985 5.6966663,2.22 5.77,2.22 L6.67,2.22 C6.7500004,2.22 6.80499985,2.23166655 6.835,2.255 C6.86500015,2.27833345 6.88,2.3266663 6.88,2.4 L6.88,2.79 C6.9400003,2.7099996 7.0166662,2.63166705 7.11,2.555 C7.2033338,2.47833295 7.3066661,2.41166695 7.42,2.355 C7.5333339,2.29833305 7.65499935,2.2533335 7.785,2.22 C7.91500065,2.1866665 8.0433327,2.17 8.17,2.17 C8.5100017,2.17 8.81499865,2.2399993 9.085,2.38 C9.35500135,2.5200007 9.5866657,2.7199987 9.78,2.98 C9.9733343,3.2400013 10.1216661,3.5533315 10.225,3.92 C10.3283338,4.2866685 10.38,4.6999977 10.38,5.16 C10.38,5.5933355 10.3266672,5.9899982 10.22,6.35 C10.1133328,6.7100018 9.960001,7.01833205 9.76,7.275 C9.559999,7.53166795 9.3166681,7.73166595 9.03,7.875 C8.7433319,8.01833405 8.4200018,8.09 8.06,8.09 Z M7.94,3.39 C7.7999993,3.39 7.66500065,3.42499965 7.535,3.495 C7.40499935,3.56500035 7.2900005,3.67166595 7.19,3.815 C7.0899995,3.95833405 7.00833365,4.1399989 6.945,4.36 C6.88166635,4.5800011 6.85,4.8399985 6.85,5.14 C6.85,5.4533349 6.87833305,5.7199989 6.935,5.94 C6.99166695,6.1600011 7.06833285,6.3399993 7.165,6.48 C7.26166715,6.6200007 7.376666,6.72166635 7.51,6.785 C7.643334,6.84833365 7.7866659,6.88 7.94,6.88 C8.273335,6.88 8.54166565,6.7400014 8.745,6.46 C8.94833435,6.1799986 9.05,5.740003 9.05,5.14 C9.05,4.5133302 8.9466677,4.06500135 8.74,3.795 C8.5333323,3.52499865 8.2666683,3.39 7.94,3.39 Z M14.64,7.87 C14.5799997,7.87 14.5416667,7.8633334 14.525,7.85 C14.5083332,7.8366666 14.5,7.796667 14.5,7.73 L14.5,7.3 C14.3866661,7.4800009 14.201668,7.6333327 13.945,7.76 C13.688332,7.8866673 13.4333346,7.95 13.18,7.95 C12.9066653,7.95 12.6433346,7.91166705 12.39,7.835 C12.1366654,7.75833295 11.9283341,7.63833415 11.765,7.475 C11.6016658,7.31166585 11.4733338,7.11500115 11.38,6.885 C11.2866662,6.65499885 11.24,6.3933348 11.24,6.1 C11.24,5.7533316 11.3233325,5.4400014 11.49,5.16 C11.6566675,4.8799986 11.8783319,4.66166745 12.155,4.505 C12.431668,4.34833255 12.7599981,4.23500035 13.14,4.165 C13.5200019,4.09499965 13.9399977,4.0733332 14.4,4.1 C14.3599998,3.5733307 14.1333354,3.2833336 13.72,3.23 C13.586666,3.2166666 13.4516673,3.2199999 13.315,3.24 C13.1783326,3.2600001 13.0450006,3.29166645 12.915,3.335 C12.7849993,3.37833355 12.6600006,3.42833305 12.54,3.485 C12.4199994,3.54166695 12.3133338,3.5999997 12.22,3.66 C12.0799993,3.7533338 11.9800003,3.8 11.92,3.8 C11.8599997,3.8 11.83,3.733334 11.83,3.6 L11.83,2.77 C11.83,2.6833329 11.8383332,2.62166685 11.855,2.585 C11.8716667,2.54833315 11.9199996,2.5100002 12,2.47 C12.200001,2.3699995 12.4349986,2.2766671 12.705,2.19 C12.9750013,2.1033329 13.2933315,2.06 13.66,2.06 C14.3400034,2.06 14.8483316,2.2333316 15.185,2.58 C15.5216683,2.9266684 15.69,3.4633297 15.69,4.19 L15.69,6.755 C15.69,6.85833385 15.6916667,6.9633328 15.695,7.07 C15.6983333,7.1766672 15.7016666,7.27833285 15.705,7.375 C15.7083333,7.47166715 15.7133333,7.5566663 15.72,7.63 C15.7333334,7.763334 15.7266668,7.8366666 15.7,7.85 C15.6733332,7.8633334 15.626667,7.87 15.56,7.87 L14.64,7.87 Z M14.5,5.11 C14.1199981,5.1166667 13.8066679,5.14499975 13.56,5.195 C13.3133321,5.24500025 13.1150007,5.3133329 12.965,5.4 C12.8149992,5.4866671 12.7133336,5.5899994 12.66,5.71 C12.6066664,5.8300006 12.58,5.9633326 12.58,6.11 C12.58,6.3233344 12.6433327,6.48833275 12.77,6.605 C12.8966673,6.72166725 13.0733322,6.78 13.3,6.78 C13.6600018,6.78 13.9483322,6.64833465 14.165,6.385 C14.3816677,6.12166535 14.4933333,5.6966696 14.5,5.11 Z M20.84,7.81 C20.7666663,7.8433335 20.6750005,7.8733332 20.565,7.9 C20.4549994,7.9266668 20.3350006,7.94833325 20.205,7.965 C20.0749993,7.98166675 19.9400007,7.99166665 19.8,7.995 C19.6599993,7.99833335 19.5266673,7.9933334 19.4,7.98 C18.9799979,7.9466665 18.6083349,7.8500008 18.285,7.69 C17.961665,7.5299992 17.6900011,7.32166795 17.47,7.065 C17.2499989,6.80833205 17.0833339,6.5066684 16.97,6.16 C16.8566661,5.8133316 16.8,5.4366687 16.8,5.03 C16.8,4.6033312 16.866666,4.2100018 17,3.85 C17.133334,3.4899982 17.3216654,3.1800013 17.565,2.92 C17.8083345,2.6599987 18.1016649,2.45833405 18.445,2.315 C18.788335,2.17166595 19.1699979,2.1 19.59,2.1 C19.7833343,2.1 19.9949988,2.1133332 20.225,2.14 C20.4550011,2.1666668 20.6666657,2.213333 20.86,2.28 C20.9200003,2.3000001 20.9549999,2.3233332 20.965,2.35 C20.975,2.3766668 20.9766667,2.4266663 20.97,2.5 L20.87,3.27 C20.8566666,3.3500004 20.8350001,3.4033332 20.805,3.43 C20.7749998,3.4566668 20.7100005,3.4533335 20.61,3.42 C20.4699993,3.3666664 20.300001,3.32833345 20.1,3.305 C19.899999,3.28166655 19.7233341,3.2733333 19.57,3.28 C19.1099977,3.2933334 18.7550012,3.45833175 18.505,3.775 C18.2549987,4.09166825 18.13,4.5099974 18.13,5.03 C18.13,5.5300025 18.2483321,5.9333318 18.485,6.24 C18.7216678,6.5466682 19.0533312,6.7233331 19.48,6.77 C19.6933344,6.8033335 19.9049989,6.80833345 20.115,6.785 C20.325001,6.76166655 20.5099992,6.7233336 20.67,6.67 C20.7766672,6.6366665 20.8416665,6.62833325 20.865,6.645 C20.8883335,6.66166675 20.9033333,6.7066663 20.91,6.78 L20.97,7.55 C20.9766667,7.6300004 20.9716667,7.68499985 20.955,7.715 C20.9383332,7.74500015 20.9000003,7.7766665 20.84,7.81 Z M26.31,5.24 C26.3033333,5.3200004 26.2850001,5.38166645 26.255,5.425 C26.2249998,5.46833355 26.1700004,5.49 26.09,5.49 L22.96,5.49 C23.0066669,5.9366689 23.1483321,6.2666656 23.385,6.48 C23.6216678,6.6933344 23.9033317,6.8066666 24.23,6.82 C24.5366682,6.8333334 24.8049989,6.8033337 25.035,6.73 C25.2650011,6.6566663 25.4866656,6.553334 25.7,6.42 C25.7933338,6.3599997 25.8566665,6.3433332 25.89,6.37 C25.9233335,6.3966668 25.94,6.4666661 25.94,6.58 L25.94,7.33 C25.94,7.4033337 25.9316667,7.4533332 25.915,7.48 C25.8983332,7.5066668 25.8600003,7.5433331 25.8,7.59 C25.6066657,7.723334 25.3616681,7.823333 25.065,7.89 C24.7683318,7.956667 24.4766681,7.99 24.19,7.99 C23.389996,7.99 22.7583356,7.7333359 22.295,7.22 C21.8316643,6.7066641 21.6,5.9766714 21.6,5.03 C21.6,4.6766649 21.6466662,4.3233351 21.74,3.97 C21.8333338,3.6166649 21.9833323,3.29833475 22.19,3.015 C22.3966677,2.73166525 22.6499985,2.50166755 22.95,2.325 C23.2500015,2.14833245 23.6066646,2.06 24.02,2.06 C24.4400021,2.06 24.7949985,2.1366659 25.085,2.29 C25.3750014,2.4433341 25.6116657,2.6499987 25.795,2.91 C25.9783342,3.1700013 26.1099996,3.47166495 26.19,3.815 C26.2700004,4.15833505 26.31,4.5233314 26.31,4.91 L26.31,5.24 Z M24.05,3.22 C23.9099993,3.22 23.7800006,3.253333 23.66,3.32 C23.5399994,3.386667 23.4350004,3.4733328 23.345,3.58 C23.2549995,3.6866672 23.176667,3.8099993 23.11,3.95 C23.043333,4.0900007 23.0000001,4.2366659 22.98,4.39 L25.01,4.39 C25.01,4.256666 24.9883335,4.1200007 24.945,3.98 C24.9016664,3.8399993 24.841667,3.71500055 24.765,3.605 C24.6883329,3.49499945 24.5900006,3.4033337 24.47,3.33 C24.3499994,3.2566663 24.2100008,3.22 24.05,3.22 Z" id="Space" fill="#333333"></path>
                <path d="M48.39,7.3 C48.39,7.85228475 47.9422847,8.3 47.39,8.3 L37.39,8.3 C36.8377153,8.3 36.39,7.85228475 36.39,7.3 L36.39,3.3 C36.39,2.74771525 36.8377153,2.3 37.39,2.3 C37.9422847,2.3 38.39,2.74771525 38.39,3.3 L38.39,6.3 L46.39,6.3 L46.39,3.3 C46.39,2.74771525 46.8377153,2.3 47.39,2.3 C47.9422847,2.3 48.39,2.74771525 48.39,3.3 L48.39,7.3 Z" id="Path" fill="#347DAF"></path>
            </g>
            <g id="shift-right" transform="translate(182.000000, 3.000000)" fill="#347DAF" fill-rule="nonzero">
                <path d="M2.59529419,13.5684271 C3.31529779,13.5684271 3.91862509,13.6917592 4.40529419,13.9384271 C4.55196159,14.0117608 4.64529399,14.1217597 4.68529419,14.2684271 C4.72529439,14.4150945 4.70529459,14.5617597 4.62529419,14.7084271 C4.54529379,14.8617612 4.44196149,14.9567603 4.31529419,14.9934271 C4.18862689,15.030094 4.05529489,15.0184274 3.91529419,14.9584271 C3.70195979,14.8650933 3.49862849,14.800094 3.30529419,14.7634271 C3.11195989,14.7267603 2.88196219,14.7084271 2.61529419,14.7084271 C2.39529309,14.7084271 2.20362834,14.7334269 2.04029419,14.7834271 C1.87696004,14.8334274 1.73862809,14.9000934 1.62529419,14.9834271 C1.51196029,15.0667609 1.42696114,15.1600933 1.37029419,15.2634271 C1.31362724,15.366761 1.28529419,15.4717599 1.28529419,15.5784271 L1.28529419,15.6384271 C1.28529419,15.7650944 1.30696064,15.8750933 1.35029419,15.9684271 C1.39362774,16.0617609 1.47029364,16.1467601 1.58029419,16.2234271 C1.69029474,16.3000942 1.84195989,16.3700935 2.03529419,16.4334271 C2.22862849,16.4967608 2.47862599,16.5584268 2.78529419,16.6184271 C3.61863169,16.7917613 4.21529239,17.0484254 4.57529419,17.3884271 C4.93529599,17.7284288 5.11529419,18.1650911 5.11529419,18.6984271 L5.11529419,18.7884271 C5.11529419,19.4750972 4.89196309,19.9984253 4.44529419,20.3584271 C3.99862529,20.7184289 3.33863189,20.8984271 2.46529419,20.8984271 C2.05195879,20.8984271 1.65029614,20.846761 1.26029419,20.7434271 C0.870292239,20.6400933 0.541962189,20.5050946 0.275294189,20.3384271 C0.115293389,20.2384266 0.0252942895,20.1100946 0.00529418946,19.9534271 C-0.0147059105,19.7967597 0.0219603895,19.6484278 0.115294189,19.5084271 C0.208627989,19.3617597 0.321960189,19.2717606 0.455294189,19.2384271 C0.588628189,19.2050936 0.731960089,19.23176 0.885294189,19.3184271 C1.11862869,19.4517611 1.37529279,19.5567601 1.65529419,19.6334271 C1.93529559,19.7100942 2.22529269,19.7484271 2.52529419,19.7484271 C2.98529649,19.7484271 3.31862649,19.6667613 3.52529419,19.5034271 C3.73196189,19.340093 3.83529419,19.135095 3.83529419,18.8884271 L3.83529419,18.8184271 C3.83529419,18.5384257 3.72696194,18.3200946 3.51029419,18.1634271 C3.29362644,18.0067597 2.94529659,17.8817609 2.46529419,17.7884271 C2.04529209,17.7084267 1.68196239,17.6150943 1.37529419,17.5084271 C1.06862599,17.4017599 0.813628539,17.2667613 0.610294189,17.1034271 C0.406959839,16.940093 0.256961339,16.7434283 0.160294189,16.5134271 C0.0636270395,16.283426 0.0152941895,16.0017621 0.0152941895,15.6684271 L0.0152941895,15.5984271 C0.0152941895,15.3184257 0.0702936395,15.055095 0.180294189,14.8084271 C0.290294739,14.5617592 0.455293089,14.3467614 0.675294189,14.1634271 C0.895295289,13.9800929 1.16529259,13.8350943 1.48529419,13.7284271 C1.80529579,13.6217599 2.17529209,13.5684271 2.59529419,13.5684271 Z M6.99529419,13.3684271 C7.14862829,13.3684271 7.28696024,13.4100934 7.41029419,13.4934271 C7.53362814,13.5767609 7.59529419,13.7050929 7.59529419,13.8784271 L7.59529419,16.1084271 L7.61529419,16.1084271 C7.69529459,15.9817598 7.79529359,15.8700943 7.91529419,15.7734271 C8.03529479,15.67676 8.16696014,15.5984274 8.31029419,15.5384271 C8.45362824,15.4784268 8.60529339,15.4334273 8.76529419,15.4034271 C8.92529499,15.373427 9.08196009,15.3584271 9.23529419,15.3584271 C9.82196379,15.3584271 10.2886258,15.5300921 10.6352942,15.8734271 C10.9819626,16.2167622 11.1552942,16.7250904 11.1552942,17.3984271 L11.1552942,20.3184271 C11.1552942,20.498428 11.0919615,20.63176 10.9652942,20.7184271 C10.8386269,20.8050942 10.6919617,20.8484271 10.5252942,20.8484271 C10.3652934,20.8484271 10.2202948,20.8050942 10.0902942,20.7184271 C9.96029354,20.63176 9.89529419,20.498428 9.89529419,20.3184271 L9.89529419,17.6684271 C9.89529419,17.4284259 9.86862779,17.2300946 9.81529419,17.0734271 C9.76196059,16.9167597 9.68862799,16.7934276 9.59529419,16.7034271 C9.50196039,16.6134267 9.39029484,16.550094 9.26029419,16.5134271 C9.13029354,16.4767603 8.99196159,16.4584271 8.84529419,16.4584271 C8.71862689,16.4584271 8.58529489,16.4784269 8.44529419,16.5184271 C8.30529349,16.5584273 8.17696144,16.6284266 8.06029419,16.7284271 C7.94362694,16.8284276 7.84696124,16.9617596 7.77029419,17.1284271 C7.69362714,17.2950946 7.65529419,17.5017592 7.65529419,17.7484271 L7.65529419,20.3184271 C7.65529419,20.498428 7.59196149,20.63176 7.46529419,20.7184271 C7.33862689,20.8050942 7.19196169,20.8484271 7.02529419,20.8484271 C6.86529339,20.8484271 6.72029484,20.8050942 6.59029419,20.7184271 C6.46029354,20.63176 6.39529419,20.498428 6.39529419,20.3184271 L6.39529419,13.8784271 C6.39529419,13.7050929 6.45696024,13.5767609 6.58029419,13.4934271 C6.70362814,13.4100934 6.84196009,13.3684271 6.99529419,13.3684271 Z M13.2652942,15.4184271 C13.4319617,15.4184271 13.5786269,15.46176 13.7052942,15.5484271 C13.8319615,15.6350942 13.8952942,15.7684262 13.8952942,15.9484271 L13.8952942,20.3184271 C13.8952942,20.498428 13.8319615,20.63176 13.7052942,20.7184271 C13.5786269,20.8050942 13.4319617,20.8484271 13.2652942,20.8484271 C13.1052934,20.8484271 12.9602948,20.8050942 12.8302942,20.7184271 C12.7002935,20.63176 12.6352942,20.498428 12.6352942,20.3184271 L12.6352942,15.9484271 C12.6352942,15.7684262 12.7002935,15.6350942 12.8302942,15.5484271 C12.9602948,15.46176 13.1052934,15.4184271 13.2652942,15.4184271 Z M13.2652942,13.3484271 C13.4852953,13.3484271 13.6719601,13.4217597 13.8252942,13.5684271 C13.9786283,13.7150945 14.0552942,13.8950927 14.0552942,14.1084271 C14.0552942,14.3217615 13.9786283,14.5017597 13.8252942,14.6484271 C13.6719601,14.7950945 13.4852953,14.8684271 13.2652942,14.8684271 C13.0452931,14.8684271 12.8586283,14.7950945 12.7052942,14.6484271 C12.5519601,14.5017597 12.4752942,14.3217615 12.4752942,14.1084271 C12.4752942,13.8950927 12.5519601,13.7150945 12.7052942,13.5684271 C12.8586283,13.4217597 13.0452931,13.3484271 13.2652942,13.3484271 Z M17.5852942,13.3684271 C17.8319621,13.3684271 18.0586265,13.4017601 18.2652942,13.4684271 C18.3986282,13.515094 18.4969605,13.5850933 18.5602942,13.6784271 C18.6236278,13.7717609 18.6386277,13.8984263 18.6052942,14.0584271 C18.5719607,14.2117612 18.5152946,14.3267601 18.4352942,14.4034271 C18.3552938,14.4800942 18.2419616,14.5050939 18.0952942,14.4784271 C18.0152938,14.4650937 17.9469611,14.4550938 17.8902942,14.4484271 C17.8336272,14.4417604 17.7719612,14.4384271 17.7052942,14.4384271 C17.4719597,14.4384271 17.303628,14.4967599 17.2002942,14.6134271 C17.0969603,14.7300944 17.0452942,14.9017593 17.0452942,15.1284271 L17.0452942,15.4784271 L18.0652942,15.4784271 C18.2186283,15.4784271 18.3302938,15.5300933 18.4002942,15.6334271 C18.4702945,15.736761 18.5052942,15.8584264 18.5052942,15.9984271 C18.5052942,16.1384278 18.4702945,16.2600933 18.4002942,16.3634271 C18.3302938,16.466761 18.2186283,16.5184271 18.0652942,16.5184271 L17.0452942,16.5184271 L17.0452942,20.3184271 C17.0452942,20.498428 16.9819615,20.63176 16.8552942,20.7184271 C16.7286269,20.8050942 16.5819617,20.8484271 16.4152942,20.8484271 C16.2552934,20.8484271 16.1102948,20.8050942 15.9802942,20.7184271 C15.8502935,20.63176 15.7852942,20.498428 15.7852942,20.3184271 L15.7852942,16.5184271 L15.2752942,16.5184271 C15.1219601,16.5184271 15.0102945,16.466761 14.9402942,16.3634271 C14.8702938,16.2600933 14.8352942,16.1384278 14.8352942,15.9984271 C14.8352942,15.8584264 14.8702938,15.736761 14.9402942,15.6334271 C15.0102945,15.5300933 15.1219601,15.4784271 15.2752942,15.4784271 L15.7852942,15.4784271 L15.7852942,15.0984271 C15.7852942,14.545091 15.933626,14.1184286 16.2302942,13.8184271 C16.5269623,13.5184256 16.9786245,13.3684271 17.5852942,13.3684271 Z M20.4652942,14.0084271 C20.6319617,14.0084271 20.7786269,14.05176 20.9052942,14.1384271 C21.0319615,14.2250942 21.0952942,14.3617595 21.0952942,14.5484271 L21.0952942,15.4784271 L22.1452942,15.4784271 C22.2986283,15.4784271 22.4102938,15.5300933 22.4802942,15.6334271 C22.5502945,15.736761 22.5852942,15.8584264 22.5852942,15.9984271 C22.5852942,16.1384278 22.5502945,16.2600933 22.4802942,16.3634271 C22.4102938,16.466761 22.2986283,16.5184271 22.1452942,16.5184271 L21.0952942,16.5184271 L21.0952942,19.1584271 C21.0952942,19.5850959 21.2586259,19.7984271 21.5852942,19.7984271 C21.7386283,19.7984271 21.8919601,19.7717607 22.0452942,19.7184271 C22.1519614,19.6850936 22.258627,19.6917602 22.3652942,19.7384271 C22.4719614,19.785094 22.5519606,19.8884263 22.6052942,20.0484271 C22.6519611,20.1884278 22.6536277,20.3184265 22.6102942,20.4384271 C22.5669606,20.5584277 22.4819615,20.6450935 22.3552942,20.6984271 C22.2352936,20.7517607 22.0986283,20.793427 21.9452942,20.8234271 C21.7919601,20.8534273 21.635295,20.8684271 21.4752942,20.8684271 C20.8819579,20.8684271 20.4602954,20.7200953 20.2102942,20.4234271 C19.9602929,20.126759 19.8352942,19.6850967 19.8352942,19.0984271 L19.8352942,16.5184271 L19.3352942,16.5184271 C19.1819601,16.5184271 19.0702945,16.466761 19.0002942,16.3634271 C18.9302938,16.2600933 18.8952942,16.1384278 18.8952942,15.9984271 C18.8952942,15.8584264 18.9302938,15.736761 19.0002942,15.6334271 C19.0702945,15.5300933 19.1819601,15.4784271 19.3352942,15.4784271 L19.8352942,15.4784271 L19.8352942,14.5484271 C19.8352942,14.3617595 19.8986269,14.2250942 20.0252942,14.1384271 C20.1519615,14.05176 20.2986267,14.0084271 20.4652942,14.0084271 Z" id="Shift"></path>
                <path d="M46.5395082,4.82842723 L45.4181878,3.70710689 C45.0276635,3.3165826 45.0276635,2.68341762 45.4181878,2.29289333 C45.8087121,1.90236904 46.4418771,1.90236904 46.8324014,2.29289333 L49.6608285,5.12132045 C50.0513528,5.51184475 50.0513528,6.14500972 49.6608285,6.53553402 L46.8324014,9.36396114 C46.4418771,9.75448543 45.8087121,9.75448543 45.4181878,9.36396114 C45.0276635,8.97343685 45.0276635,8.34027187 45.4181878,7.94974758 L46.5395082,6.82842723 L41.1252946,6.82842723 C40.5730098,6.82842723 40.1252946,6.38071198 40.1252946,5.82842723 C40.1252946,5.27614248 40.5730098,4.82842723 41.1252946,4.82842723 L46.5395082,4.82842723 Z" id="shift" transform="translate(45.039508, 5.828427) rotate(-90.000000) translate(-45.039508, -5.828427) "></path>
            </g>
            <g id="shift-left" transform="translate(130.000000, 4.000000)" fill="#347DAF" fill-rule="nonzero">
                <path d="M28.97,12.74 C29.6900036,12.74 30.2933309,12.8633321 30.78,13.11 C30.9266674,13.1833337 31.0199998,13.2933326 31.06,13.44 C31.1000002,13.5866674 31.0800004,13.7333326 31,13.88 C30.9199996,14.0333341 30.8166673,14.1283331 30.69,14.165 C30.5633327,14.2016668 30.4300007,14.1900003 30.29,14.13 C30.0766656,14.0366662 29.8733343,13.9716669 29.68,13.935 C29.4866657,13.8983331 29.256668,13.88 28.99,13.88 C28.7699989,13.88 28.5783342,13.9049997 28.415,13.955 C28.2516659,14.0050003 28.1133339,14.0716663 28,14.155 C27.8866661,14.2383338 27.801667,14.3316662 27.745,14.435 C27.6883331,14.5383338 27.66,14.6433328 27.66,14.75 L27.66,14.81 C27.66,14.9366673 27.6816665,15.0466662 27.725,15.14 C27.7683336,15.2333338 27.8449995,15.318333 27.955,15.395 C28.0650006,15.4716671 28.2166657,15.5416663 28.41,15.605 C28.6033343,15.6683337 28.8533318,15.7299997 29.16,15.79 C29.9933375,15.9633342 30.5899982,16.2199983 30.95,16.56 C31.3100018,16.9000017 31.49,17.336664 31.49,17.87 L31.49,17.96 C31.49,18.6466701 31.2666689,19.1699982 30.82,19.53 C30.3733311,19.8900018 29.7133377,20.07 28.84,20.07 C28.4266646,20.07 28.025002,20.0183338 27.635,19.915 C27.2449981,19.8116662 26.916668,19.6766675 26.65,19.51 C26.4899992,19.4099995 26.4000001,19.2816675 26.38,19.125 C26.3599999,18.9683325 26.3966662,18.8200007 26.49,18.68 C26.5833338,18.5333326 26.696666,18.4433335 26.83,18.41 C26.963334,18.3766665 27.1066659,18.4033329 27.26,18.49 C27.4933345,18.623334 27.7499986,18.7283329 28.03,18.805 C28.3100014,18.8816671 28.5999985,18.92 28.9,18.92 C29.3600023,18.92 29.6933323,18.8383342 29.9,18.675 C30.1066677,18.5116658 30.21,18.3066679 30.21,18.06 L30.21,17.99 C30.21,17.7099986 30.1016678,17.4916675 29.885,17.335 C29.6683323,17.1783326 29.3200024,17.0533338 28.84,16.96 C28.4199979,16.8799996 28.0566682,16.7866672 27.75,16.68 C27.4433318,16.5733328 27.1883344,16.4383341 26.985,16.275 C26.7816657,16.1116659 26.6316672,15.9150012 26.535,15.685 C26.4383329,15.4549988 26.39,15.173335 26.39,14.84 L26.39,14.77 C26.39,14.4899986 26.4449995,14.2266679 26.555,13.98 C26.6650006,13.7333321 26.8299989,13.5183342 27.05,13.335 C27.2700011,13.1516657 27.5399984,13.0066672 27.86,12.9 C28.1800016,12.7933328 28.5499979,12.74 28.97,12.74 Z M33.37,12.54 C33.5233341,12.54 33.6616661,12.5816662 33.785,12.665 C33.9083339,12.7483337 33.97,12.8766658 33.97,13.05 L33.97,15.28 L33.99,15.28 C34.0700004,15.1533327 34.1699994,15.0416672 34.29,14.945 C34.4100006,14.8483329 34.5416659,14.7700003 34.685,14.71 C34.828334,14.6499997 34.9799992,14.6050002 35.14,14.575 C35.3000008,14.5449998 35.4566659,14.53 35.61,14.53 C36.1966696,14.53 36.6633316,14.701665 37.01,15.045 C37.3566684,15.3883351 37.53,15.8966633 37.53,16.57 L37.53,19.49 C37.53,19.6700009 37.4666673,19.8033329 37.34,19.89 C37.2133327,19.9766671 37.0666675,20.02 36.9,20.02 C36.7399992,20.02 36.5950007,19.9766671 36.465,19.89 C36.3349994,19.8033329 36.27,19.6700009 36.27,19.49 L36.27,16.84 C36.27,16.5999988 36.2433336,16.4016674 36.19,16.245 C36.1366664,16.0883326 36.0633338,15.9650004 35.97,15.875 C35.8766662,15.7849996 35.7650007,15.7216669 35.635,15.685 C35.5049994,15.6483331 35.3666674,15.63 35.22,15.63 C35.0933327,15.63 34.9600007,15.6499998 34.82,15.69 C34.6799993,15.7300002 34.5516673,15.7999995 34.435,15.9 C34.3183327,16.0000005 34.2216671,16.1333325 34.145,16.3 C34.0683329,16.4666675 34.03,16.6733321 34.03,16.92 L34.03,19.49 C34.03,19.6700009 33.9666673,19.8033329 33.84,19.89 C33.7133327,19.9766671 33.5666675,20.02 33.4,20.02 C33.2399992,20.02 33.0950007,19.9766671 32.965,19.89 C32.8349994,19.8033329 32.77,19.6700009 32.77,19.49 L32.77,13.05 C32.77,12.8766658 32.8316661,12.7483337 32.955,12.665 C33.078334,12.5816662 33.2166659,12.54 33.37,12.54 Z M39.64,14.59 C39.8066675,14.59 39.9533327,14.6333329 40.08,14.72 C40.2066673,14.8066671 40.27,14.9399991 40.27,15.12 L40.27,19.49 C40.27,19.6700009 40.2066673,19.8033329 40.08,19.89 C39.9533327,19.9766671 39.8066675,20.02 39.64,20.02 C39.4799992,20.02 39.3350006,19.9766671 39.205,19.89 C39.0749993,19.8033329 39.01,19.6700009 39.01,19.49 L39.01,15.12 C39.01,14.9399991 39.0749993,14.8066671 39.205,14.72 C39.3350006,14.6333329 39.4799992,14.59 39.64,14.59 Z M39.64,12.52 C39.8600011,12.52 40.0466659,12.5933326 40.2,12.74 C40.3533341,12.8866674 40.43,13.0666656 40.43,13.28 C40.43,13.4933344 40.3533341,13.6733326 40.2,13.82 C40.0466659,13.9666674 39.8600011,14.04 39.64,14.04 C39.4199989,14.04 39.2333341,13.9666674 39.08,13.82 C38.9266659,13.6733326 38.85,13.4933344 38.85,13.28 C38.85,13.0666656 38.9266659,12.8866674 39.08,12.74 C39.2333341,12.5933326 39.4199989,12.52 39.64,12.52 Z M43.96,12.54 C44.2066679,12.54 44.4333323,12.573333 44.64,12.64 C44.773334,12.6866669 44.8716664,12.7566662 44.935,12.85 C44.9983337,12.9433338 45.0133335,13.0699992 44.98,13.23 C44.9466665,13.3833341 44.8900004,13.498333 44.81,13.575 C44.7299996,13.6516671 44.6166674,13.6766668 44.47,13.65 C44.3899996,13.6366666 44.321667,13.6266667 44.265,13.62 C44.2083331,13.6133333 44.146667,13.61 44.08,13.61 C43.8466655,13.61 43.6783339,13.6683327 43.575,13.785 C43.4716662,13.9016673 43.42,14.0733322 43.42,14.3 L43.42,14.65 L44.44,14.65 C44.5933341,14.65 44.7049997,14.7016661 44.775,14.805 C44.8450004,14.9083339 44.88,15.0299993 44.88,15.17 C44.88,15.3100007 44.8450004,15.4316661 44.775,15.535 C44.7049997,15.6383338 44.5933341,15.69 44.44,15.69 L43.42,15.69 L43.42,19.49 C43.42,19.6700009 43.3566673,19.8033329 43.23,19.89 C43.1033327,19.9766671 42.9566675,20.02 42.79,20.02 C42.6299992,20.02 42.4850007,19.9766671 42.355,19.89 C42.2249994,19.8033329 42.16,19.6700009 42.16,19.49 L42.16,15.69 L41.65,15.69 C41.4966659,15.69 41.3850004,15.6383338 41.315,15.535 C41.2449997,15.4316661 41.21,15.3100007 41.21,15.17 C41.21,15.0299993 41.2449997,14.9083339 41.315,14.805 C41.3850004,14.7016661 41.4966659,14.65 41.65,14.65 L42.16,14.65 L42.16,14.27 C42.16,13.7166639 42.3083319,13.2900015 42.605,12.99 C42.9016682,12.6899985 43.3533303,12.54 43.96,12.54 Z M46.84,13.18 C47.0066675,13.18 47.1533327,13.2233329 47.28,13.31 C47.4066673,13.3966671 47.47,13.5333324 47.47,13.72 L47.47,14.65 L48.52,14.65 C48.6733341,14.65 48.7849997,14.7016661 48.855,14.805 C48.9250004,14.9083339 48.96,15.0299993 48.96,15.17 C48.96,15.3100007 48.9250004,15.4316661 48.855,15.535 C48.7849997,15.6383338 48.6733341,15.69 48.52,15.69 L47.47,15.69 L47.47,18.33 C47.47,18.7566688 47.6333317,18.97 47.96,18.97 C48.1133341,18.97 48.2666659,18.9433336 48.42,18.89 C48.5266672,18.8566665 48.6333328,18.8633331 48.74,18.91 C48.8466672,18.9566669 48.9266664,19.0599992 48.98,19.22 C49.0266669,19.3600007 49.0283335,19.4899994 48.985,19.61 C48.9416664,19.7300006 48.8566673,19.8166664 48.73,19.87 C48.6099994,19.9233336 48.4733341,19.9649998 48.32,19.995 C48.1666659,20.0250002 48.0100008,20.04 47.85,20.04 C47.2566637,20.04 46.8350013,19.8916682 46.585,19.595 C46.3349987,19.2983319 46.21,18.8566696 46.21,18.27 L46.21,15.69 L45.71,15.69 C45.5566659,15.69 45.4450004,15.6383338 45.375,15.535 C45.3049996,15.4316661 45.27,15.3100007 45.27,15.17 C45.27,15.0299993 45.3049996,14.9083339 45.375,14.805 C45.4450004,14.7016661 45.5566659,14.65 45.71,14.65 L46.21,14.65 L46.21,13.72 C46.21,13.5333324 46.2733327,13.3966671 46.4,13.31 C46.5266673,13.2233329 46.6733325,13.18 46.84,13.18 Z" id="Shift"></path>
                <path d="M5.414214,4.00000044 L4.29289366,2.8786801 C3.90236937,2.4881558 3.90236937,1.85499083 4.29289366,1.46446653 C4.68341795,1.07394224 5.31658293,1.07394224 5.70710722,1.46446653 L8.53553435,4.29289366 C8.92605864,4.68341795 8.92605864,5.31658293 8.53553435,5.70710722 L5.70710722,8.53553435 C5.31658293,8.92605864 4.68341795,8.92605864 4.29289366,8.53553435 C3.90236937,8.14501005 3.90236937,7.51184508 4.29289366,7.12132078 L5.414214,6.00000044 L4.36249996e-07,6.00000044 C-0.552284314,6.00000044 -0.999999564,5.55228519 -0.999999564,5.00000044 C-0.999999564,4.44771569 -0.552284314,4.00000044 4.36249996e-07,4.00000044 L5.414214,4.00000044 Z" id="shift" transform="translate(3.914214, 5.000000) rotate(-90.000000) translate(-3.914214, -5.000000) "></path>
            </g>
            <g id="return" transform="translate(78.000000, 4.000000)" fill="#347DAF" fill-rule="nonzero">
                <path d="M40.0968542,5 L46.69,5 L46.69,1 C46.69,0.44771525 47.1377153,1.16477725e-14 47.69,1.15463195e-14 C48.2422847,1.14448664e-14 48.69,0.44771525 48.69,1 L48.69,6 C48.69,6.55228475 48.2422847,7 47.69,7 C47.6189928,7 47.5497141,6.99259916 47.4828932,6.97852676 C47.4160724,6.99259916 47.3467937,7 47.2757864,7 L40.1115729,7 L41.2255339,8.11396103 C41.6160582,8.50448532 41.6160582,9.1376503 41.2255339,9.52817459 C40.8350096,9.91869888 40.2018446,9.91869888 39.8113203,9.52817459 L36.9828932,6.69974747 C36.5923689,6.30922318 36.5923689,5.6760582 36.9828932,5.28553391 L39.8113203,2.45710678 C40.2018446,2.06658249 40.8350096,2.06658249 41.2255339,2.45710678 C41.6160582,2.84763107 41.6160582,3.48079605 41.2255339,3.87132034 L40.0968542,5 Z" id="Path"></path>
                <path d="M5.07,12.85 C5.2233341,12.85 5.33499965,12.9016662 5.405,13.005 C5.47500035,13.1083338 5.51,13.2333326 5.51,13.38 C5.51,13.5200007 5.47500035,13.6433328 5.405,13.75 C5.33499965,13.8566672 5.2233341,13.91 5.07,13.91 L2.08,13.91 L2.08,15.8 L4.87,15.8 C5.0166674,15.8 5.12499965,15.8516661 5.195,15.955 C5.26500035,16.0583339 5.3,16.1799993 5.3,16.32 C5.3,16.4600007 5.26500035,16.5816662 5.195,16.685 C5.12499965,16.7883339 5.0166674,16.84 4.87,16.84 L2.08,16.84 L2.08,18.9 L5.14,18.9 C5.2933341,18.9 5.40499965,18.9533328 5.475,19.06 C5.54500035,19.1666672 5.58,19.2899993 5.58,19.43 C5.58,19.5766674 5.54500035,19.7016662 5.475,19.805 C5.40499965,19.9083338 5.2933341,19.96 5.14,19.96 L1.66,19.96 C1.3399984,19.96 1.11833395,19.9000006 0.995,19.78 C0.87166605,19.6599994 0.81,19.4433349 0.81,19.13 L0.81,13.68 C0.81,13.3666651 0.87166605,13.1500006 0.995,13.03 C1.11833395,12.9099994 1.3399984,12.85 1.66,12.85 L5.07,12.85 Z M9.67,14.53 C10.2566696,14.53 10.7233316,14.701665 11.07,15.045 C11.4166684,15.3883351 11.59,15.8966633 11.59,16.57 L11.59,19.49 C11.59,19.6700009 11.5266673,19.8033329 11.4,19.89 C11.2733327,19.9766671 11.1266675,20.02 10.96,20.02 C10.7999992,20.02 10.6550006,19.9766671 10.525,19.89 C10.3949993,19.8033329 10.33,19.6700009 10.33,19.49 L10.33,16.84 C10.33,16.5999988 10.3033336,16.4016674 10.25,16.245 C10.1966664,16.0883326 10.1233338,15.9650004 10.03,15.875 C9.9366662,15.7849996 9.82500065,15.7216669 9.695,15.685 C9.56499935,15.6483331 9.4266674,15.63 9.28,15.63 C9.1533327,15.63 9.0200007,15.6499998 8.88,15.69 C8.7399993,15.7300002 8.61166725,15.7999995 8.495,15.9 C8.37833275,16.0000005 8.28166705,16.1333325 8.205,16.3 C8.12833295,16.4666675 8.09,16.6733321 8.09,16.92 L8.09,19.49 C8.09,19.6700009 8.0266673,19.8033329 7.9,19.89 C7.7733327,19.9766671 7.6266675,20.02 7.46,20.02 C7.2999992,20.02 7.15500065,19.9766671 7.025,19.89 C6.89499935,19.8033329 6.83,19.6700009 6.83,19.49 L6.83,15.1 C6.83,14.9266658 6.89166605,14.7983337 7.015,14.715 C7.13833395,14.6316662 7.2766659,14.59 7.43,14.59 C7.5833341,14.59 7.72166605,14.6316662 7.845,14.715 C7.96833395,14.7983337 8.03,14.9266658 8.03,15.1 L8.03,15.28 L8.05,15.28 C8.1300004,15.1533327 8.2299994,15.0416672 8.35,14.945 C8.4700006,14.8483329 8.60166595,14.7700003 8.745,14.71 C8.88833405,14.6499997 9.0399992,14.6050002 9.2,14.575 C9.3600008,14.5449998 9.5166659,14.53 9.67,14.53 Z M14.02,13.18 C14.1866675,13.18 14.3333327,13.2233329 14.46,13.31 C14.5866673,13.3966671 14.65,13.5333324 14.65,13.72 L14.65,14.65 L15.7,14.65 C15.8533341,14.65 15.9649996,14.7016661 16.035,14.805 C16.1050004,14.9083339 16.14,15.0299993 16.14,15.17 C16.14,15.3100007 16.1050004,15.4316661 16.035,15.535 C15.9649996,15.6383338 15.8533341,15.69 15.7,15.69 L14.65,15.69 L14.65,18.33 C14.65,18.7566688 14.8133317,18.97 15.14,18.97 C15.2933341,18.97 15.4466659,18.9433336 15.6,18.89 C15.7066672,18.8566665 15.8133328,18.8633331 15.92,18.91 C16.0266672,18.9566669 16.1066664,19.0599992 16.16,19.22 C16.2066669,19.3600007 16.2083335,19.4899994 16.165,19.61 C16.1216664,19.7300006 16.0366673,19.8166664 15.91,19.87 C15.7899994,19.9233336 15.6533341,19.9649998 15.5,19.995 C15.3466659,20.0250002 15.1900008,20.04 15.03,20.04 C14.4366637,20.04 14.0150012,19.8916682 13.765,19.595 C13.5149988,19.2983319 13.39,18.8566696 13.39,18.27 L13.39,15.69 L12.89,15.69 C12.7366659,15.69 12.6250003,15.6383338 12.555,15.535 C12.4849996,15.4316661 12.45,15.3100007 12.45,15.17 C12.45,15.0299993 12.4849996,14.9083339 12.555,14.805 C12.6250003,14.7016661 12.7366659,14.65 12.89,14.65 L13.39,14.65 L13.39,13.72 C13.39,13.5333324 13.4533327,13.3966671 13.58,13.31 C13.7066673,13.2233329 13.8533325,13.18 14.02,13.18 Z M19.37,15.57 C18.9499979,15.57 18.635001,15.6799989 18.425,15.9 C18.2149989,16.1200011 18.11,16.3999983 18.11,16.74 L18.11,16.81 L20.59,16.81 L20.59,16.71 C20.59,16.3833317 20.4966676,16.1116678 20.31,15.895 C20.1233324,15.6783323 19.8100022,15.57 19.37,15.57 Z M19.39,14.53 C19.7500018,14.53 20.0766652,14.5833328 20.37,14.69 C20.6633348,14.7966672 20.9166656,14.949999 21.13,15.15 C21.3433344,15.350001 21.5083328,15.5966652 21.625,15.89 C21.7416672,16.1833348 21.8,16.5199981 21.8,16.9 L21.8,16.92 C21.8,17.2333349 21.7383339,17.4499994 21.615,17.57 C21.491666,17.6900006 21.2700016,17.75 20.95,17.75 L18.11,17.75 L18.11,17.77 C18.11,18.1300018 18.2216655,18.4233322 18.445,18.65 C18.6683344,18.8766678 19.0033311,18.99 19.45,18.99 C19.7300014,18.99 19.9749989,18.9683336 20.185,18.925 C20.395001,18.8816664 20.6099989,18.8100005 20.83,18.71 C20.963334,18.6499997 21.0933327,18.6416664 21.22,18.685 C21.3466673,18.7283336 21.4399997,18.8199993 21.5,18.96 C21.5600003,19.1000007 21.5733335,19.2349993 21.54,19.365 C21.5066665,19.4950007 21.423334,19.593333 21.29,19.66 C21.0366654,19.7866673 20.7600015,19.8816663 20.46,19.945 C20.1599985,20.0083337 19.8066687,20.04 19.4,20.04 C18.599996,20.04 17.9800022,19.8216689 17.54,19.385 C17.0999978,18.9483312 16.88,18.2933377 16.88,17.42 L16.88,17.16 C16.88,16.293329 17.1033311,15.6383356 17.55,15.195 C17.9966689,14.7516644 18.6099961,14.53 19.39,14.53 Z M25.66,14.53 C25.8933345,14.53 26.0733327,14.5666663 26.2,14.64 C26.3200006,14.706667 26.3999998,14.7933328 26.44,14.9 C26.4800002,15.0066672 26.4866668,15.1299993 26.46,15.27 C26.4266665,15.4566676 26.3516672,15.6016661 26.235,15.705 C26.1183328,15.8083339 25.9833341,15.8433335 25.83,15.81 C25.7433329,15.7966666 25.6600004,15.7800001 25.58,15.76 C25.4999996,15.7399999 25.4166671,15.73 25.33,15.73 C25.1766659,15.73 25.0350007,15.7599997 24.905,15.82 C24.7749993,15.8800003 24.6616671,15.9616661 24.565,16.065 C24.4683328,16.1683338 24.3916669,16.291666 24.335,16.435 C24.2783331,16.5783341 24.25,16.7333325 24.25,16.9 L24.25,19.49 C24.25,19.6700009 24.1866673,19.8033329 24.06,19.89 C23.9333327,19.9766671 23.7866675,20.02 23.62,20.02 C23.4599992,20.02 23.3150006,19.9766671 23.185,19.89 C23.0549993,19.8033329 22.99,19.6700009 22.99,19.49 L22.99,15.1 C22.99,14.9266658 23.051666,14.7983337 23.175,14.715 C23.2983339,14.6316662 23.4366659,14.59 23.59,14.59 C23.7500008,14.59 23.891666,14.6316662 24.015,14.715 C24.1383339,14.7983337 24.2,14.9266658 24.2,15.1 L24.2,15.45 L24.22,15.45 C24.3600007,15.1699986 24.5566654,14.9466675 24.81,14.78 C25.0633346,14.6133325 25.3466651,14.53 25.66,14.53 Z" id="Enter"></path>
            </g>
        </g>
    </g>
</svg>