<?xml version="1.0" encoding="UTF-8"?>
<svg width="11px" height="12px" viewBox="0 0 11 12" version="1.1" xmlns="http://www.w3.org/2000/svg" xmlns:xlink="http://www.w3.org/1999/xlink">
    <!-- Generator: Sketch 54.1 (76490) - https://sketchapp.com -->
    <title>한</title>
    <desc>Created with Sketch.</desc>
    <g id="Page-1" stroke="none" stroke-width="1" fill="none" fill-rule="evenodd">
        <g id="keyboard1" transform="translate(-37.000000, -346.000000)" fill="#347DAF" fill-rule="nonzero">
            <g id="en" transform="translate(10.000000, 235.000000)">
                <g id="text" transform="translate(17.000000, 46.000000)">
                    <g id="asd" transform="translate(10.000000, 58.000000)">
                        <path d="M3.676,10.616 C4.50000412,10.616 5.14599766,10.7979982 5.614,11.162 C6.08200234,11.5260018 6.316,12.0239968 6.316,12.656 C6.316,13.2880032 6.08200234,13.7859982 5.614,14.15 C5.14599766,14.5140018 4.50000412,14.696 3.676,14.696 C2.85199588,14.696 2.20600234,14.5140018 1.738,14.15 C1.26999766,13.7859982 1.036,13.2880032 1.036,12.656 C1.036,12.0239968 1.26999766,11.5260018 1.738,11.162 C2.20600234,10.7979982 2.85199588,10.616 3.676,10.616 Z M0.904,10.112 C0.71999908,10.112 0.58400044,10.0480006 0.496,9.92 C0.40799956,9.79199936 0.364,9.64000088 0.364,9.464 C0.364,9.28799912 0.40799956,9.13600064 0.496,9.008 C0.58400044,8.87999936 0.71999908,8.816 0.904,8.816 L2.908,8.816 L2.908,8.228 C2.908,8.00399888 2.98599922,7.84000052 3.142,7.736 C3.29800078,7.63199948 3.475999,7.58 3.676,7.58 C3.876001,7.58 4.05399922,7.63199948 4.21,7.736 C4.36600078,7.84000052 4.444,8.00399888 4.444,8.228 L4.444,8.816 L6.328,8.816 C6.51200092,8.816 6.64799956,8.87999936 6.736,9.008 C6.82400044,9.13600064 6.868,9.28799912 6.868,9.464 C6.868,9.64000088 6.82400044,9.79199936 6.736,9.92 C6.64799956,10.0480006 6.51200092,10.112 6.328,10.112 L0.904,10.112 Z M3.676,13.52 C4.10800216,13.52 4.42599898,13.4380008 4.63,13.274 C4.83400102,13.1099992 4.936,12.9040012 4.936,12.656 C4.936,12.4079988 4.83400102,12.2020008 4.63,12.038 C4.42599898,11.8739992 4.10800216,11.792 3.676,11.792 C3.24399784,11.792 2.92600102,11.8739992 2.722,12.038 C2.51799898,12.2020008 2.416,12.4079988 2.416,12.656 C2.416,12.9040012 2.51799898,13.1099992 2.722,13.274 C2.92600102,13.4380008 3.24399784,13.52 3.676,13.52 Z M9.1,10.736 L10.24,10.736 C10.4240009,10.736 10.5599996,10.7999994 10.648,10.928 C10.7360004,11.0560006 10.78,11.2119991 10.78,11.396 C10.78,11.5800009 10.7360004,11.7359994 10.648,11.864 C10.5599996,11.9920006 10.4240009,12.056 10.24,12.056 L9.1,12.056 L9.1,15.26 C9.1,15.4840011 9.02200078,15.6479995 8.866,15.752 C8.70999922,15.8560005 8.53600096,15.908 8.344,15.908 C8.143999,15.908 7.96600078,15.8560005 7.81,15.752 C7.65399922,15.6479995 7.576,15.4840011 7.576,15.26 L7.576,8.252 C7.576,8.02799888 7.65399922,7.86400052 7.81,7.76 C7.96600078,7.65599948 8.143999,7.604 8.344,7.604 C8.53600096,7.604 8.70999922,7.65599948 8.866,7.76 C9.02200078,7.86400052 9.1,8.02799888 9.1,8.252 L9.1,10.736 Z M3.016,18.644 C2.63199808,18.644 2.36600074,18.5720007 2.218,18.428 C2.06999926,18.2839993 1.996,18.0240019 1.996,17.648 L1.996,15.836 C1.996,15.6119989 2.07399922,15.4480005 2.23,15.344 C2.38600078,15.2399995 2.56799896,15.188 2.776,15.188 C2.976001,15.188 3.15399922,15.2399995 3.31,15.344 C3.46600078,15.4480005 3.544,15.6119989 3.544,15.836 L3.544,17.06 C3.544,17.2440009 3.63599908,17.336 3.82,17.336 L8.824,17.336 C9.00800092,17.336 9.14399956,17.3999994 9.232,17.528 C9.32000044,17.6560006 9.364,17.8119991 9.364,17.996 C9.364,18.1720009 9.32000044,18.3239994 9.232,18.452 C9.14399956,18.5800006 9.00800092,18.644 8.824,18.644 L3.016,18.644 Z" id="한"></path>
                    </g>
                </g>
            </g>
        </g>
    </g>
</svg>