<?xml version="1.0" encoding="UTF-8"?>
<svg width="10px" height="12px" viewBox="0 0 10 12" version="1.1" xmlns="http://www.w3.org/2000/svg" xmlns:xlink="http://www.w3.org/1999/xlink">
    <!-- Generator: Sketch 54.1 (76490) - https://sketchapp.com -->
    <title>영</title>
    <desc>Created with Sketch.</desc>
    <g id="Page-1" stroke="none" stroke-width="1" fill="none" fill-rule="evenodd">
        <g id="keyboard1" transform="translate(-26.000000, -346.000000)" fill="#347DAF" fill-rule="nonzero">
            <g id="en" transform="translate(10.000000, 235.000000)">
                <g id="text" transform="translate(16.000000, 46.000000)">
                    <g id="asd" transform="translate(0.000000, 58.000000)">
                        <path d="M0.712,10.784 C0.712,10.391998 0.7719994,10.0280017 0.892,9.692 C1.0120006,9.35599832 1.18799884,9.06600122 1.42,8.822 C1.65200116,8.57799878 1.94399824,8.38800068 2.296,8.252 C2.64800176,8.11599932 3.05599768,8.048 3.52,8.048 C3.98400232,8.048 4.39199824,8.11599932 4.744,8.252 C5.09600176,8.38800068 5.38799884,8.57799878 5.62,8.822 C5.85200116,9.06600122 6.0279994,9.35599832 6.148,9.692 C6.2680006,10.0280017 6.328,10.391998 6.328,10.784 C6.328,11.184002 6.2680006,11.5499983 6.148,11.882 C6.0279994,12.2140017 5.85200116,12.5019988 5.62,12.746 C5.38799884,12.9900012 5.09600176,13.1799993 4.744,13.316 C4.39199824,13.4520007 3.98400232,13.52 3.52,13.52 C3.05599768,13.52 2.64800176,13.4520007 2.296,13.316 C1.94399824,13.1799993 1.65200116,12.9900012 1.42,12.746 C1.18799884,12.5019988 1.0120006,12.2140017 0.892,11.882 C0.7719994,11.5499983 0.712,11.184002 0.712,10.784 Z M4.864,10.784 C4.864,10.583999 4.84000024,10.3940009 4.792,10.214 C4.74399976,10.0339991 4.66600054,9.87800066 4.558,9.746 C4.44999946,9.61399934 4.31200084,9.51000038 4.144,9.434 C3.97599916,9.35799962 3.76800124,9.32 3.52,9.32 C3.27199876,9.32 3.06400084,9.35799962 2.896,9.434 C2.72799916,9.51000038 2.59000054,9.61399934 2.482,9.746 C2.37399946,9.87800066 2.29600024,10.0339991 2.248,10.214 C2.19999976,10.3940009 2.176,10.583999 2.176,10.784 C2.176,10.992001 2.19999976,11.1839991 2.248,11.36 C2.29600024,11.5360009 2.37399946,11.6899993 2.482,11.822 C2.59000054,11.9540007 2.72799916,12.0579996 2.896,12.134 C3.06400084,12.2100004 3.27199876,12.248 3.52,12.248 C3.76800124,12.248 3.97599916,12.2100004 4.144,12.134 C4.31200084,12.0579996 4.44999946,11.9540007 4.558,11.822 C4.66600054,11.6899993 4.74399976,11.5360009 4.792,11.36 C4.84000024,11.1839991 4.864,10.992001 4.864,10.784 Z M9.688,13.568 C9.688,13.7920011 9.61000078,13.9559995 9.454,14.06 C9.29799922,14.1640005 9.12400096,14.216 8.932,14.216 C8.73999904,14.216 8.56600078,14.1640005 8.41,14.06 C8.25399922,13.9559995 8.176,13.7920011 8.176,13.568 L8.176,12.548 L7.12,12.548 C6.93599908,12.548 6.80200042,12.4840006 6.718,12.356 C6.63399958,12.2279994 6.592,12.0720009 6.592,11.888 C6.592,11.7119991 6.63399958,11.5600006 6.718,11.432 C6.80200042,11.3039994 6.93599908,11.24 7.12,11.24 L8.176,11.24 L8.176,10.388 L7.12,10.388 C6.93599908,10.388 6.80200042,10.3240006 6.718,10.196 C6.63399958,10.0679994 6.592,9.91200092 6.592,9.728 C6.592,9.55199912 6.63399958,9.40000064 6.718,9.272 C6.80200042,9.14399936 6.93599908,9.08 7.12,9.08 L8.176,9.08 L8.176,8.252 C8.176,8.02799888 8.25399922,7.86400052 8.41,7.76 C8.56600078,7.65599948 8.73999904,7.604 8.932,7.604 C9.12400096,7.604 9.29799922,7.65599948 9.454,7.76 C9.61000078,7.86400052 9.688,8.02799888 9.688,8.252 L9.688,13.568 Z M2.476,16.616 C2.476,15.8399961 2.79799678,15.2580019 3.442,14.87 C4.08600322,14.4819981 4.97199436,14.288 6.1,14.288 C7.22800564,14.288 8.11399678,14.4819981 8.758,14.87 C9.40200322,15.2580019 9.724,15.8399961 9.724,16.616 C9.724,17.4000039 9.40200322,17.9839981 8.758,18.368 C8.11399678,18.7520019 7.22800564,18.944 6.1,18.944 C4.97199436,18.944 4.08600322,18.7520019 3.442,18.368 C2.79799678,17.9839981 2.476,17.4000039 2.476,16.616 Z M8.2,16.616 C8.2,16.2879984 8.03800162,16.022001 7.714,15.818 C7.38999838,15.613999 6.85200376,15.512 6.1,15.512 C5.3399962,15.512 4.8000016,15.613999 4.48,15.818 C4.1599984,16.022001 4,16.2879984 4,16.616 C4,16.9440016 4.1599984,17.209999 4.48,17.414 C4.8000016,17.618001 5.3399962,17.72 6.1,17.72 C6.85200376,17.72 7.38999838,17.618001 7.714,17.414 C8.03800162,17.209999 8.2,16.9440016 8.2,16.616 Z" id="영"></path>
                    </g>
                </g>
            </g>
        </g>
    </g>
</svg>