<?xml version="1.0" encoding="UTF-8"?>
<svg viewBox="0 0 146 46" version="1.1" xmlns="http://www.w3.org/2000/svg" xmlns:xlink="http://www.w3.org/1999/xlink">

    <defs>
        <polygon id="path-1" points="0.343384615 0.144 43.3003846 0.144 43.3003846 9.65076923 0.343384615 9.65076923"></polygon>
    </defs>
    <g stroke="none" stroke-width="1" fill="none" fill-rule="evenodd">
        <g>
            <path d="M49.3241538,25.9054615 C48.7066154,14.8596923 45.6057692,6.81438462 41.8306154,6.81438462 C39.8063077,6.81438462 37.9647692,9.243 36.5974615,13.1766923 C35.4551538,5.72538462 32.6831538,0.449307692 29.4383077,0.449307692 C26.1927692,0.449307692 23.4207692,5.72538462 22.2770769,13.1766923 C20.9097692,9.243 19.0682308,6.81438462 17.0439231,6.81438462 C13.2687692,6.81438462 10.1672308,14.8596923 9.55038462,25.9054615 C14.6706923,23.9393077 21.528,22.7263846 29.3607692,22.7263846 C37.1956154,22.7263846 44.2038462,23.9393077 49.3241538,25.9054615" id="Fill-1" fill="#00A581"></path>
            <path d="M58.4259231,30.0759231 C58.4259231,30.0759231 42.2522308,27.4977692 29.4383077,27.4977692 C16.6292308,27.4977692 0.454153846,30.0738462 0.454153846,30.0738462 C0.193153846,30.1126154 0,30.4047692 0,30.6823846 C0,30.9606923 0.162,31.2341538 0.469384615,31.2874615 C0.469384615,31.2874615 16.6396154,33.8628462 29.4383077,33.8628462 C42.255,33.8628462 58.428,31.2833077 58.428,31.2833077 C58.6855385,31.2341538 58.8745385,30.9482308 58.8745385,30.6823846 C58.8745385,30.4068462 58.7153077,30.1126154 58.4259231,30.0759231" id="Fill-2" fill="#144A86"></path>
            <g id="Group-6" transform="translate(7.615385, 35.307692)">
                <mask id="mask-2" fill="white">
                    <use xlink:href="#path-1"></use>
                </mask>
                <g id="Clip-4"></g>
                <path d="M42.9770769,2.07830769 C42.9770769,2.07830769 31.1753077,0.144 21.8229231,0.144 C12.474,0.144 0.672230769,2.07830769 0.672230769,2.07830769 C0.482538462,2.10738462 0.343384615,2.32407692 0.343384615,2.53315385 C0.343384615,2.74361538 0.459692308,2.94853846 0.682615385,2.98938462 C0.682615385,2.98938462 12.4843846,4.91607692 21.8229231,4.91607692 C31.1753077,4.91607692 42.9770769,2.98453846 42.9770769,2.98453846 C43.1653846,2.94853846 43.3003846,2.73184615 43.3003846,2.53315385 C43.3003846,2.32823077 43.1854615,2.10738462 42.9770769,2.07830769" id="Fill-3" fill="#144A86" mask="url(#mask-2)"></path>
                <path d="M36.7082308,7.79607692 C36.7082308,7.79607692 28.4019231,6.50769231 21.8229231,6.50769231 C15.2432308,6.50769231 6.939,7.79607692 6.939,7.79607692 C6.804,7.81615385 6.70638462,7.96223077 6.70638462,8.10069231 C6.70638462,8.23984615 6.78946154,8.37761538 6.94592308,8.40669231 C6.94592308,8.40669231 15.2466923,9.69230769 21.8229231,9.69230769 C28.4033077,9.69230769 36.7082308,8.40184615 36.7082308,8.40184615 C36.8411538,8.37761538 36.9373846,8.23361538 36.9373846,8.10069231 C36.9373846,7.96430769 36.8570769,7.81615385 36.7082308,7.79607692" id="Fill-5" fill="#144A86" mask="url(#mask-2)"></path>
            </g>
            <path d="M81.7082308,21.4733077 C81.7082308,21.9530769 81.7082308,24.2086154 81.7082308,24.6856154 C81.1633846,24.6856154 76.6876154,24.6856154 76.6876154,24.6856154 C76.6876154,24.6856154 76.6876154,29.9166923 76.6876154,30.474 C76.1974615,30.474 73.5417692,30.474 73.0523077,30.474 C73.0523077,29.9166923 73.0523077,24.6856154 73.0523077,24.6856154 C73.0523077,24.6856154 68.4941538,24.6856154 67.9465385,24.6856154 C67.9465385,24.2086154 67.9465385,21.9530769 67.9465385,21.4733077 C68.526,21.4733077 81.1287692,21.4733077 81.7082308,21.4733077" id="Fill-7" fill="#1A1919"></path>
            <path d="M99.0636923,21.4733077 L95.4276923,21.4733077 L96.0791538,24.6856154 L99.0636923,24.6856154 C101.787923,24.6856154 105.418385,24.6856154 105.418385,24.6856154 C105.418385,24.6856154 105.418385,29.9166923 105.418385,30.474 L109.054385,30.474 C109.054385,29.9166923 109.054385,24.6856154 109.054385,24.6856154 C109.054385,24.6856154 117.662538,24.6856154 118.241308,24.6856154 L118.241308,21.4733077 L99.0636923,21.4733077" id="Fill-8" fill="#1A1919"></path>
            <path d="M81.4513846,38.2084615 C81.4513846,38.2084615 81.4513846,33.2016923 81.4513846,32.6478462 L77.8181538,32.6478462 L77.8181538,32.6547692 L77.1216923,32.6547692 L77.8181538,36.0713077 L77.8181538,41.4609231 L90.0782308,41.4609231 L90.0782308,38.2084615 C89.5022308,38.2084615 81.4513846,38.2084615 81.4513846,38.2084615" id="Fill-9" fill="#1A1919"></path>
            <path d="M109.374923,10.5909231 C109.374923,10.5909231 113.391,10.5909231 113.918538,10.5909231 L113.918538,7.38069231 L99.4541538,7.38069231 L100.106308,10.5909231 L103.090154,10.5909231 C103.704231,10.5909231 104.168077,10.5909231 104.168077,10.5909231 C104.168077,10.5909231 98.9826923,15.7818462 98.5797692,16.1813077 L101.151,18.7532308 C101.553923,18.3454615 106.771154,13.1289231 106.771154,13.1289231 C106.771154,13.1289231 111.987692,18.3454615 112.393385,18.7532308 L114.965308,16.1813077 C114.561,15.7818462 109.374923,10.5909231 109.374923,10.5909231" id="Fill-10" fill="#1A1919"></path>
            <path d="M131.510077,20.0810769 C131.510077,20.0810769 131.510077,14.3903077 131.510077,13.8302308 L127.222615,13.8302308 L127.874077,17.0390769 C127.874077,18.6168462 127.874077,20.1828462 127.874077,20.1828462 C127.874077,20.1828462 121.908462,26.1470769 121.5,26.5569231 L124.070538,29.1274615 C124.474846,28.7231538 129.691385,23.5066154 129.691385,23.5066154 C129.691385,23.5066154 134.906538,28.7231538 135.312231,29.1274615 C135.659769,28.782 137.539385,26.9030769 137.884154,26.5548462 C137.481231,26.1470769 131.510077,20.0810769 131.510077,20.0810769" id="Fill-11" fill="#1A1919"></path>
            <path d="M84.4843846,13.7450769 L85.1995385,17.2716923 L85.2348462,17.2716923 C85.2348462,21.2815385 85.2348462,27.2630769 85.2348462,27.2630769 C85.2348462,27.2630769 81.8466923,27.2630769 81.3219231,27.2630769 L81.3219231,30.474 C81.8466923,30.474 85.2348462,30.474 85.2348462,30.474 C85.2348462,30.474 85.2348462,33.3657692 85.2348462,33.8794615 L88.8708462,33.8794615 L88.8708462,13.7450769 L84.4843846,13.7450769" id="Fill-12" fill="#1A1919"></path>
            <polyline id="Fill-13" fill="#1A1919" points="144.360692 13.7319231 144.360692 13.725 140.725385 13.725 141.372692 16.9096154 141.372692 33.8794615 145.007308 33.8794615 145.007308 13.7319231 144.360692 13.7319231"></polyline>
            <path d="M74.9111538,16.8888462 C73.2302308,16.8888462 71.8636154,15.5222308 71.8636154,13.842 C71.8636154,12.1603846 73.2302308,10.7937692 74.9111538,10.7937692 C76.5948462,10.7937692 77.9614615,12.1603846 77.9614615,13.842 C77.9614615,15.5222308 76.5948462,16.8888462 74.9111538,16.8888462 Z M76.6232308,7.71161538 C76.6232308,6.76384615 76.6232308,5.76484615 76.6232308,5.76484615 L72.9858462,5.76484615 L73.3735385,7.66869231 C70.6029231,8.361 68.5426154,10.8623077 68.5426154,13.842 C68.5426154,17.3533846 71.3997692,20.2126154 74.9111538,20.2126154 C78.4239231,20.2126154 81.2810769,17.3533846 81.2810769,13.842 C81.2810769,10.9218462 79.3059231,8.46346154 76.6232308,7.71161538 L76.6232308,7.71161538 Z" id="Fill-14" fill="#1A1919"></path>
        </g>
    </g>
</svg>
