<?xml version="1.0" encoding="UTF-8"?>
<svg width="48px" height="21px" viewBox="0 0 48 21" version="1.1" xmlns="http://www.w3.org/2000/svg" xmlns:xlink="http://www.w3.org/1999/xlink">
    <!-- Generator: Sketch 54.1 (76490) - https://sketchapp.com -->
    <title>return</title>
    <desc>Created with Sketch.</desc>
    <g id="Page-1" stroke="none" stroke-width="1" fill="none" fill-rule="evenodd">
        <g id="keyboard1" transform="translate(-380.000000, -342.000000)" fill="#347DAF">
            <g id="en" transform="translate(10.000000, 235.000000)">
                <g id="text" transform="translate(17.000000, 46.000000)">
                    <g id="asd" transform="translate(10.000000, 58.000000)">
                        <g id="return" transform="translate(343.310000, 3.000000)">
                            <path d="M2.73,12.85 C3.4766704,12.85 4.0533313,13.0349981 4.46,13.405 C4.8666687,13.7750018 5.07,14.2733302 5.07,14.9 L5.07,15.08 C5.07,15.5400023 4.96166775,15.9216651 4.745,16.225 C4.52833225,16.5283348 4.2333352,16.7566659 3.86,16.91 L5.12,19.14 C5.2133338,19.3066675 5.23166695,19.4633326 5.175,19.61 C5.11833305,19.7566674 5.0133341,19.8666663 4.86,19.94 C4.7066659,20.0133337 4.5500008,20.0400001 4.39,20.02 C4.2299992,19.9999999 4.1066671,19.9033342 4.02,19.73 L2.65,17.11 C2.6166665,17.1166667 2.5800002,17.12 2.54,17.12 L1.28,17.12 L1.28,19.47 C1.28,19.6633343 1.2166673,19.8033329 1.09,19.89 C0.9633327,19.9766671 0.8133342,20.02 0.64,20.02 C0.4666658,20.02 0.3166673,19.9766671 0.19,19.89 C0.0633327,19.8033329 2.84217094e-14,19.6633343 2.84217094e-14,19.47 L2.84217094e-14,13.68 C2.84217094e-14,13.3666651 0.06166605,13.1500006 0.185,13.03 C0.30833395,12.9099994 0.5299984,12.85 0.85,12.85 L2.73,12.85 Z M1.28,16.05 L2.45,16.05 C2.9366691,16.05 3.2833323,15.9666675 3.49,15.8 C3.6966677,15.6333325 3.8,15.3866683 3.8,15.06 L3.8,14.93 C3.8,14.596665 3.70166765,14.3450008 3.505,14.175 C3.30833235,14.0049991 2.9933355,13.92 2.56,13.92 L1.28,13.92 L1.28,16.05 Z M8.74,15.57 C8.3199979,15.57 8.00500105,15.6799989 7.795,15.9 C7.58499895,16.1200011 7.48,16.3999983 7.48,16.74 L7.48,16.81 L9.96,16.81 L9.96,16.71 C9.96,16.3833317 9.8666676,16.1116677 9.68,15.895 C9.4933324,15.6783322 9.1800022,15.57 8.74,15.57 Z M8.76,14.53 C9.1200018,14.53 9.4466652,14.5833328 9.74,14.69 C10.0333348,14.7966672 10.2866656,14.949999 10.5,15.15 C10.7133344,15.350001 10.8783327,15.5966652 10.995,15.89 C11.1116673,16.1833348 11.17,16.5199981 11.17,16.9 L11.17,16.92 C11.17,17.2333349 11.108334,17.4499994 10.985,17.57 C10.8616661,17.6900006 10.6400016,17.75 10.32,17.75 L7.48,17.75 L7.48,17.77 C7.48,18.1300018 7.59166555,18.4233322 7.815,18.65 C8.03833445,18.8766678 8.3733311,18.99 8.82,18.99 C9.1000014,18.99 9.34499895,18.9683335 9.555,18.925 C9.76500105,18.8816664 9.9799989,18.8100005 10.2,18.71 C10.333334,18.6499997 10.4633327,18.6416664 10.59,18.685 C10.7166673,18.7283335 10.8099997,18.8199993 10.87,18.96 C10.9300003,19.1000007 10.9433335,19.2349993 10.91,19.365 C10.8766665,19.4950006 10.793334,19.593333 10.66,19.66 C10.4066654,19.7866673 10.1300015,19.8816663 9.83,19.945 C9.5299985,20.0083336 9.1766687,20.04 8.77,20.04 C7.969996,20.04 7.3500022,19.8216688 6.91,19.385 C6.4699978,18.9483311 6.25,18.2933377 6.25,17.42 L6.25,17.16 C6.25,16.293329 6.4733311,15.6383355 6.92,15.195 C7.3666689,14.7516644 7.9799961,14.53 8.76,14.53 Z M13.34,13.18 C13.5066675,13.18 13.6533327,13.2233329 13.78,13.31 C13.9066673,13.3966671 13.97,13.5333324 13.97,13.72 L13.97,14.65 L15.02,14.65 C15.1733341,14.65 15.2849997,14.7016661 15.355,14.805 C15.4250004,14.9083338 15.46,15.0299993 15.46,15.17 C15.46,15.3100007 15.4250004,15.4316661 15.355,15.535 C15.2849997,15.6383338 15.1733341,15.69 15.02,15.69 L13.97,15.69 L13.97,18.33 C13.97,18.7566688 14.1333317,18.97 14.46,18.97 C14.6133341,18.97 14.7666659,18.9433336 14.92,18.89 C15.0266672,18.8566665 15.1333328,18.8633331 15.24,18.91 C15.3466672,18.9566669 15.4266664,19.0599992 15.48,19.22 C15.5266669,19.3600007 15.5283336,19.4899994 15.485,19.61 C15.4416665,19.7300006 15.3566673,19.8166664 15.23,19.87 C15.1099994,19.9233336 14.9733341,19.9649998 14.82,19.995 C14.6666659,20.0250001 14.5100008,20.04 14.35,20.04 C13.7566637,20.04 13.3350013,19.8916681 13.085,19.595 C12.8349988,19.2983318 12.71,18.8566696 12.71,18.27 L12.71,15.69 L12.21,15.69 C12.0566659,15.69 11.9450004,15.6383338 11.875,15.535 C11.8049997,15.4316661 11.77,15.3100007 11.77,15.17 C11.77,15.0299993 11.8049997,14.9083338 11.875,14.805 C11.9450004,14.7016661 12.0566659,14.65 12.21,14.65 L12.71,14.65 L12.71,13.72 C12.71,13.5333324 12.7733327,13.3966671 12.9,13.31 C13.0266673,13.2233329 13.1733325,13.18 13.34,13.18 Z M17.07,14.59 C17.2300008,14.59 17.3749994,14.6333329 17.505,14.72 C17.6350007,14.8066671 17.7,14.9399991 17.7,15.12 L17.7,17.74 C17.7,17.9800012 17.7266664,18.1783325 17.78,18.335 C17.8333336,18.4916674 17.9066662,18.6149995 18,18.705 C18.0933338,18.7950004 18.2033327,18.8583331 18.33,18.895 C18.4566673,18.9316668 18.5933326,18.95 18.74,18.95 C18.8666673,18.95 18.9983327,18.9300002 19.135,18.89 C19.2716674,18.8499998 19.3966661,18.7800005 19.51,18.68 C19.6233339,18.5799995 19.718333,18.4466675 19.795,18.28 C19.8716671,18.1133325 19.91,17.9066679 19.91,17.66 L19.91,15.12 C19.91,14.9399991 19.9733327,14.8066671 20.1,14.72 C20.2266673,14.6333329 20.3733325,14.59 20.54,14.59 C20.7000008,14.59 20.8449994,14.6333329 20.975,14.72 C21.1050007,14.8066671 21.17,14.9399991 21.17,15.12 L21.17,19.51 C21.17,19.6833342 21.108334,19.8116662 20.985,19.895 C20.8616661,19.9783337 20.7233341,20.02 20.57,20.02 C20.4166659,20.02 20.278334,19.9783337 20.155,19.895 C20.0316661,19.8116662 19.97,19.6833342 19.97,19.51 L19.97,19.3 L19.95,19.3 C19.8699996,19.433334 19.7700006,19.5466662 19.65,19.64 C19.5299994,19.7333338 19.3983341,19.8099997 19.255,19.87 C19.111666,19.9300003 18.9616675,19.9749998 18.805,20.005 C18.6483326,20.0350001 18.4966674,20.05 18.35,20.05 C17.7699971,20.05 17.3066684,19.878335 16.96,19.535 C16.6133316,19.1916649 16.44,18.6833367 16.44,18.01 L16.44,15.12 C16.44,14.9399991 16.5033327,14.8066671 16.63,14.72 C16.7566673,14.6333329 16.9033325,14.59 17.07,14.59 Z M25.34,14.53 C25.5733345,14.53 25.7533327,14.5666663 25.88,14.64 C26.0000006,14.706667 26.0799998,14.7933328 26.12,14.9 C26.1600002,15.0066672 26.1666668,15.1299993 26.14,15.27 C26.1066665,15.4566676 26.0316673,15.6016661 25.915,15.705 C25.7983328,15.8083338 25.6633341,15.8433335 25.51,15.81 C25.4233329,15.7966666 25.3400004,15.7800001 25.26,15.76 C25.1799996,15.7399999 25.0966671,15.73 25.01,15.73 C24.8566659,15.73 24.7150007,15.7599997 24.585,15.82 C24.4549994,15.8800003 24.3416672,15.9616661 24.245,16.065 C24.1483329,16.1683338 24.071667,16.2916659 24.015,16.435 C23.9583331,16.578334 23.93,16.7333325 23.93,16.9 L23.93,19.49 C23.93,19.6700009 23.8666673,19.8033329 23.74,19.89 C23.6133327,19.9766671 23.4666675,20.02 23.3,20.02 C23.1399992,20.02 22.9950007,19.9766671 22.865,19.89 C22.7349994,19.8033329 22.67,19.6700009 22.67,19.49 L22.67,15.1 C22.67,14.9266658 22.7316661,14.7983337 22.855,14.715 C22.978334,14.6316662 23.1166659,14.59 23.27,14.59 C23.4300008,14.59 23.5716661,14.6316662 23.695,14.715 C23.818334,14.7983337 23.88,14.9266658 23.88,15.1 L23.88,15.45 L23.9,15.45 C24.0400007,15.1699986 24.2366654,14.9466675 24.49,14.78 C24.7433346,14.6133325 25.0266651,14.53 25.34,14.53 Z M29.93,14.53 C30.5166696,14.53 30.9833316,14.7016649 31.33,15.045 C31.6766684,15.388335 31.85,15.8966633 31.85,16.57 L31.85,19.49 C31.85,19.6700009 31.7866673,19.8033329 31.66,19.89 C31.5333327,19.9766671 31.3866675,20.02 31.22,20.02 C31.0599992,20.02 30.9150006,19.9766671 30.785,19.89 C30.6549993,19.8033329 30.59,19.6700009 30.59,19.49 L30.59,16.84 C30.59,16.5999988 30.5633336,16.4016674 30.51,16.245 C30.4566664,16.0883325 30.3833338,15.9650004 30.29,15.875 C30.1966662,15.7849995 30.0850007,15.7216668 29.955,15.685 C29.8249994,15.6483331 29.6866674,15.63 29.54,15.63 C29.4133327,15.63 29.2800007,15.6499998 29.14,15.69 C28.9999993,15.7300002 28.8716673,15.7999995 28.755,15.9 C28.6383328,16.0000005 28.5416671,16.1333325 28.465,16.3 C28.388333,16.4666675 28.35,16.6733321 28.35,16.92 L28.35,19.49 C28.35,19.6700009 28.2866673,19.8033329 28.16,19.89 C28.0333327,19.9766671 27.8866675,20.02 27.72,20.02 C27.5599992,20.02 27.4150006,19.9766671 27.285,19.89 C27.1549993,19.8033329 27.09,19.6700009 27.09,19.49 L27.09,15.1 C27.09,14.9266658 27.1516661,14.7983337 27.275,14.715 C27.398334,14.6316662 27.5366659,14.59 27.69,14.59 C27.8433341,14.59 27.9816661,14.6316662 28.105,14.715 C28.228334,14.7983337 28.29,14.9266658 28.29,15.1 L28.29,15.28 L28.31,15.28 C28.3900004,15.1533327 28.4899994,15.0416671 28.61,14.945 C28.7300006,14.8483328 28.861666,14.7700003 29.005,14.71 C29.1483341,14.6499997 29.2999992,14.6050001 29.46,14.575 C29.6200008,14.5449998 29.7766659,14.53 29.93,14.53 Z" id="Return" fill-rule="nonzero"></path>
                            <path d="M39.0968542,5 L45.69,5 L45.69,1 C45.69,0.44771525 46.1377153,1.16477725e-14 46.69,1.15463195e-14 C47.2422847,1.14448664e-14 47.69,0.44771525 47.69,1 L47.69,6 C47.69,6.55228475 47.2422847,7 46.69,7 C46.6189928,7 46.5497141,6.99259916 46.4828932,6.97852676 C46.4160724,6.99259916 46.3467937,7 46.2757864,7 L39.1115729,7 L40.2255339,8.11396103 C40.6160582,8.50448532 40.6160582,9.1376503 40.2255339,9.52817459 C39.8350096,9.91869888 39.2018446,9.91869888 38.8113203,9.52817459 L35.9828932,6.69974747 C35.5923689,6.30922318 35.5923689,5.6760582 35.9828932,5.28553391 L38.8113203,2.45710678 C39.2018446,2.06658249 39.8350096,2.06658249 40.2255339,2.45710678 C40.6160582,2.84763107 40.6160582,3.48079605 40.2255339,3.87132034 L39.0968542,5 Z"></path>
                        </g>
                    </g>
                </g>
            </g>
        </g>
    </g>
</svg>