<?xml version="1.0" encoding="UTF-8"?>
<svg width="49px" height="21px" viewBox="0 0 49 21" version="1.1" xmlns="http://www.w3.org/2000/svg" xmlns:xlink="http://www.w3.org/1999/xlink">
    <!-- Generator: Sketch 54.1 (76490) - https://sketchapp.com -->
    <title>shift-left</title>
    <desc>Created with Sketch.</desc>
    <g id="Page-1" stroke="none" stroke-width="1" fill="none" fill-rule="evenodd">
        <g id="keyboard1" transform="translate(-31.000000, -370.000000)" fill="#347DAF">
            <g id="en" transform="translate(10.000000, 235.000000)">
                <g id="text" transform="translate(17.000000, 46.000000)">
                    <g id="shift" transform="translate(4.000000, 88.000000)">
                        <g id="shift-left" transform="translate(0.000000, 1.000000)">
                            <path d="M28.97,12.74 C29.6900036,12.74 30.2933309,12.8633321 30.78,13.11 C30.9266674,13.1833337 31.0199998,13.2933326 31.06,13.44 C31.1000002,13.5866674 31.0800004,13.7333326 31,13.88 C30.9199996,14.0333341 30.8166673,14.1283331 30.69,14.165 C30.5633327,14.2016668 30.4300007,14.1900003 30.29,14.13 C30.0766656,14.0366662 29.8733343,13.9716669 29.68,13.935 C29.4866657,13.8983331 29.256668,13.88 28.99,13.88 C28.7699989,13.88 28.5783341,13.9049997 28.415,13.955 C28.2516659,14.0050003 28.1133339,14.0716663 28,14.155 C27.8866661,14.2383338 27.8016669,14.3316662 27.745,14.435 C27.6883331,14.5383338 27.66,14.6433328 27.66,14.75 L27.66,14.81 C27.66,14.9366673 27.6816665,15.0466662 27.725,15.14 C27.7683336,15.2333338 27.8449994,15.318333 27.955,15.395 C28.0650006,15.4716671 28.2166657,15.5416663 28.41,15.605 C28.6033343,15.6683337 28.8533318,15.7299997 29.16,15.79 C29.9933375,15.9633342 30.5899982,16.2199983 30.95,16.56 C31.3100018,16.9000017 31.49,17.336664 31.49,17.87 L31.49,17.96 C31.49,18.6466701 31.2666689,19.1699982 30.82,19.53 C30.3733311,19.8900018 29.7133377,20.07 28.84,20.07 C28.4266646,20.07 28.025002,20.0183338 27.635,19.915 C27.244998,19.8116662 26.916668,19.6766675 26.65,19.51 C26.4899992,19.4099995 26.4000001,19.2816675 26.38,19.125 C26.3599999,18.9683325 26.3966662,18.8200007 26.49,18.68 C26.5833338,18.5333326 26.696666,18.4433335 26.83,18.41 C26.963334,18.3766665 27.1066659,18.4033329 27.26,18.49 C27.4933345,18.623334 27.7499986,18.7283329 28.03,18.805 C28.3100014,18.8816671 28.5999985,18.92 28.9,18.92 C29.3600023,18.92 29.6933323,18.8383342 29.9,18.675 C30.1066677,18.5116658 30.21,18.3066679 30.21,18.06 L30.21,17.99 C30.21,17.7099986 30.1016678,17.4916675 29.885,17.335 C29.6683322,17.1783326 29.3200024,17.0533338 28.84,16.96 C28.4199979,16.8799996 28.0566682,16.7866672 27.75,16.68 C27.4433318,16.5733328 27.1883343,16.4383341 26.985,16.275 C26.7816657,16.1116659 26.6316671,15.9150012 26.535,15.685 C26.4383328,15.4549988 26.39,15.173335 26.39,14.84 L26.39,14.77 C26.39,14.4899986 26.4449995,14.2266679 26.555,13.98 C26.6650005,13.7333321 26.8299989,13.5183342 27.05,13.335 C27.2700011,13.1516657 27.5399984,13.0066672 27.86,12.9 C28.1800016,12.7933328 28.5499979,12.74 28.97,12.74 Z M33.37,12.54 C33.5233341,12.54 33.6616661,12.5816662 33.785,12.665 C33.9083339,12.7483337 33.97,12.8766658 33.97,13.05 L33.97,15.28 L33.99,15.28 C34.0700004,15.1533327 34.1699994,15.0416672 34.29,14.945 C34.4100006,14.8483329 34.5416659,14.7700003 34.685,14.71 C34.828334,14.6499997 34.9799992,14.6050002 35.14,14.575 C35.3000008,14.5449998 35.4566659,14.53 35.61,14.53 C36.1966696,14.53 36.6633316,14.701665 37.01,15.045 C37.3566684,15.3883351 37.53,15.8966633 37.53,16.57 L37.53,19.49 C37.53,19.6700009 37.4666673,19.8033329 37.34,19.89 C37.2133327,19.9766671 37.0666675,20.02 36.9,20.02 C36.7399992,20.02 36.5950007,19.9766671 36.465,19.89 C36.3349994,19.8033329 36.27,19.6700009 36.27,19.49 L36.27,16.84 C36.27,16.5999988 36.2433336,16.4016674 36.19,16.245 C36.1366664,16.0883326 36.0633338,15.9650004 35.97,15.875 C35.8766662,15.7849996 35.7650006,15.7216669 35.635,15.685 C35.5049993,15.6483331 35.3666674,15.63 35.22,15.63 C35.0933327,15.63 34.9600007,15.6499998 34.82,15.69 C34.6799993,15.7300002 34.5516673,15.7999995 34.435,15.9 C34.3183327,16.0000005 34.2216671,16.1333325 34.145,16.3 C34.0683329,16.4666675 34.03,16.6733321 34.03,16.92 L34.03,19.49 C34.03,19.6700009 33.9666673,19.8033329 33.84,19.89 C33.7133327,19.9766671 33.5666675,20.02 33.4,20.02 C33.2399992,20.02 33.0950007,19.9766671 32.965,19.89 C32.8349993,19.8033329 32.77,19.6700009 32.77,19.49 L32.77,13.05 C32.77,12.8766658 32.8316661,12.7483337 32.955,12.665 C33.078334,12.5816662 33.2166659,12.54 33.37,12.54 Z M39.64,14.59 C39.8066675,14.59 39.9533327,14.6333329 40.08,14.72 C40.2066673,14.8066671 40.27,14.9399991 40.27,15.12 L40.27,19.49 C40.27,19.6700009 40.2066673,19.8033329 40.08,19.89 C39.9533327,19.9766671 39.8066675,20.02 39.64,20.02 C39.4799992,20.02 39.3350006,19.9766671 39.205,19.89 C39.0749993,19.8033329 39.01,19.6700009 39.01,19.49 L39.01,15.12 C39.01,14.9399991 39.0749993,14.8066671 39.205,14.72 C39.3350006,14.6333329 39.4799992,14.59 39.64,14.59 Z M39.64,12.52 C39.8600011,12.52 40.0466659,12.5933326 40.2,12.74 C40.3533341,12.8866674 40.43,13.0666656 40.43,13.28 C40.43,13.4933344 40.3533341,13.6733326 40.2,13.82 C40.0466659,13.9666674 39.8600011,14.04 39.64,14.04 C39.4199989,14.04 39.2333341,13.9666674 39.08,13.82 C38.9266659,13.6733326 38.85,13.4933344 38.85,13.28 C38.85,13.0666656 38.9266659,12.8866674 39.08,12.74 C39.2333341,12.5933326 39.4199989,12.52 39.64,12.52 Z M43.96,12.54 C44.2066679,12.54 44.4333323,12.573333 44.64,12.64 C44.773334,12.6866669 44.8716663,12.7566662 44.935,12.85 C44.9983336,12.9433338 45.0133335,13.0699992 44.98,13.23 C44.9466665,13.3833341 44.8900004,13.498333 44.81,13.575 C44.7299996,13.6516671 44.6166674,13.6766668 44.47,13.65 C44.3899996,13.6366666 44.321667,13.6266667 44.265,13.62 C44.2083331,13.6133333 44.146667,13.61 44.08,13.61 C43.8466655,13.61 43.6783339,13.6683327 43.575,13.785 C43.4716662,13.9016673 43.42,14.0733322 43.42,14.3 L43.42,14.65 L44.44,14.65 C44.5933341,14.65 44.7049997,14.7016661 44.775,14.805 C44.8450004,14.9083339 44.88,15.0299993 44.88,15.17 C44.88,15.3100007 44.8450004,15.4316661 44.775,15.535 C44.7049997,15.6383338 44.5933341,15.69 44.44,15.69 L43.42,15.69 L43.42,19.49 C43.42,19.6700009 43.3566673,19.8033329 43.23,19.89 C43.1033327,19.9766671 42.9566675,20.02 42.79,20.02 C42.6299992,20.02 42.4850007,19.9766671 42.355,19.89 C42.2249994,19.8033329 42.16,19.6700009 42.16,19.49 L42.16,15.69 L41.65,15.69 C41.4966659,15.69 41.3850003,15.6383338 41.315,15.535 C41.2449996,15.4316661 41.21,15.3100007 41.21,15.17 C41.21,15.0299993 41.2449996,14.9083339 41.315,14.805 C41.3850003,14.7016661 41.4966659,14.65 41.65,14.65 L42.16,14.65 L42.16,14.27 C42.16,13.7166639 42.3083319,13.2900015 42.605,12.99 C42.9016681,12.6899985 43.3533303,12.54 43.96,12.54 Z M46.84,13.18 C47.0066675,13.18 47.1533327,13.2233329 47.28,13.31 C47.4066673,13.3966671 47.47,13.5333324 47.47,13.72 L47.47,14.65 L48.52,14.65 C48.6733341,14.65 48.7849997,14.7016661 48.855,14.805 C48.9250004,14.9083339 48.96,15.0299993 48.96,15.17 C48.96,15.3100007 48.9250004,15.4316661 48.855,15.535 C48.7849997,15.6383338 48.6733341,15.69 48.52,15.69 L47.47,15.69 L47.47,18.33 C47.47,18.7566688 47.6333317,18.97 47.96,18.97 C48.1133341,18.97 48.2666659,18.9433336 48.42,18.89 C48.5266672,18.8566665 48.6333328,18.8633331 48.74,18.91 C48.8466672,18.9566669 48.9266664,19.0599992 48.98,19.22 C49.0266669,19.3600007 49.0283335,19.4899994 48.985,19.61 C48.9416664,19.7300006 48.8566673,19.8166664 48.73,19.87 C48.6099994,19.9233336 48.4733341,19.9649998 48.32,19.995 C48.1666659,20.0250002 48.0100008,20.04 47.85,20.04 C47.2566637,20.04 46.8350013,19.8916682 46.585,19.595 C46.3349987,19.2983319 46.21,18.8566696 46.21,18.27 L46.21,15.69 L45.71,15.69 C45.5566659,15.69 45.4450004,15.6383338 45.375,15.535 C45.3049996,15.4316661 45.27,15.3100007 45.27,15.17 C45.27,15.0299993 45.3049996,14.9083339 45.375,14.805 C45.4450004,14.7016661 45.5566659,14.65 45.71,14.65 L46.21,14.65 L46.21,13.72 C46.21,13.5333324 46.2733327,13.3966671 46.4,13.31 C46.5266673,13.2233329 46.6733325,13.18 46.84,13.18 Z" id="Shift" fill-rule="nonzero"></path>
                            <path d="M5.41421356,4 L4.29289322,2.87867966 C3.90236893,2.48815536 3.90236893,1.85499039 4.29289322,1.46446609 C4.68341751,1.0739418 5.31658249,1.0739418 5.70710678,1.46446609 L8.53553391,4.29289322 C8.9260582,4.68341751 8.9260582,5.31658249 8.53553391,5.70710678 L5.70710678,8.53553391 C5.31658249,8.9260582 4.68341751,8.9260582 4.29289322,8.53553391 C3.90236893,8.14500961 3.90236893,7.51184464 4.29289322,7.12132034 L5.41421356,6 L-3.55271368e-15,6 C-0.55228475,6 -1,5.55228475 -1,5 C-1,4.44771525 -0.55228475,4 -3.77475828e-15,4 L5.41421356,4 Z" id="shift" transform="translate(3.914214, 5.000000) rotate(-90.000000) translate(-3.914214, -5.000000) "></path>
                        </g>
                    </g>
                </g>
            </g>
        </g>
    </g>
</svg>