<?xml version="1.0" encoding="UTF-8"?>
<svg width="50px" height="21px" viewBox="0 0 50 21" version="1.1" xmlns="http://www.w3.org/2000/svg" xmlns:xlink="http://www.w3.org/1999/xlink">
    <!-- Generator: Sketch 54.1 (76490) - https://sketchapp.com -->
    <title>shift-right</title>
    <desc>Created with Sketch.</desc>
    <g id="Page-1" stroke="none" stroke-width="1" fill="none" fill-rule="evenodd">
        <g id="keyboard1" transform="translate(-380.000000, -370.000000)" fill="#347DAF">
            <g id="en" transform="translate(10.000000, 235.000000)">
                <g id="text" transform="translate(17.000000, 46.000000)">
                    <g id="shift" transform="translate(4.000000, 88.000000)">
                        <g id="shift-right" transform="translate(349.874706, 0.171573)">
                            <path d="M2.59529419,13.5684271 C3.31529779,13.5684271 3.91862509,13.6917592 4.40529419,13.9384271 C4.55196159,14.0117608 4.64529399,14.1217597 4.68529419,14.2684271 C4.72529439,14.4150945 4.70529459,14.5617597 4.62529419,14.7084271 C4.54529379,14.8617612 4.44196149,14.9567603 4.31529419,14.9934271 C4.18862689,15.030094 4.05529489,15.0184274 3.91529419,14.9584271 C3.70195979,14.8650933 3.49862849,14.800094 3.30529419,14.7634271 C3.11195989,14.7267603 2.88196219,14.7084271 2.61529419,14.7084271 C2.39529309,14.7084271 2.20362834,14.7334269 2.04029419,14.7834271 C1.87696004,14.8334274 1.73862809,14.9000934 1.62529419,14.9834271 C1.51196029,15.0667609 1.42696114,15.1600933 1.37029419,15.2634271 C1.31362724,15.366761 1.28529419,15.4717599 1.28529419,15.5784271 L1.28529419,15.6384271 C1.28529419,15.7650944 1.30696064,15.8750933 1.35029419,15.9684271 C1.39362774,16.0617609 1.47029364,16.1467601 1.58029419,16.2234271 C1.69029474,16.3000942 1.84195989,16.3700935 2.03529419,16.4334271 C2.22862849,16.4967608 2.47862599,16.5584268 2.78529419,16.6184271 C3.61863169,16.7917613 4.21529239,17.0484254 4.57529419,17.3884271 C4.93529599,17.7284288 5.11529419,18.1650911 5.11529419,18.6984271 L5.11529419,18.7884271 C5.11529419,19.4750972 4.89196309,19.9984253 4.44529419,20.3584271 C3.99862529,20.7184289 3.33863189,20.8984271 2.46529419,20.8984271 C2.05195879,20.8984271 1.65029614,20.846761 1.26029419,20.7434271 C0.870292239,20.6400933 0.541962189,20.5050946 0.275294189,20.3384271 C0.115293389,20.2384266 0.0252942895,20.1100946 0.00529418946,19.9534271 C-0.0147059105,19.7967597 0.0219603895,19.6484278 0.115294189,19.5084271 C0.208627989,19.3617597 0.321960189,19.2717606 0.455294189,19.2384271 C0.588628189,19.2050936 0.731960089,19.23176 0.885294189,19.3184271 C1.11862869,19.4517611 1.37529279,19.5567601 1.65529419,19.6334271 C1.93529559,19.7100942 2.22529269,19.7484271 2.52529419,19.7484271 C2.98529649,19.7484271 3.31862649,19.6667613 3.52529419,19.5034271 C3.73196189,19.340093 3.83529419,19.135095 3.83529419,18.8884271 L3.83529419,18.8184271 C3.83529419,18.5384257 3.72696194,18.3200946 3.51029419,18.1634271 C3.29362644,18.0067597 2.94529659,17.8817609 2.46529419,17.7884271 C2.04529209,17.7084267 1.68196239,17.6150943 1.37529419,17.5084271 C1.06862599,17.4017599 0.813628539,17.2667613 0.610294189,17.1034271 C0.406959839,16.940093 0.256961339,16.7434283 0.160294189,16.5134271 C0.0636270395,16.283426 0.0152941895,16.0017621 0.0152941895,15.6684271 L0.0152941895,15.5984271 C0.0152941895,15.3184257 0.0702936395,15.055095 0.180294189,14.8084271 C0.290294739,14.5617592 0.455293089,14.3467614 0.675294189,14.1634271 C0.895295289,13.9800929 1.16529259,13.8350943 1.48529419,13.7284271 C1.80529579,13.6217599 2.17529209,13.5684271 2.59529419,13.5684271 Z M6.99529419,13.3684271 C7.14862829,13.3684271 7.28696024,13.4100934 7.41029419,13.4934271 C7.53362814,13.5767609 7.59529419,13.7050929 7.59529419,13.8784271 L7.59529419,16.1084271 L7.61529419,16.1084271 C7.69529459,15.9817598 7.79529359,15.8700943 7.91529419,15.7734271 C8.03529479,15.67676 8.16696014,15.5984274 8.31029419,15.5384271 C8.45362824,15.4784268 8.60529339,15.4334273 8.76529419,15.4034271 C8.92529499,15.373427 9.08196009,15.3584271 9.23529419,15.3584271 C9.82196379,15.3584271 10.2886258,15.5300921 10.6352942,15.8734271 C10.9819626,16.2167622 11.1552942,16.7250904 11.1552942,17.3984271 L11.1552942,20.3184271 C11.1552942,20.498428 11.0919615,20.63176 10.9652942,20.7184271 C10.8386269,20.8050942 10.6919617,20.8484271 10.5252942,20.8484271 C10.3652934,20.8484271 10.2202948,20.8050942 10.0902942,20.7184271 C9.96029354,20.63176 9.89529419,20.498428 9.89529419,20.3184271 L9.89529419,17.6684271 C9.89529419,17.4284259 9.86862779,17.2300946 9.81529419,17.0734271 C9.76196059,16.9167597 9.68862799,16.7934276 9.59529419,16.7034271 C9.50196039,16.6134267 9.39029484,16.550094 9.26029419,16.5134271 C9.13029354,16.4767603 8.99196159,16.4584271 8.84529419,16.4584271 C8.71862689,16.4584271 8.58529489,16.4784269 8.44529419,16.5184271 C8.30529349,16.5584273 8.17696144,16.6284266 8.06029419,16.7284271 C7.94362694,16.8284276 7.84696124,16.9617596 7.77029419,17.1284271 C7.69362714,17.2950946 7.65529419,17.5017592 7.65529419,17.7484271 L7.65529419,20.3184271 C7.65529419,20.498428 7.59196149,20.63176 7.46529419,20.7184271 C7.33862689,20.8050942 7.19196169,20.8484271 7.02529419,20.8484271 C6.86529339,20.8484271 6.72029484,20.8050942 6.59029419,20.7184271 C6.46029354,20.63176 6.39529419,20.498428 6.39529419,20.3184271 L6.39529419,13.8784271 C6.39529419,13.7050929 6.45696024,13.5767609 6.58029419,13.4934271 C6.70362814,13.4100934 6.84196009,13.3684271 6.99529419,13.3684271 Z M13.2652942,15.4184271 C13.4319617,15.4184271 13.5786269,15.46176 13.7052942,15.5484271 C13.8319615,15.6350942 13.8952942,15.7684262 13.8952942,15.9484271 L13.8952942,20.3184271 C13.8952942,20.498428 13.8319615,20.63176 13.7052942,20.7184271 C13.5786269,20.8050942 13.4319617,20.8484271 13.2652942,20.8484271 C13.1052934,20.8484271 12.9602948,20.8050942 12.8302942,20.7184271 C12.7002935,20.63176 12.6352942,20.498428 12.6352942,20.3184271 L12.6352942,15.9484271 C12.6352942,15.7684262 12.7002935,15.6350942 12.8302942,15.5484271 C12.9602948,15.46176 13.1052934,15.4184271 13.2652942,15.4184271 Z M13.2652942,13.3484271 C13.4852953,13.3484271 13.6719601,13.4217597 13.8252942,13.5684271 C13.9786283,13.7150945 14.0552942,13.8950927 14.0552942,14.1084271 C14.0552942,14.3217615 13.9786283,14.5017597 13.8252942,14.6484271 C13.6719601,14.7950945 13.4852953,14.8684271 13.2652942,14.8684271 C13.0452931,14.8684271 12.8586283,14.7950945 12.7052942,14.6484271 C12.5519601,14.5017597 12.4752942,14.3217615 12.4752942,14.1084271 C12.4752942,13.8950927 12.5519601,13.7150945 12.7052942,13.5684271 C12.8586283,13.4217597 13.0452931,13.3484271 13.2652942,13.3484271 Z M17.5852942,13.3684271 C17.8319621,13.3684271 18.0586265,13.4017601 18.2652942,13.4684271 C18.3986282,13.515094 18.4969605,13.5850933 18.5602942,13.6784271 C18.6236278,13.7717609 18.6386277,13.8984263 18.6052942,14.0584271 C18.5719607,14.2117612 18.5152946,14.3267601 18.4352942,14.4034271 C18.3552938,14.4800942 18.2419616,14.5050939 18.0952942,14.4784271 C18.0152938,14.4650937 17.9469611,14.4550938 17.8902942,14.4484271 C17.8336272,14.4417604 17.7719612,14.4384271 17.7052942,14.4384271 C17.4719597,14.4384271 17.303628,14.4967599 17.2002942,14.6134271 C17.0969603,14.7300944 17.0452942,14.9017593 17.0452942,15.1284271 L17.0452942,15.4784271 L18.0652942,15.4784271 C18.2186283,15.4784271 18.3302938,15.5300933 18.4002942,15.6334271 C18.4702945,15.736761 18.5052942,15.8584264 18.5052942,15.9984271 C18.5052942,16.1384278 18.4702945,16.2600933 18.4002942,16.3634271 C18.3302938,16.466761 18.2186283,16.5184271 18.0652942,16.5184271 L17.0452942,16.5184271 L17.0452942,20.3184271 C17.0452942,20.498428 16.9819615,20.63176 16.8552942,20.7184271 C16.7286269,20.8050942 16.5819617,20.8484271 16.4152942,20.8484271 C16.2552934,20.8484271 16.1102948,20.8050942 15.9802942,20.7184271 C15.8502935,20.63176 15.7852942,20.498428 15.7852942,20.3184271 L15.7852942,16.5184271 L15.2752942,16.5184271 C15.1219601,16.5184271 15.0102945,16.466761 14.9402942,16.3634271 C14.8702938,16.2600933 14.8352942,16.1384278 14.8352942,15.9984271 C14.8352942,15.8584264 14.8702938,15.736761 14.9402942,15.6334271 C15.0102945,15.5300933 15.1219601,15.4784271 15.2752942,15.4784271 L15.7852942,15.4784271 L15.7852942,15.0984271 C15.7852942,14.545091 15.933626,14.1184286 16.2302942,13.8184271 C16.5269623,13.5184256 16.9786245,13.3684271 17.5852942,13.3684271 Z M20.4652942,14.0084271 C20.6319617,14.0084271 20.7786269,14.05176 20.9052942,14.1384271 C21.0319615,14.2250942 21.0952942,14.3617595 21.0952942,14.5484271 L21.0952942,15.4784271 L22.1452942,15.4784271 C22.2986283,15.4784271 22.4102938,15.5300933 22.4802942,15.6334271 C22.5502945,15.736761 22.5852942,15.8584264 22.5852942,15.9984271 C22.5852942,16.1384278 22.5502945,16.2600933 22.4802942,16.3634271 C22.4102938,16.466761 22.2986283,16.5184271 22.1452942,16.5184271 L21.0952942,16.5184271 L21.0952942,19.1584271 C21.0952942,19.5850959 21.2586259,19.7984271 21.5852942,19.7984271 C21.7386283,19.7984271 21.8919601,19.7717607 22.0452942,19.7184271 C22.1519614,19.6850936 22.258627,19.6917602 22.3652942,19.7384271 C22.4719614,19.785094 22.5519606,19.8884263 22.6052942,20.0484271 C22.6519611,20.1884278 22.6536277,20.3184265 22.6102942,20.4384271 C22.5669606,20.5584277 22.4819615,20.6450935 22.3552942,20.6984271 C22.2352936,20.7517607 22.0986283,20.793427 21.9452942,20.8234271 C21.7919601,20.8534273 21.635295,20.8684271 21.4752942,20.8684271 C20.8819579,20.8684271 20.4602954,20.7200953 20.2102942,20.4234271 C19.9602929,20.126759 19.8352942,19.6850967 19.8352942,19.0984271 L19.8352942,16.5184271 L19.3352942,16.5184271 C19.1819601,16.5184271 19.0702945,16.466761 19.0002942,16.3634271 C18.9302938,16.2600933 18.8952942,16.1384278 18.8952942,15.9984271 C18.8952942,15.8584264 18.9302938,15.736761 19.0002942,15.6334271 C19.0702945,15.5300933 19.1819601,15.4784271 19.3352942,15.4784271 L19.8352942,15.4784271 L19.8352942,14.5484271 C19.8352942,14.3617595 19.8986269,14.2250942 20.0252942,14.1384271 C20.1519615,14.05176 20.2986267,14.0084271 20.4652942,14.0084271 Z" id="Shift" fill-rule="nonzero"></path>
                            <path d="M46.5395078,4.82842712 L45.4181874,3.70710678 C45.0276631,3.31658249 45.0276631,2.68341751 45.4181874,2.29289322 C45.8087117,1.90236893 46.4418767,1.90236893 46.832401,2.29289322 L49.6608281,5.12132034 C50.0513524,5.51184464 50.0513524,6.14500961 49.6608281,6.53553391 L46.832401,9.36396103 C46.4418767,9.75448532 45.8087117,9.75448532 45.4181874,9.36396103 C45.0276631,8.97343674 45.0276631,8.34027176 45.4181874,7.94974747 L46.5395078,6.82842712 L41.1252942,6.82842712 C40.5730094,6.82842712 40.1252942,6.38071187 40.1252942,5.82842712 C40.1252942,5.27614237 40.5730094,4.82842712 41.1252942,4.82842712 L46.5395078,4.82842712 Z" id="shift" transform="translate(45.039508, 5.828427) rotate(-90.000000) translate(-45.039508, -5.828427) "></path>
                        </g>
                    </g>
                </g>
            </g>
        </g>
    </g>
</svg>