<?xml version="1.0" encoding="UTF-8"?>
<svg width="49px" height="11px" viewBox="0 0 49 11" version="1.1" xmlns="http://www.w3.org/2000/svg" xmlns:xlink="http://www.w3.org/1999/xlink">
    <!-- Generator: Sketch 54.1 (76490) - https://sketchapp.com -->
    <title>space</title>
    <desc>Created with Sketch.</desc>
    <g id="Page-1" stroke="none" stroke-width="1" fill="none" fill-rule="evenodd">
        <g id="keyboard1" transform="translate(-212.000000, -399.000000)">
            <g id="en" transform="translate(10.000000, 235.000000)">
                <g id="text" transform="translate(17.000000, 46.000000)">
                    <g id="space" transform="translate(0.000000, 114.000000)">
                        <g transform="translate(185.610000, 4.700000)">
                            <path d="M3.79,7.3 C3.6166658,7.4933343 3.3866681,7.65166605 3.1,7.775 C2.8133319,7.89833395 2.5200015,7.9733332 2.22,8 C2.0599992,8.0200001 1.87833435,8.0233334 1.675,8.01 C1.47166565,7.9966666 1.2733343,7.97500015 1.08,7.945 C0.8866657,7.91499985 0.7100008,7.88166685 0.55,7.845 C0.3899992,7.80833315 0.2700004,7.7733335 0.19,7.74 C0.1166663,7.7066665 0.0700001,7.67500015 0.05,7.645 C0.0299999,7.61499985 0.0266666,7.5600004 0.04,7.48 L0.14,6.51 C0.1466667,6.443333 0.16166655,6.4033334 0.185,6.39 C0.20833345,6.3766666 0.2599996,6.3866665 0.34,6.42 C0.4666673,6.4733336 0.61166585,6.52166645 0.775,6.565 C0.93833415,6.60833355 1.10499915,6.64166655 1.275,6.665 C1.44500085,6.68833345 1.61166585,6.7033333 1.775,6.71 C1.93833415,6.7166667 2.086666,6.7033335 2.22,6.67 C2.5000014,6.603333 2.6999994,6.4933341 2.82,6.34 C2.9400006,6.1866659 3,5.9666681 3,5.68 C3,5.6199997 2.9866668,5.5500004 2.96,5.47 C2.9333332,5.3899996 2.8833337,5.30166715 2.81,5.205 C2.7366663,5.10833285 2.63833395,5.0066672 2.515,4.9 C2.39166605,4.7933328 2.2333343,4.6800006 2.04,4.56 C1.6733315,4.3333322 1.36166795,4.1233343 1.105,3.93 C0.84833205,3.7366657 0.63833415,3.54500095 0.475,3.355 C0.31166585,3.16499905 0.19166705,2.970001 0.115,2.77 C0.03833295,2.569999 0,2.3500012 0,2.11 C0,1.8099985 0.06166605,1.53166795 0.185,1.275 C0.30833395,1.01833205 0.47833225,0.79500095 0.695,0.605 C0.91166775,0.41499905 1.1666652,0.2666672 1.46,0.16 C1.7533348,0.0533328 2.0699983,-8.17124146e-14 2.41,-8.17124146e-14 C2.7500017,-8.17124146e-14 3.04166545,0.02499975 3.285,0.075 C3.52833455,0.12500025 3.7299992,0.1866663 3.89,0.26 C3.9766671,0.3000002 4.02499995,0.3333332 4.035,0.36 C4.04500005,0.3866668 4.0433334,0.4366663 4.03,0.51 L3.84,1.36 C3.8266666,1.4200003 3.8033335,1.4566666 3.77,1.47 C3.7366665,1.4833334 3.6700005,1.4733335 3.57,1.44 C3.2566651,1.3399995 2.96833465,1.2800001 2.705,1.26 C2.44166535,1.2399999 2.2133343,1.263333 2.02,1.33 C1.8266657,1.396667 1.67500055,1.50166595 1.565,1.645 C1.45499945,1.78833405 1.4,1.9699989 1.4,2.19 C1.4,2.3500008 1.47166595,2.5133325 1.615,2.68 C1.75833405,2.8466675 1.9899984,3.0266657 2.31,3.22 C2.7166687,3.4733346 3.05499865,3.699999 3.325,3.9 C3.59500135,4.100001 3.8099992,4.29499905 3.97,4.485 C4.1300008,4.67500095 4.243333,4.86833235 4.31,5.065 C4.376667,5.26166765 4.41,5.4799988 4.41,5.72 C4.41,6.0400016 4.35500055,6.3299987 4.245,6.59 C4.13499945,6.8500013 3.9833343,7.0866656 3.79,7.3 Z M8.06,8.09 C7.8533323,8.09 7.64166775,8.0433338 7.425,7.95 C7.20833225,7.8566662 7.0200008,7.7133343 6.86,7.52 L6.86,9.23 C6.86,9.3033337 6.84833345,9.35499985 6.825,9.385 C6.80166655,9.41500015 6.7500004,9.43 6.67,9.43 L5.74,9.43 C5.6666663,9.43 5.6166668,9.41500015 5.59,9.385 C5.5633332,9.35499985 5.55,9.3033337 5.55,9.23 L5.55,2.45 C5.55,2.3566662 5.56833315,2.29500015 5.605,2.265 C5.64166685,2.23499985 5.6966663,2.22 5.77,2.22 L6.67,2.22 C6.7500004,2.22 6.80499985,2.23166655 6.835,2.255 C6.86500015,2.27833345 6.88,2.3266663 6.88,2.4 L6.88,2.79 C6.9400003,2.7099996 7.0166662,2.63166705 7.11,2.555 C7.2033338,2.47833295 7.3066661,2.41166695 7.42,2.355 C7.5333339,2.29833305 7.65499935,2.2533335 7.785,2.22 C7.91500065,2.1866665 8.0433327,2.17 8.17,2.17 C8.5100017,2.17 8.81499865,2.2399993 9.085,2.38 C9.35500135,2.5200007 9.5866657,2.7199987 9.78,2.98 C9.9733343,3.2400013 10.1216661,3.5533315 10.225,3.92 C10.3283338,4.2866685 10.38,4.6999977 10.38,5.16 C10.38,5.5933355 10.3266672,5.9899982 10.22,6.35 C10.1133328,6.7100018 9.960001,7.01833205 9.76,7.275 C9.559999,7.53166795 9.3166681,7.73166595 9.03,7.875 C8.7433319,8.01833405 8.4200018,8.09 8.06,8.09 Z M7.94,3.39 C7.7999993,3.39 7.66500065,3.42499965 7.535,3.495 C7.40499935,3.56500035 7.2900005,3.67166595 7.19,3.815 C7.0899995,3.95833405 7.00833365,4.1399989 6.945,4.36 C6.88166635,4.5800011 6.85,4.8399985 6.85,5.14 C6.85,5.4533349 6.87833305,5.7199989 6.935,5.94 C6.99166695,6.1600011 7.06833285,6.3399993 7.165,6.48 C7.26166715,6.6200007 7.376666,6.72166635 7.51,6.785 C7.643334,6.84833365 7.7866659,6.88 7.94,6.88 C8.273335,6.88 8.54166565,6.7400014 8.745,6.46 C8.94833435,6.1799986 9.05,5.740003 9.05,5.14 C9.05,4.5133302 8.9466677,4.06500135 8.74,3.795 C8.5333323,3.52499865 8.2666683,3.39 7.94,3.39 Z M14.64,7.87 C14.5799997,7.87 14.5416667,7.8633334 14.525,7.85 C14.5083332,7.8366666 14.5,7.796667 14.5,7.73 L14.5,7.3 C14.3866661,7.4800009 14.201668,7.6333327 13.945,7.76 C13.688332,7.8866673 13.4333346,7.95 13.18,7.95 C12.9066653,7.95 12.6433346,7.91166705 12.39,7.835 C12.1366654,7.75833295 11.9283341,7.63833415 11.765,7.475 C11.6016658,7.31166585 11.4733338,7.11500115 11.38,6.885 C11.2866662,6.65499885 11.24,6.3933348 11.24,6.1 C11.24,5.7533316 11.3233325,5.4400014 11.49,5.16 C11.6566675,4.8799986 11.8783319,4.66166745 12.155,4.505 C12.431668,4.34833255 12.7599981,4.23500035 13.14,4.165 C13.5200019,4.09499965 13.9399977,4.0733332 14.4,4.1 C14.3599998,3.5733307 14.1333354,3.2833336 13.72,3.23 C13.586666,3.2166666 13.4516673,3.2199999 13.315,3.24 C13.1783326,3.2600001 13.0450006,3.29166645 12.915,3.335 C12.7849993,3.37833355 12.6600006,3.42833305 12.54,3.485 C12.4199994,3.54166695 12.3133338,3.5999997 12.22,3.66 C12.0799993,3.7533338 11.9800003,3.8 11.92,3.8 C11.8599997,3.8 11.83,3.733334 11.83,3.6 L11.83,2.77 C11.83,2.6833329 11.8383332,2.62166685 11.855,2.585 C11.8716667,2.54833315 11.9199996,2.5100002 12,2.47 C12.200001,2.3699995 12.4349986,2.2766671 12.705,2.19 C12.9750013,2.1033329 13.2933315,2.06 13.66,2.06 C14.3400034,2.06 14.8483316,2.2333316 15.185,2.58 C15.5216683,2.9266684 15.69,3.4633297 15.69,4.19 L15.69,6.755 C15.69,6.85833385 15.6916667,6.9633328 15.695,7.07 C15.6983333,7.1766672 15.7016666,7.27833285 15.705,7.375 C15.7083333,7.47166715 15.7133333,7.5566663 15.72,7.63 C15.7333334,7.763334 15.7266668,7.8366666 15.7,7.85 C15.6733332,7.8633334 15.626667,7.87 15.56,7.87 L14.64,7.87 Z M14.5,5.11 C14.1199981,5.1166667 13.8066679,5.14499975 13.56,5.195 C13.3133321,5.24500025 13.1150007,5.3133329 12.965,5.4 C12.8149992,5.4866671 12.7133336,5.5899994 12.66,5.71 C12.6066664,5.8300006 12.58,5.9633326 12.58,6.11 C12.58,6.3233344 12.6433327,6.48833275 12.77,6.605 C12.8966673,6.72166725 13.0733322,6.78 13.3,6.78 C13.6600018,6.78 13.9483322,6.64833465 14.165,6.385 C14.3816677,6.12166535 14.4933333,5.6966696 14.5,5.11 Z M20.84,7.81 C20.7666663,7.8433335 20.6750005,7.8733332 20.565,7.9 C20.4549995,7.9266668 20.3350006,7.94833325 20.205,7.965 C20.0749993,7.98166675 19.9400007,7.99166665 19.8,7.995 C19.6599993,7.99833335 19.5266673,7.9933334 19.4,7.98 C18.9799979,7.9466665 18.6083349,7.8500008 18.285,7.69 C17.961665,7.5299992 17.6900011,7.32166795 17.47,7.065 C17.2499989,6.80833205 17.0833339,6.5066684 16.97,6.16 C16.8566661,5.8133316 16.8,5.4366687 16.8,5.03 C16.8,4.6033312 16.866666,4.2100018 17,3.85 C17.133334,3.4899982 17.3216654,3.1800013 17.565,2.92 C17.8083345,2.6599987 18.1016649,2.45833405 18.445,2.315 C18.7883351,2.17166595 19.1699979,2.1 19.59,2.1 C19.7833343,2.1 19.9949989,2.1133332 20.225,2.14 C20.4550011,2.1666668 20.6666657,2.213333 20.86,2.28 C20.9200003,2.3000001 20.955,2.3233332 20.965,2.35 C20.975,2.3766668 20.9766667,2.4266663 20.97,2.5 L20.87,3.27 C20.8566666,3.3500004 20.8350001,3.4033332 20.805,3.43 C20.7749998,3.4566668 20.7100005,3.4533335 20.61,3.42 C20.4699993,3.3666664 20.300001,3.32833345 20.1,3.305 C19.899999,3.28166655 19.7233341,3.2733333 19.57,3.28 C19.1099977,3.2933334 18.7550012,3.45833175 18.505,3.775 C18.2549987,4.09166825 18.13,4.5099974 18.13,5.03 C18.13,5.5300025 18.2483321,5.9333318 18.485,6.24 C18.7216678,6.5466682 19.0533312,6.7233331 19.48,6.77 C19.6933344,6.8033335 19.9049989,6.80833345 20.115,6.785 C20.325001,6.76166655 20.5099992,6.7233336 20.67,6.67 C20.7766672,6.6366665 20.8416665,6.62833325 20.865,6.645 C20.8883335,6.66166675 20.9033333,6.7066663 20.91,6.78 L20.97,7.55 C20.9766667,7.6300004 20.9716667,7.68499985 20.955,7.715 C20.9383332,7.74500015 20.9000003,7.7766665 20.84,7.81 Z M26.31,5.24 C26.3033333,5.3200004 26.2850001,5.38166645 26.255,5.425 C26.2249998,5.46833355 26.1700004,5.49 26.09,5.49 L22.96,5.49 C23.0066669,5.9366689 23.1483321,6.2666656 23.385,6.48 C23.6216678,6.6933344 23.9033317,6.8066666 24.23,6.82 C24.5366682,6.8333334 24.8049989,6.8033337 25.035,6.73 C25.2650011,6.6566663 25.4866656,6.553334 25.7,6.42 C25.7933338,6.3599997 25.8566665,6.3433332 25.89,6.37 C25.9233335,6.3966668 25.94,6.4666661 25.94,6.58 L25.94,7.33 C25.94,7.4033337 25.9316667,7.4533332 25.915,7.48 C25.8983332,7.5066668 25.8600003,7.5433331 25.8,7.59 C25.6066657,7.723334 25.3616681,7.823333 25.065,7.89 C24.7683318,7.956667 24.4766681,7.99 24.19,7.99 C23.389996,7.99 22.7583356,7.7333359 22.295,7.22 C21.8316643,6.7066641 21.6,5.9766714 21.6,5.03 C21.6,4.6766649 21.6466662,4.3233351 21.74,3.97 C21.8333338,3.6166649 21.9833323,3.29833475 22.19,3.015 C22.3966677,2.73166525 22.6499985,2.50166755 22.95,2.325 C23.2500015,2.14833245 23.6066646,2.06 24.02,2.06 C24.4400021,2.06 24.7949986,2.1366659 25.085,2.29 C25.3750014,2.4433341 25.6116657,2.6499987 25.795,2.91 C25.9783342,3.1700013 26.1099996,3.47166495 26.19,3.815 C26.2700004,4.15833505 26.31,4.5233314 26.31,4.91 L26.31,5.24 Z M24.05,3.22 C23.9099993,3.22 23.7800006,3.253333 23.66,3.32 C23.5399994,3.386667 23.4350004,3.4733328 23.345,3.58 C23.2549995,3.6866672 23.176667,3.8099993 23.11,3.95 C23.043333,4.0900007 23.0000001,4.2366659 22.98,4.39 L25.01,4.39 C25.01,4.256666 24.9883335,4.1200007 24.945,3.98 C24.9016664,3.8399993 24.841667,3.71500055 24.765,3.605 C24.6883329,3.49499945 24.5900006,3.4033337 24.47,3.33 C24.3499994,3.2566663 24.2100008,3.22 24.05,3.22 Z" id="Space" fill="#333333" fill-rule="nonzero"></path>
                            <path d="M48.39,7.3 C48.39,7.85228475 47.9422847,8.3 47.39,8.3 L37.39,8.3 C36.8377153,8.3 36.39,7.85228475 36.39,7.3 L36.39,3.3 C36.39,2.74771525 36.8377153,2.3 37.39,2.3 C37.9422847,2.3 38.39,2.74771525 38.39,3.3 L38.39,6.3 L46.39,6.3 L46.39,3.3 C46.39,2.74771525 46.8377153,2.3 47.39,2.3 C47.9422847,2.3 48.39,2.74771525 48.39,3.3 L48.39,7.3 Z" fill="#347DAF"></path>
                        </g>
                    </g>
                </g>
            </g>
        </g>
    </g>
</svg>