<?xml version="1.0" encoding="UTF-8"?>
<svg width="18px" height="20px" viewBox="0 0 18 20" version="1.1" xmlns="http://www.w3.org/2000/svg" xmlns:xlink="http://www.w3.org/1999/xlink">
    <!-- Generator: Sketch 54.1 (76490) - https://sketchapp.com -->
    <title>tab</title>
    <desc>Created with Sketch.</desc>
    <g id="Page-1" stroke="none" stroke-width="1" fill="none" fill-rule="evenodd">
        <g id="keyboard1" transform="translate(-33.000000, -313.000000)" fill="#347DAF">
            <g id="en" transform="translate(10.000000, 235.000000)">
                <g id="tab" transform="translate(23.000000, 78.000000)">
                    <path d="M5.69,11.85 C5.8433341,11.85 5.9566663,11.9033328 6.03,12.01 C6.1033337,12.1166672 6.14,12.2433326 6.14,12.39 C6.14,12.5366674 6.1033337,12.6633328 6.03,12.77 C5.9566663,12.8766672 5.8433341,12.93 5.69,12.93 L3.97,12.93 L3.97,18.47 C3.97,18.6633343 3.9066673,18.8033329 3.78,18.89 C3.6533327,18.9766671 3.5033342,19.02 3.33,19.02 C3.1566658,19.02 3.0066673,18.9766671 2.88,18.89 C2.7533327,18.8033329 2.69,18.6633343 2.69,18.47 L2.69,12.93 L0.96,12.93 C0.8066659,12.93 0.6933337,12.8766672 0.62,12.77 C0.5466663,12.6633328 0.51,12.5366674 0.51,12.39 C0.51,12.2433326 0.5466663,12.1166672 0.62,12.01 C0.6933337,11.9033328 0.8066659,11.85 0.96,11.85 L5.69,11.85 Z M8.25,16.69 C7.916665,16.69 7.68500065,16.7533327 7.555,16.88 C7.42499935,17.0066673 7.36,17.1766656 7.36,17.39 L7.36,17.41 C7.36,17.7966686 7.6099975,17.99 8.11,17.99 C8.5033353,17.99 8.8133322,17.923334 9.04,17.79 C9.2000008,17.6966662 9.31499965,17.5866673 9.385,17.46 C9.45500035,17.3333327 9.49,17.1633344 9.49,16.95 L9.49,16.69 L8.25,16.69 Z M8.51,13.53 C8.8300016,13.53 9.1266653,13.5699996 9.4,13.65 C9.6733347,13.7300004 9.90833235,13.8449993 10.105,13.995 C10.3016677,14.1450008 10.4549995,14.3283322 10.565,14.545 C10.6750006,14.7616678 10.73,15.0099986 10.73,15.29 L10.73,18.54 C10.73,18.7066675 10.6716673,18.828333 10.555,18.905 C10.4383328,18.981667 10.3066674,19.02 10.16,19.02 C10.0133326,19.02 9.88166725,18.981667 9.765,18.905 C9.64833275,18.828333 9.59,18.7066675 9.59,18.54 L9.59,18.28 L9.58,18.28 C9.5266664,18.3933339 9.4500005,18.4933329 9.35,18.58 C9.2499995,18.6666671 9.1300007,18.7466663 8.99,18.82 C8.856666,18.886667 8.7033342,18.9399998 8.53,18.98 C8.3566658,19.0200002 8.1833342,19.04 8.01,19.04 C7.409997,19.04 6.94833495,18.9033347 6.625,18.63 C6.30166505,18.3566653 6.14,17.9700025 6.14,17.47 L6.14,17.31 C6.14,17.0833322 6.17499965,16.8733343 6.245,16.68 C6.31500035,16.4866657 6.43166585,16.3183341 6.595,16.175 C6.75833415,16.031666 6.97166535,15.9200004 7.235,15.84 C7.49833465,15.7599996 7.8266647,15.72 8.22,15.72 L9.48,15.72 L9.48,15.58 C9.48,15.2399983 9.40166745,14.9950007 9.245,14.845 C9.08833255,14.6949993 8.8400017,14.62 8.5,14.62 C8.0466644,14.62 7.620002,14.7399988 7.22,14.98 C7.086666,15.0600004 6.95500065,15.0816668 6.825,15.045 C6.69499935,15.0083332 6.5900004,14.923334 6.51,14.79 C6.4366663,14.6633327 6.40833325,14.5316673 6.425,14.395 C6.44166675,14.2583326 6.516666,14.1466671 6.65,14.06 C6.8900012,13.8999992 7.17166505,13.7716672 7.495,13.675 C7.81833495,13.5783329 8.1566649,13.53 8.51,13.53 Z M12.78,11.54 C12.9466675,11.54 13.0933327,11.5833329 13.22,11.67 C13.3466673,11.7566671 13.41,11.8899991 13.41,12.07 L13.41,14.19 C13.4966671,14.0633327 13.6049993,13.9566671 13.735,13.87 C13.8650006,13.7833329 13.9983327,13.7150002 14.135,13.665 C14.2716674,13.6149997 14.4083326,13.5800001 14.545,13.56 C14.6816673,13.5399999 14.8066661,13.53 14.92,13.53 C15.6466703,13.53 16.1866649,13.7516644 16.54,14.195 C16.8933351,14.6383356 17.07,15.2899957 17.07,16.15 L17.07,16.41 C17.07,16.8433355 17.0166672,17.2249983 16.91,17.555 C16.8033328,17.8850016 16.6533343,18.1599989 16.46,18.38 C16.2666657,18.6000011 16.0350014,18.7649994 15.765,18.875 C15.4949986,18.9850006 15.193335,19.04 14.86,19.04 C14.4933315,19.04 14.1866679,18.973334 13.94,18.84 C13.6933321,18.706666 13.5066673,18.5333344 13.38,18.32 L13.35,18.32 L13.35,18.51 C13.35,18.6833342 13.288334,18.8116663 13.165,18.895 C13.041666,18.9783338 12.9033341,19.02 12.75,19.02 C12.5966659,19.02 12.458334,18.9783338 12.335,18.895 C12.2116661,18.8116663 12.15,18.6833342 12.15,18.51 L12.15,12.07 C12.15,11.8899991 12.2149994,11.7566671 12.345,11.67 C12.4750007,11.5833329 12.6199992,11.54 12.78,11.54 Z M14.67,14.61 C14.2499979,14.61 13.9316678,14.7316654 13.715,14.975 C13.4983323,15.2183345 13.39,15.5299981 13.39,15.91 L13.39,16.84 C13.39,16.9800007 13.423333,17.116666 13.49,17.25 C13.556667,17.383334 13.6466661,17.5033328 13.76,17.61 C13.8733339,17.7166672 14.0099992,17.803333 14.17,17.87 C14.3300008,17.936667 14.5066657,17.97 14.7,17.97 C15.4466704,17.97 15.82,17.4400053 15.82,16.38 L15.82,16.18 C15.82,15.6599974 15.7333342,15.2683346 15.56,15.005 C15.3866658,14.7416653 15.0900021,14.61 14.67,14.61 Z" id="Tab" fill-rule="nonzero"></path>
                    <path d="M7.41421356,3 L6.29289322,1.87867966 C5.90236893,1.48815536 5.90236893,0.854990386 6.29289322,0.464466094 C6.68341751,0.0739418023 7.31658249,0.0739418023 7.70710678,0.464466094 L10.5355339,3.29289322 C10.9260582,3.68341751 10.9260582,4.31658249 10.5355339,4.70710678 L7.70710678,7.53553391 C7.31658249,7.9260582 6.68341751,7.9260582 6.29289322,7.53553391 C5.90236893,7.14500961 5.90236893,6.51184464 6.29289322,6.12132034 L7.41421356,5 L2,5 C1.44771525,5 1,4.55228475 1,4 C1,3.44771525 1.44771525,3 2,3 L7.41421356,3 Z M13,0 C13.5522847,-1.01453063e-16 14,0.44771525 14,1 L14,7 C14,7.55228475 13.5522847,8 13,8 C12.4477153,8 12,7.55228475 12,7 L12,1 C12,0.44771525 12.4477153,1.01453063e-16 13,0 Z"></path>
                </g>
            </g>
        </g>
    </g>
</svg>