<?xml version="1.0" encoding="utf-8"?>
<!-- Generator: Adobe Illustrator 13.0.0, SVG Export Plug-In . SVG Version: 6.00 Build 14948)  -->
<!DOCTYPE svg PUBLIC "-//W3C//DTD SVG 1.1//EN" "http://www.w3.org/Graphics/SVG/1.1/DTD/svg11.dtd">
<svg version="1.1" id="Layer_1" xmlns="http://www.w3.org/2000/svg" xmlns:xlink="http://www.w3.org/1999/xlink" x="0px" y="0px"
	 width="46.189px" height="42.173px" viewBox="0 0 46.189 42.173" enable-background="new 0 0 46.189 42.173" xml:space="preserve">
<g>
	<defs>
		<rect id="SVGID_1_" y="0" width="46.189" height="42.173"/>
	</defs>
	<clipPath id="SVGID_2_">
		<use xlink:href="#SVGID_1_"  overflow="visible"/>
	</clipPath>
	<path clip-path="url(#SVGID_2_)" fill="#FDFDFD" d="M37.52,33.532c-0.072,0.008-0.119,0.041-0.124,0.118l0.006-0.011
		c-0.654,0.348-1.355,0.379-2.08,0.378c-8.056-0.011-16.111-0.008-24.167-0.006c-0.546,0-1.093,0.018-1.626-0.136l0.013,0.004
		c-0.084-0.127-0.217-0.181-0.352-0.232c-0.147-0.146-0.294-0.292-0.441-0.437c-0.33-0.533-0.414-1.116-0.412-1.735
		c0.012-3.553,0.008-7.104,0.009-10.658c0.001-0.829,0.08-1.66-0.03-2.488c0.004-0.253,0.007-0.506,0.011-0.76
		c0-0.608,0-1.216,0.001-1.824c-0.064-1.561,0.696-3.268,2.707-3.789c2.331-0.604,4.598-1.448,6.908-2.139
		c1.708-0.512,3.35-1.283,5.17-1.375c0.681,0.041,1.339,0.185,1.992,0.385c3.586,1.101,7.17,2.206,10.766,3.273
		c1.106,0.328,1.933,0.902,2.311,2.026c0.008,1.111,0.031,2.223,0.017,3.335c-0.005,0.369,0.103,0.477,0.474,0.475
		c2.337-0.016,4.676-0.018,7.014,0c0.396,0.003,0.508-0.108,0.504-0.505c-0.019-2.319-0.007-4.638-0.015-6.957
		c0-0.215,0.066-0.456-0.129-0.637c0.002-0.07,0.004-0.139,0.006-0.209c-0.008-0.075-0.016-0.151-0.023-0.226
		c-0.324-1.328-0.936-2.46-2.313-2.919c-6.175-2.058-12.357-4.091-18.54-6.128c-0.664-0.218-1.341-0.388-2.052-0.342
		c-0.748-0.062-1.466,0.1-2.166,0.331C14.782,2.388,8.611,4.438,2.439,6.488C1.018,6.96,0.041,8.149,0.02,9.645
		c-0.042,2.944-0.006,5.888-0.003,8.833c-0.005,7.082-0.013,14.165-0.01,21.247c0.001,0.349,0.021,0.722,0.304,0.997l-0.006-0.004
		c0.002,0.194,0.089,0.343,0.245,0.454l-0.006-0.002c0.146,0.287,0.339,0.519,0.674,0.588l0.002-0.016
		c0.372,0.429,0.874,0.418,1.376,0.412c0.156,0,0.313,0,0.469,0c0.17,0.007,0.339,0.019,0.509,0.019
		c13.152,0.001,26.303,0.001,39.454,0c0.17,0,0.34-0.012,0.509-0.019c0.081,0,0.162-0.002,0.243-0.002
		c0.622,0.003,1.172-0.173,1.598-0.65c0.033-0.034,0.067-0.067,0.101-0.102c0.039-0.043,0.078-0.086,0.116-0.129l-0.003,0.006
		c0.124-0.082,0.202-0.197,0.231-0.345c0.216-0.268,0.315-0.576,0.315-0.918c0.013-0.093,0.036-0.186,0.036-0.28
		c0.003-5.48,0.001-10.963,0.012-16.443c0.001-0.336-0.124-0.405-0.43-0.404c-2.381,0.011-4.763,0.012-7.144,0
		c-0.324-0.002-0.415,0.099-0.414,0.417c0.015,2.93,0.015,5.859,0.019,8.789c-0.118,0.166-0.109,0.363-0.13,0.553l0.005-0.008
		c-0.063,0.116-0.126,0.233-0.188,0.35c-0.026,0.024-0.039,0.055-0.038,0.092c-0.085,0.056-0.136,0.132-0.132,0.237l0.01-0.012
		c-0.076,0.006-0.113,0.05-0.12,0.123l0.009-0.009c-0.073,0.009-0.113,0.049-0.122,0.123L37.52,33.532z"/>
	<path clip-path="url(#SVGID_2_)" fill="#6186C3" d="M8.748,33.209c0.147,0.146,0.295,0.292,0.442,0.438
		c-0.002,0.257,0.166,0.257,0.351,0.233l-0.012-0.006c0.203,0.312,0.524,0.246,0.818,0.246c4.223,0.003,8.446,0.002,12.668,0.002
		c0,2.647,0,5.294,0,7.941c-6.45,0-12.901-0.001-19.351,0.003c-0.2,0-0.417-0.067-0.598,0.087c-0.157-0.001-0.313-0.001-0.47-0.001
		c-0.424-0.251-0.936-0.21-1.375-0.411l-0.002,0.016c-0.133-0.303-0.317-0.545-0.675-0.587l0.006,0.002
		c-0.006-0.193-0.046-0.367-0.245-0.454l0.007,0.004c0.039-0.606-0.221-1.166-0.218-1.78c0.025-5.476,0.014-10.951,0.014-16.427
		c0-1.114,0.008-2.228-0.004-3.342c-0.003-0.318,0.063-0.482,0.433-0.48c2.398,0.012,4.796,0.012,7.193-0.001
		c0.368-0.001,0.45,0.155,0.436,0.478C8.148,19.584,8.162,20,8.162,20.416c0,3.738-0.014,7.477,0.015,11.215
		C8.182,32.188,8.091,32.855,8.748,33.209"/>
	<path clip-path="url(#SVGID_2_)" fill="#6186C3" d="M46.139,40.015c0,0.342-0.1,0.649-0.315,0.917
		c-0.162,0.059-0.237,0.175-0.232,0.345l0.005-0.005c-0.039,0.043-0.078,0.086-0.117,0.129c-0.034,0.033-0.067,0.066-0.101,0.1
		c-0.596,0.062-1.04,0.495-1.598,0.651c-0.081,0.001-0.162,0.001-0.243,0.002c-0.181-0.154-0.397-0.087-0.598-0.087
		c-6.602-0.003-13.202-0.002-19.803-0.002c0-2.647-0.001-5.295-0.001-7.942c4.344,0,8.687,0.002,13.031-0.002
		c0.469,0,0.948-0.002,1.235-0.481c0,0-0.006,0.011-0.005,0.011c0.041-0.039,0.082-0.079,0.123-0.118l-0.008,0.01
		c0.041-0.041,0.081-0.082,0.121-0.123l-0.009,0.01c0.04-0.041,0.08-0.082,0.12-0.123l-0.01,0.011
		c0.128-0.033,0.137-0.131,0.132-0.238c-0.001-0.036,0.012-0.067,0.038-0.091c0.227-0.028,0.195-0.196,0.189-0.349l-0.006,0.008
		c0.155-0.074,0.116-0.225,0.139-0.351c0.179-0.172,0.099-0.393,0.1-0.591c0.005-2.703,0.015-5.406-0.007-8.107
		c-0.004-0.478,0.142-0.604,0.608-0.6c2.153,0.022,4.309,0.026,6.463-0.002c0.521-0.007,0.664,0.137,0.662,0.661
		c-0.02,5.235-0.013,10.47-0.008,15.705C46.045,39.58,45.966,39.818,46.139,40.015"/>
	<path clip-path="url(#SVGID_2_)" fill="#E3942C" d="M8.326,17.57c-0.004,0.253-0.008,0.507-0.011,0.759
		c-0.127,0.19-0.324,0.158-0.51,0.158c-2.596-0.003-5.192-0.007-7.788-0.01c-0.004-2.944-0.039-5.889,0.003-8.832
		c0.021-1.496,0.998-2.684,2.419-3.156c6.172-2.05,12.343-4.101,18.517-6.144c0.699-0.231,1.418-0.393,2.166-0.331
		c-0.003,2.809-0.007,5.619-0.01,8.428c-1.82,0.092-3.462,0.864-5.17,1.375c-2.31,0.692-4.578,1.536-6.909,2.14
		c-2.01,0.52-2.77,2.227-2.707,3.786C8.326,16.351,8.326,16.96,8.326,17.57"/>
	<path clip-path="url(#SVGID_2_)" fill="#6186C3" d="M23.112,8.442c0.003-2.81,0.007-5.619,0.01-8.429
		c0.71-0.046,1.388,0.124,2.052,0.343c6.181,2.036,12.363,4.069,18.539,6.127c1.378,0.459,1.989,1.591,2.313,2.919
		c-0.112,0.089-0.088,0.162,0.025,0.226c-0.002,0.07-0.004,0.14-0.007,0.209c-0.001,2.476-0.006,4.951,0,7.426
		c0,0.313-0.009,0.538-0.437,0.535c-2.286-0.016-4.572-0.012-6.857-0.002c-0.32,0.001-0.431-0.115-0.426-0.431
		c0.015-0.888,0.007-1.776,0.002-2.664c-0.001-0.201,0.057-0.424-0.146-0.575c-0.378-1.124-1.204-1.698-2.311-2.026
		c-3.596-1.067-7.181-2.172-10.767-3.272C24.451,8.627,23.793,8.483,23.112,8.442"/>
	<path clip-path="url(#SVGID_2_)" fill="#6E82AB" d="M0.018,18.477c2.596,0.003,5.192,0.007,7.788,0.009
		c0.186,0,0.383,0.032,0.51-0.158c0.109,0.83,0.03,1.66,0.03,2.489c-0.001,3.553,0.003,7.106-0.009,10.658
		c-0.002,0.619,0.081,1.202,0.411,1.735c-0.657-0.355-0.566-1.022-0.57-1.579c-0.03-3.738-0.016-7.478-0.016-11.215
		c0-0.416-0.014-0.832,0.004-1.246c0.014-0.323-0.068-0.48-0.435-0.478c-2.398,0.013-4.796,0.013-7.193,0
		c-0.371-0.002-0.437,0.163-0.434,0.481c0.012,1.114,0.005,2.228,0.005,3.342c0,5.475,0.01,10.951-0.014,16.427
		c-0.003,0.613,0.256,1.174,0.217,1.78c-0.283-0.277-0.304-0.65-0.304-0.997C0.003,32.642,0.012,25.56,0.018,18.477"/>
	<path clip-path="url(#SVGID_2_)" fill="#6E82AB" d="M23.137,42.065c6.601,0,13.202-0.001,19.803,0.002
		c0.2,0,0.417-0.067,0.598,0.087c-0.17,0.007-0.339,0.019-0.509,0.019c-13.15,0.001-26.303,0.001-39.454,0
		c-0.17,0-0.34-0.012-0.509-0.019C3.247,42,3.463,42.067,3.664,42.067c6.451-0.003,12.901-0.003,19.351-0.003
		C23.056,42.065,23.096,42.065,23.137,42.065"/>
	<path clip-path="url(#SVGID_2_)" fill="#5E7AA7" d="M46.139,40.015c-0.173-0.197-0.094-0.436-0.094-0.653
		c-0.005-5.235-0.012-10.47,0.008-15.705c0.002-0.524-0.142-0.668-0.662-0.661c-2.154,0.028-4.31,0.024-6.463,0.002
		c-0.467-0.005-0.612,0.122-0.608,0.6c0.021,2.701,0.012,5.404,0.007,8.107c-0.001,0.198,0.079,0.419-0.1,0.591
		c-0.003-0.067-0.005-0.136-0.008-0.203c-0.005-2.93-0.005-5.859-0.02-8.788c-0.002-0.319,0.09-0.42,0.414-0.419
		c2.381,0.013,4.763,0.012,7.144,0.002c0.306-0.002,0.431,0.066,0.43,0.403c-0.01,5.481-0.008,10.962-0.011,16.444
		C46.176,39.828,46.151,39.921,46.139,40.015"/>
	<path clip-path="url(#SVGID_2_)" fill="#6E82AB" d="M37.401,33.639c-0.287,0.479-0.768,0.48-1.235,0.481
		c-4.343,0.003-8.688,0.002-13.03,0.001c-0.041,0.001-0.081,0.001-0.121,0.001c-4.222,0-8.445,0.001-12.668-0.002
		c-0.295,0-0.615,0.065-0.818-0.246c0.533,0.153,1.079,0.137,1.625,0.137c8.056-0.001,16.111-0.005,24.167,0.006
		C36.046,34.018,36.748,33.987,37.401,33.639"/>
	<path clip-path="url(#SVGID_2_)" fill="#5E7AA9" d="M38.181,14.126c0.204,0.152,0.146,0.374,0.146,0.575
		c0.005,0.888,0.012,1.776-0.002,2.664c-0.005,0.316,0.105,0.432,0.425,0.431c2.286-0.009,4.572-0.014,6.858,0.003
		c0.428,0.003,0.436-0.222,0.436-0.536c-0.005-2.475-0.001-4.95,0-7.425c0.196,0.18,0.129,0.421,0.13,0.636
		c0.008,2.319-0.004,4.639,0.015,6.958c0.003,0.396-0.107,0.508-0.504,0.505c-2.338-0.018-4.677-0.017-7.014-0.001
		c-0.37,0.003-0.479-0.105-0.475-0.475C38.212,16.35,38.188,15.238,38.181,14.126"/>
	<path clip-path="url(#SVGID_2_)" fill="#6E82AB" d="M43.78,42.152c0.558-0.156,1.002-0.59,1.599-0.65
		C44.952,41.98,44.402,42.154,43.78,42.152"/>
	<path clip-path="url(#SVGID_2_)" fill="#6E82AB" d="M8.326,17.57c0-0.61,0-1.219,0-1.827C8.326,16.354,8.326,16.962,8.326,17.57"/>
	<path clip-path="url(#SVGID_2_)" fill="#6E82AB" d="M1.221,41.742c0.439,0.202,0.951,0.161,1.375,0.412
		C2.095,42.16,1.591,42.169,1.221,41.742"/>
	<path clip-path="url(#SVGID_2_)" fill="#6E82AB" d="M0.544,41.169c0.358,0.043,0.542,0.286,0.675,0.587
		C0.883,41.688,0.69,41.456,0.544,41.169"/>
	<path clip-path="url(#SVGID_2_)" fill="#6E82AB" d="M38.219,32.092c0.002,0.068,0.005,0.136,0.007,0.203
		c-0.021,0.126,0.019,0.276-0.137,0.35C38.108,32.456,38.099,32.259,38.219,32.092"/>
	<path clip-path="url(#SVGID_2_)" fill="#6E82AB" d="M9.541,33.879c-0.185,0.025-0.353,0.024-0.351-0.231
		C9.324,33.699,9.457,33.752,9.541,33.879"/>
	<path clip-path="url(#SVGID_2_)" fill="#6E82AB" d="M0.305,40.717c0.199,0.088,0.239,0.263,0.245,0.454
		C0.394,41.061,0.308,40.912,0.305,40.717"/>
	<path clip-path="url(#SVGID_2_)" fill="#6E82AB" d="M38.094,32.637c0.006,0.154,0.037,0.321-0.189,0.35
		C37.968,32.87,38.03,32.753,38.094,32.637"/>
	<path clip-path="url(#SVGID_2_)" fill="#6E82AB" d="M45.592,41.277c-0.006-0.17,0.07-0.286,0.231-0.345
		C45.794,41.079,45.717,41.194,45.592,41.277"/>
	<path clip-path="url(#SVGID_2_)" fill="#5E7AA9" d="M46.052,9.628c-0.113-0.064-0.138-0.138-0.025-0.226
		C46.035,9.478,46.043,9.553,46.052,9.628"/>
	<path clip-path="url(#SVGID_2_)" fill="#6E82AB" d="M37.866,33.078c0.005,0.106-0.004,0.205-0.132,0.238
		C37.73,33.209,37.781,33.135,37.866,33.078"/>
	<path clip-path="url(#SVGID_2_)" fill="#6E82AB" d="M37.744,33.304c-0.039,0.041-0.079,0.082-0.119,0.123
		C37.632,33.355,37.669,33.311,37.744,33.304"/>
	<path clip-path="url(#SVGID_2_)" fill="#6E82AB" d="M37.633,33.418c-0.04,0.041-0.081,0.082-0.121,0.123
		C37.519,33.468,37.56,33.427,37.633,33.418"/>
	<path clip-path="url(#SVGID_2_)" fill="#6E82AB" d="M37.52,33.532c-0.041,0.04-0.082,0.078-0.123,0.118
		C37.4,33.573,37.447,33.54,37.52,33.532"/>
	<path clip-path="url(#SVGID_2_)" fill="#6E82AB" d="M45.478,41.401c0.039-0.043,0.078-0.086,0.118-0.129
		C45.556,41.315,45.517,41.358,45.478,41.401"/>
	<path clip-path="url(#SVGID_2_)" fill="#7598D4" d="M23.016,34.123c0.04,0,0.08,0,0.12,0c0,2.647,0.001,5.295,0.001,7.942
		c-0.04,0-0.081,0-0.121-0.001C23.016,39.417,23.016,36.77,23.016,34.123"/>
</g>
</svg>
