<?xml version="1.0" encoding="UTF-8"?>
<svg id="_레이어_2" data-name="레이어_2" xmlns="http://www.w3.org/2000/svg" viewBox="0 0 10.43 10.48">
  <defs>
    <style>
      .cls-1 {
        fill: #fff;
      }
    </style>
  </defs>
  <g id="on_공유">
    <g id="twitter_x">
      <path class="cls-1" d="M6.69,4.58l3.57-3.59c.23-.23.23-.6,0-.82-.23-.23-.59-.23-.82,0l-3.44,3.46L3.52.24C3.41.09,3.24,0,3.05,0H.58C.36,0,.16.12.06.32c-.1.2-.08.43.05.61l3.63,4.97L.17,9.48c-.23.23-.23.6,0,.82.11.11.26.17.41.17s.3-.06.41-.17l3.44-3.46,2.48,3.39c.11.15.28.24.47.24h2.47c.22,0,.42-.12.52-.32.1-.2.08-.43-.05-.61l-3.63-4.97ZM7.67,9.31L1.72,1.16h1.04l5.95,8.15h-1.04Z"/>
    </g>
  </g>
</svg>