<?xml version="1.0" encoding="UTF-8"?>
<svg id="_레이어_2" data-name="레이어_2" xmlns="http://www.w3.org/2000/svg" viewBox="0 0 13.01 13.23">
  <defs>
    <style>
      .cls-1 {
        fill: #fff;
      }
    </style>
  </defs>
  <g id="on_공유">
    <g id="link">
      <path class="cls-1" d="M8.16,3.89l-4.34,4.42c-.28.29-.28.75,0,1.04.14.14.33.22.51.22s.37-.07.51-.22l4.34-4.42c.28-.29.28-.75,0-1.04-.28-.29-.74-.29-1.02,0ZM11.74,1.29c-1.69-1.72-4.44-1.72-6.17.04l-.33.39c-.26.31-.23.77.07,1.04.3.27.76.23,1.02-.08l.3-.35c1.13-1.15,2.96-1.15,4.09,0,.55.56.85,1.3.85,2.08s-.3,1.53-.81,2.05l-.39.34c-.3.27-.33.73-.07,1.04.14.17.34.25.55.25.17,0,.34-.06.47-.18l.42-.38c.82-.83,1.27-1.94,1.27-3.12s-.45-2.29-1.27-3.12ZM6.65,10.59l-.25.35c-1.14,1.11-2.97,1.1-4.1-.04-1.13-1.13-1.14-2.99-.03-4.13l.38-.34c.3-.27.33-.73.06-1.04-.26-.3-.72-.33-1.02-.06l-.38.34s-.05.05-.06.06c-1.67,1.72-1.66,4.51.03,6.22.85.86,1.97,1.28,3.08,1.28s2.23-.43,3.08-1.28c.03-.03.05-.05.07-.08l.29-.39c.24-.33.17-.79-.15-1.03-.32-.24-.77-.17-1.01.15Z"/>
    </g>
  </g>
</svg>