<?xml version="1.0" encoding="UTF-8"?>
<svg id="_레이어_2" data-name="레이어_2" xmlns="http://www.w3.org/2000/svg" viewBox="0 0 11.65 11.85">
  <defs>
    <style>
      .cls-1 {
        fill: #fff;
      }
    </style>
  </defs>
  <g id="on_공유">
    <g id="_인스타" data-name="인스타">
      <path class="cls-1" d="M11.61,3.48c-.03-.63-.13-1.06-.27-1.44-.15-.4-.38-.75-.67-1.05-.32-.33-.65-.53-1.03-.68-.37-.15-.79-.25-1.41-.28-.62-.03-.82-.04-2.4-.04s-1.78,0-2.4.04c-.62.03-1.04.13-1.41.28-.39.15-.74.38-1.03.68-.3.3-.53.65-.67,1.05-.14.38-.24.81-.27,1.44-.03.63-.03.83-.03,2.44s0,1.81.03,2.44c.03.63.13,1.06.27,1.44.15.4.38.75.67,1.05.29.3.64.53,1.03.68.37.15.79.25,1.41.28.62.03.82.04,2.4.04s1.78,0,2.4-.04c.62-.03,1.04-.13,1.41-.28.39-.15.74-.38,1.03-.68.3-.3.53-.65.67-1.05.14-.38.24-.81.27-1.44s.03-.83.03-2.44,0-1.81-.03-2.44ZM5.82,8.89c-1.61,0-2.91-1.33-2.91-2.96s1.3-2.96,2.91-2.96,2.91,1.33,2.91,2.96-1.3,2.96-2.91,2.96ZM8.88,3.55c-.4,0-.73-.33-.73-.74s.33-.74.73-.74.73.33.73.74-.33.74-.73.74ZM5.82,4.15c-.96,0-1.75.8-1.75,1.78s.78,1.78,1.75,1.78,1.75-.8,1.75-1.78-.78-1.78-1.75-1.78Z"/>
    </g>
  </g>
</svg>