<?xml version="1.0" encoding="UTF-8"?>
<svg id="_레이어_2" data-name="레이어_2" xmlns="http://www.w3.org/2000/svg" viewBox="0 0 16.24 14.62">
  <defs>
    <style>
      .cls-1 {
        fill: #3e1918;
      }
    </style>
  </defs>
  <g id="on_공유">
    <g id="_카톡" data-name="카톡">
      <path class="cls-1" d="M8.12,0C3.63,0,0,2.8,0,6.25c0,2.22,1.51,4.17,3.77,5.28l-.77,2.79c-.03.09,0,.18.06.24.04.04.1.06.16.06.05,0,.1-.02.14-.05l3.29-2.17c.48.07.96.1,1.46.1,4.48,0,8.12-2.8,8.12-6.25S12.6,0,8.12,0ZM3.78,8.23c0,.14-.04.26-.13.34-.08.09-.2.13-.34.13-.12,0-.22-.03-.3-.09-.08-.06-.13-.15-.16-.26,0-.04,0-.08,0-.12v-2.97s-.88,0-.88,0c-.12,0-.23-.03-.31-.08-.09-.05-.14-.13-.16-.23,0-.03,0-.06-.01-.09,0-.12.05-.23.14-.29.09-.07.21-.11.35-.11h2.7c.12,0,.22.03.31.08.09.05.14.13.16.23,0,.03,0,.06,0,.09,0,.13-.05.22-.14.3-.09.07-.2.1-.35.1h-.88v2.97ZM7.65,8.58c-.09.08-.19.12-.31.12-.22,0-.36-.09-.42-.26l-.24-.69h-1.51l-.24.69c-.06.17-.2.26-.42.26-.11,0-.2-.03-.28-.08-.07-.06-.12-.13-.14-.23,0-.03,0-.06,0-.1,0-.05,0-.1.03-.17.02-.06.04-.13.06-.2l1.21-3.25c.04-.1.1-.18.17-.22.08-.04.17-.07.29-.07h.22c.12,0,.22.02.31.07.08.05.15.14.19.28l1.13,3.19c.04.1.06.18.08.25,0,.05.01.08.02.11,0,.12-.04.21-.13.29ZM10.77,8.52c-.09.07-.21.11-.35.11h-1.95c-.15,0-.26-.03-.35-.09-.09-.06-.15-.15-.18-.28-.01-.05-.02-.12-.02-.19v-3.21c0-.14.04-.26.13-.34.08-.09.2-.13.34-.13.12,0,.22.03.3.1.08.06.13.15.15.26,0,.04.01.08,0,.12v2.97s1.56,0,1.56,0c.13,0,.23.03.31.08.09.05.14.13.16.23,0,.03.01.06.01.09,0,.13-.04.22-.14.29ZM14.28,8.6c-.09.07-.21.11-.34.11-.1,0-.18-.02-.23-.05-.06-.04-.12-.1-.18-.2l-1.08-1.69-.51.52v.94c0,.14-.04.26-.12.34-.08.09-.2.13-.34.13-.12,0-.22-.03-.3-.09-.08-.06-.13-.15-.16-.26,0-.04,0-.08,0-.12v-3.37c0-.14.04-.26.13-.34.08-.09.2-.13.34-.13.12,0,.22.03.3.1.08.06.14.15.16.26,0,.04.01.08,0,.12v1.38s1.47-1.65,1.47-1.65c.07-.07.12-.12.18-.16.06-.03.12-.05.2-.05.1,0,.2.03.28.09.08.05.13.13.15.22,0,0,0,.02,0,.04,0,.01,0,.03,0,.04,0,.06-.02.12-.04.17-.03.05-.06.1-.11.15l-.96,1.02,1.14,1.75.03.05c.08.12.12.21.13.27,0,0,0,.01,0,.03v.03c0,.16-.05.28-.14.35Z"/>
    </g>
  </g>
</svg>